<?xml version="1.0" encoding="UTF-8"?>
<svg id="Capa_1" data-name="Capa 1" xmlns="http://www.w3.org/2000/svg" version="1.1" viewBox="0 0 512 512">
  <path d="M270.8,512c-61.9-.7-108.3-3.6-152.9-20.1-60.7-22.6-93.8-68.8-106.9-129.5-15-69.6-14.5-140-.3-209.8C27,72.7,76.9,25.2,156,9.8c67-13.1,134.7-13.3,201.7.5,72,14.9,121.5,56.2,139.6,129.4,19.8,80.4,20.3,161.3-2.3,241.2-21.1,74.8-76.1,111.5-149.2,123.7-29.6,4.9-59.9,6-74.9,7.4h-.1Z" fill="#efefef" stroke-width="0"/>
  <g id="_08-Archive" data-name=" 08-Archive">
    <path d="M100.2,342.5h103.8v34.6h-103.8v-34.6Z" fill="#f2f6fc" stroke-width="0"/>
    <path d="M100.2,359.8h103.8v17.3h-103.8v-17.3Z" fill="#cdd2e1" stroke-width="0"/>
    <path d="M261.8,111.8h173.1v225h-173.1V111.8Z" fill="#65b1fc" stroke-width="0"/>
    <path d="M261.8,134.8h115.4c12.7,0,23.1,10.3,23.1,23.1v178.8h-138.5v-201.9h0Z" fill="#4a98f7" stroke-width="0"/>
    <path d="M204.1,152.2h173.1v225h-173.1v-225h0Z" fill="#f2f6fc" stroke-width="0"/>
    <path d="M204.1,204.1h103.8c15.9,0,28.8,12.9,28.8,28.8v144.2h-132.7v-173.1h0l.1.1Z" fill="#cdd2e1" stroke-width="0"/>
    <path d="M204.1,198.3v23.1h-11.5l-28.8-28.8h-63.5v-23.1h75l28.8,28.8Z" fill="#ffa426" stroke-width="0"/>
    <path d="M163.7,181h-63.5v11.5h63.5l28.8,28.8h11.5v-11.5h-11.5l-28.8-28.8Z" fill="#fe8205" stroke-width="0"/>
    <path d="M319.5,244.5v132.7c0,12.7-10.3,23.1-23.1,23.1H100.2c-12.7,0-23.1-10.3-23.1-23.1v-184.6h86.5l28.8,28.8h103.8c12.7,0,23.1,10.3,23.1,23.1h.2,0ZM204.1,377.2v-34.6h-103.8v34.6h103.8Z" fill="#ffc247" stroke-width="0"/>
    <path d="M100.2,377.2v-184.6h-23.1v184.6c0,12.7,10.3,23.1,23.1,23.1h23.1c-12.7,0-23.1-10.3-23.1-23.1Z" fill="#ffa426" stroke-width="0"/>
    <path d="M204.1,342.5h23.1v34.6h-23.1v-34.6Z" fill="#ffa426" stroke-width="0"/>
    <g>
      <path d="M221.4,169.5h11.5v11.5h-11.5v-11.5Z" fill="#11a892" stroke-width="0"/>
      <path d="M244.5,169.5h46.2v11.5h-46.2v-11.5h0Z" fill="#11a892" stroke-width="0"/>
      <path d="M221.4,192.5h138.5v11.5h-138.5v-11.5Z" fill="#11a892" stroke-width="0"/>
      <path d="M117.5,354.1h11.5v11.5h-11.5v-11.5Z" fill="#11a892" stroke-width="0"/>
      <path d="M140.6,354.1h46.2v11.5h-46.2v-11.5Z" fill="#11a892" stroke-width="0"/>
    </g>
    <path d="M434.8,106h-173.1c-3.2,0-5.8,2.6-5.8,5.8v34.6h-51.9c-3.2,0-5.8,2.6-5.8,5.8v32.2l-19-19c-1.1-1.1-2.5-1.7-4.1-1.7h-75c-3.2,0-5.8,2.6-5.8,5.8v17.3h-17.3c-3.2,0-5.8,2.6-5.8,5.8v184.6c0,15.9,12.9,28.8,28.8,28.8h196.2c13.7,0,25.5-9.7,28.3-23.1h52.5c3.2,0,5.8-2.6,5.8-5.8v-34.6h51.9c3.2,0,5.8-2.6,5.8-5.8V111.8c0-3.2-2.6-5.8-5.8-5.8h.1ZM106,175.2h66.8l25.5,25.5v14.9h-3.4l-27.2-27.2c-1.1-1.1-2.5-1.7-4.1-1.7h-57.7v-11.5h.1ZM313.7,377.2c0,9.6-7.7,17.3-17.3,17.3H100.2c-9.6,0-17.3-7.7-17.3-17.3v-178.8h78.4l27.2,27.2c1.1,1.1,2.5,1.7,4.1,1.7h103.8c9.6,0,17.3,7.7,17.3,17.3v132.7h0v-.1ZM371.4,371.4h-46.2v-126.9c0-15.9-12.9-28.8-28.8-28.8h-86.5v-57.7h161.5v213.5h0v-.1ZM429.1,331h-46.2v-178.8c0-3.2-2.6-5.8-5.8-5.8h-109.6v-28.8h161.5v213.5h.1v-.1Z" fill="#60276d" stroke-width="0"/>
    <path d="M221.4,169.5h11.5v11.5h-11.5v-11.5Z" fill="#60276d" stroke-width="0"/>
    <path d="M244.5,169.5h46.2v11.5h-46.2v-11.5h0Z" fill="#60276d" stroke-width="0"/>
    <path d="M221.4,192.5h138.5v11.5h-138.5v-11.5Z" fill="#60276d" stroke-width="0"/>
    <path d="M204.1,336.8h-103.8c-3.2,0-5.8,2.6-5.8,5.8v34.6c0,3.2,2.6,5.8,5.8,5.8h103.8c3.2,0,5.8-2.6,5.8-5.8v-34.6c0-3.2-2.6-5.8-5.8-5.8ZM198.3,371.4h-92.3v-23.1h92.3v23.1Z" fill="#60276d" stroke-width="0"/>
    <path d="M117.5,354.1h11.5v11.5h-11.5v-11.5Z" fill="#60276d" stroke-width="0"/>
    <path d="M140.6,354.1h46.2v11.5h-46.2v-11.5Z" fill="#60276d" stroke-width="0"/>
  </g>
</svg>