<?xml version="1.0" encoding="UTF-8"?>
<svg id="Capa_1" data-name="Capa 1" xmlns="http://www.w3.org/2000/svg" version="1.1" viewBox="0 0 512 512">
  <path d="M270.8,512c-61.9-.7-108.3-3.6-152.9-20.1-60.7-22.6-93.8-68.8-106.9-129.5-15-69.6-14.5-140-.3-209.8C27,72.7,76.9,25.2,156,9.8c67-13.1,134.7-13.3,201.7.5,72,14.9,121.5,56.2,139.6,129.4,19.8,80.4,20.3,161.3-2.3,241.2-21.1,74.8-76.1,111.5-149.2,123.7-29.6,4.9-59.9,6-74.9,7.4h-.1Z" fill="#efefef" stroke-width="0"/>
  <g>
    <g>
      <g>
        <path d="M123.1,110.7h179.6c1.6,0,3,.6,4.1,1.7l32.9,32.9c1.1,1.1,1.7,2.5,1.7,4.1v246c0,3.2-2.6,5.9-5.9,5.9H123.1c-3.2,0-5.9-2.6-5.9-5.9V116.5c0-3.2,2.6-5.9,5.9-5.9h0v.1Z" fill="#eceff1" fill-rule="evenodd" stroke-width="0"/>
        <path d="M123.1,110.7h11.7v290.6h-11.7c-3.2,0-5.9-2.6-5.9-5.9V116.5c0-3.2,2.6-5.9,5.9-5.9h0v.1Z" fill="#d1d1d6" fill-rule="evenodd" stroke-width="0"/>
        <path d="M305.2,111.2v30c0,3.2,2.6,5.9,5.9,5.9h30c-.3-.6-.7-1.2-1.2-1.7l-32.9-32.9c-.5-.5-1.1-.9-1.7-1.2h0l-.1-.1Z" fill="#a79ba7" fill-rule="evenodd" stroke-width="0"/>
      </g>
      <g>
        <path d="M276.1,310.9l82.6-143.2c4.5-7.8,14.5-10.4,22.2-6l5.6,3.3c7.8,4.5,10.4,14.5,6,22.2l-82.6,143.2-22,1c-1.1,0-2,.5-2.9,0s-1.1-1.5-1.5-2.5l-7.4-18h0Z" fill="#ffe177" fill-rule="evenodd" stroke-width="0"/>
        <path d="M378.6,160.7c.8.3,1.6.7,2.4,1.1l5.6,3.3c7.8,4.5,10.4,14.5,6,22.2l-82.6,143.2-19.1,7.1c-1,.4-2,.5-2.9,0s-1.5-1.5-1.5-2.5v-6.6l13.4-3.8,82.6-143.2c4-7,2.3-15.8-3.8-20.7h-.1v-.1Z" fill="#ffc338" fill-rule="evenodd" stroke-width="0"/>
        <path d="M276.1,344.9v-34l33.8,19.5-29.4,17c-.9.5-2,.5-2.9,0s-1.5-1.5-1.5-2.5Z" fill="#837683" fill-rule="evenodd" stroke-width="0"/>
      </g>
      <path d="M162.6,176.6h37.9c2.7,0,5,2.2,5,5v37.9c0,2.7-2.2,5-5,5h-37.9c-2.7,0-5-2.2-5-5v-37.9c0-2.7,2.2-5,5-5Z" fill="#6cf5c2" fill-rule="evenodd" stroke-width="0"/>
      <path d="M162.6,316.2h37.9c2.7,0,5,2.2,5,5v37.9c0,2.7-2.2,5-5,5h-37.9c-2.7,0-5-2.2-5-5v-37.9c0-2.7,2.2-5,5-5Z" fill="#6cf5c2" fill-rule="evenodd" stroke-width="0"/>
      <path d="M162.6,246.4h37.9c2.7,0,5,2.2,5,5v37.9c0,2.7-2.2,5-5,5h-37.9c-2.7,0-5-2.2-5-5v-37.9c0-2.7,2.2-5,5-5Z" fill="#fe646f" fill-rule="evenodd" stroke-width="0"/>
    </g>
    <path d="M269.3,330.3c0,2.6-2.1,4.7-4.7,4.7h-28.9c-2.6,0-4.7-2.1-4.7-4.7s2.1-4.7,4.7-4.7h28.9c2.6,0,4.7,2.1,4.7,4.7ZM195.2,335.8l-11.9,14.7c-.8,1-2.1,1.7-3.4,1.7h-.2c-1.2,0-2.4-.5-3.3-1.4l-8.3-8.3c-1.8-1.8-1.8-4.8,0-6.6,1.9-1.8,4.8-1.8,6.6,0l4.6,4.6,8.6-10.6c1.6-2,4.6-2.3,6.6-.7,2,1.6,2.3,4.6.7,6.6h0ZM200.7,359.1v-37.9c0-.1-.1-.3-.2-.3h-37.9c-.1,0-.2.1-.2.3v37.9c0,.1.1.3.2.3h37.9c.1,0,.2-.1.2-.3ZM200.5,311.5h-37.9c-5.3,0-9.6,4.3-9.6,9.6v37.9c0,5.3,4.3,9.6,9.6,9.6h37.9c5.3,0,9.6-4.3,9.6-9.6v-37.9c0-5.3-4.3-9.6-9.6-9.6h0ZM231,210.3c0-2.6,2.1-4.7,4.7-4.7h40.4c2.6,0,4.7,2.1,4.7,4.7s-2.1,4.7-4.7,4.7h-40.4c-2.6,0-4.7-2.1-4.7-4.7h0ZM235.7,186h62.1c2.6,0,4.7,2.1,4.7,4.7s-2.1,4.7-4.7,4.7h-62.1c-2.6,0-4.7-2.1-4.7-4.7s2.1-4.7,4.7-4.7h0ZM195.2,196.1l-11.9,14.7c-.8,1-2.1,1.7-3.4,1.7h-.2c-1.2,0-2.4-.5-3.3-1.4l-8.3-8.3c-1.8-1.8-1.8-4.8,0-6.6,1.9-1.8,4.8-1.8,6.6,0l4.6,4.6,8.6-10.6c1.6-2,4.6-2.3,6.6-.7s2.3,4.6.7,6.6h0ZM200.7,219.5v-37.9c0-.1-.1-.3-.2-.3h-37.9c-.1,0-.2.1-.2.3v37.9c0,.1.1.3.2.3h37.9c.1,0,.2-.1.2-.3ZM200.5,171.9h-37.9c-5.3,0-9.6,4.3-9.6,9.6v37.9c0,5.3,4.3,9.6,9.6,9.6h37.9c5.3,0,9.6-4.3,9.6-9.6v-37.9c0-5.3-4.3-9.6-9.6-9.6h0ZM388.5,185c3.2-5.5,1.3-12.6-4.2-15.8l-5.6-3.3c-5.5-3.2-12.6-1.3-15.8,4.2l-80.3,139.1,25.7,14.8,80.3-139.1h0l-.1.1ZM280.8,341.9v-22.8l19.8,11.4-19.8,11.4ZM336.8,396.6v-103.4l-22.8,39.5c-.4.7-1,1.3-1.7,1.7l-33.8,19.5c-.7.4-1.5.6-2.3.6h-40.4c-2.6,0-4.7-2.1-4.7-4.7s2.1-4.7,4.7-4.7h35.7v-34.4c0-.8.2-1.6.6-2.3l64.7-112.2v-44.7h-31.6c-2.6,0-4.7-2.1-4.7-4.7v-31.6H121.9v281.3h214.9v.1ZM309.8,122l20.3,20.3h-20.3v-20.3ZM389,161l-5.6-3.3c-10-5.8-22.9-2.3-28.6,7.7l-8.5,14.8v-33.2c0-1.2-.5-2.4-1.4-3.3l-36.3-36.3c-.9-.9-2.1-1.4-3.3-1.4H117.2c-2.6,0-4.7,2.1-4.7,4.7v290.6c0,2.6,2.1,4.7,4.7,4.7h224.2c2.6,0,4.7-2.1,4.7-4.7v-124.3l50.4-87.4c5.8-10,2.4-22.8-7.7-28.6h.2ZM152.9,147c0-2.6,2.1-4.7,4.7-4.7h107.4c2.6,0,4.7,2.1,4.7,4.7s-2.1,4.7-4.7,4.7h-107.4c-2.6,0-4.7-2.1-4.7-4.7h0ZM280.8,280.1c0,2.6-2.1,4.7-4.7,4.7h-40.4c-2.6,0-4.7-2.1-4.7-4.7s2.1-4.7,4.7-4.7h40.4c2.6,0,4.7,2.1,4.7,4.7ZM294.2,260.5c0,2.6-2.1,4.7-4.7,4.7h-53.8c-2.6,0-4.7-2.1-4.7-4.7s2.1-4.7,4.7-4.7h53.8c2.6,0,4.7,2.1,4.7,4.7ZM193.3,263.2l-5.8,7.1,5.8,7.1c1.6,2,1.3,5-.7,6.6-.9.7-1.9,1-2.9,1s-2.7-.6-3.6-1.7l-4.5-5.6-4.5,5.6c-1.6,2-4.6,2.3-6.6.7-2-1.6-2.3-4.6-.7-6.6l5.8-7.1-5.8-7.1c-1.6-2-1.3-5,.7-6.6s5-1.3,6.6.7l4.5,5.6,4.5-5.6c1.6-2,4.6-2.3,6.6-.7,2,1.6,2.3,4.6.7,6.6h-.1ZM200.7,289.3c0,.1-.1.3-.2.3h-37.9c-.1,0-.2-.1-.2-.3v-37.9c0-.1.1-.3.2-.3h37.9c.1,0,.2.1.2.3v37.9ZM200.5,241.7c5.3,0,9.6,4.3,9.6,9.6v37.9c0,5.3-4.3,9.6-9.6,9.6h-37.9c-5.3,0-9.6-4.3-9.6-9.6v-37.9c0-5.3,4.3-9.6,9.6-9.6h37.9Z" fill="#32004c" fill-rule="evenodd" stroke-width="0"/>
  </g>
</svg>