<?xml version="1.0" encoding="UTF-8"?>
<svg id="Capa_1" data-name="Capa 1" xmlns="http://www.w3.org/2000/svg" version="1.1" viewBox="0 0 512 512">
  <path d="M270.8,512c-61.9-.7-108.3-3.6-152.9-20.1-60.7-22.6-93.8-68.8-106.9-129.5-15-69.6-14.5-140-.3-209.8C27,72.7,76.9,25.2,156,9.8c67-13.1,134.7-13.3,201.7.5,72,14.9,121.5,56.2,139.6,129.4,19.8,80.4,20.3,161.3-2.3,241.2-21.1,74.8-76.1,111.5-149.2,123.7-29.6,4.9-59.9,6-74.9,7.4h-.1Z" fill="#efefef" stroke-width="0"/>
  <g>
    <path d="M282.99,339.84h-53.97c-3.11,0-5.63-2.52-5.63-5.63v-13.8h65.24v13.8c0,3.11-2.52,5.63-5.63,5.63Z" fill="#464754" stroke-width="0"/>
    <rect x="223.38" y="319.25" width="65.24" height="10.05" fill="#373842" stroke-width="0"/>
    <path d="M296.87,128.91h-81.74v-1.37c0-9.43,7.65-17.08,17.08-17.08h47.58c9.43,0,17.08,7.65,17.08,17.08v1.37h0Z" fill="#464754" stroke-width="0"/>
    <path d="M217.04,119.68c-1.22,2.35-1.92,5.02-1.92,7.86v1.37h81.74v-1.37c0-2.83-.69-5.5-1.92-7.86h-77.91Z" fill="#373842" stroke-width="0"/>
    <path d="M389.08,320.41H122.92c-5.87,0-10.63-4.76-10.63-10.63v-171.51c0-5.87,4.76-10.63,10.63-10.63h266.17c5.87,0,10.63,4.76,10.63,10.63v171.51c0,5.87-4.76,10.63-10.63,10.63Z" fill="#eff2f9" stroke-width="0"/>
    <path d="M389.08,127.63h-24.99c0,86.79-70.36,157.16-157.16,157.16h-94.66v24.99c0,5.87,4.76,10.63,10.63,10.63h266.17c5.87,0,10.63-4.76,10.63-10.63v-171.51c0-5.87-4.76-10.63-10.63-10.63Z" fill="#d7ddeb" stroke-width="0"/>
    <path d="M232.01,170.88c-26.42-.18-48.25,21.33-48.43,47.75-.11,15.29,6.92,28.95,17.96,37.83-1.05,5.34-3.18,11.86-7.5,17.09-1.27,1.54-.04,3.84,1.95,3.59,2.22-.27,4.7-.75,7.34-1.54,3.09-.93,10.89-3.37,17.45-9.77,3.9.9,7.98,1.33,12.18,1.23,25.59-.66,46.36-21.59,46.82-47.19.49-26.86-21.05-48.81-47.76-48.99Z" fill="#8999cd" stroke-width="0"/>
    <path d="M229.04,219.32c.32,17.76,9.27,33.54,22.82,43.28,16.19-7.55,27.56-23.87,27.91-42.73.37-20.19-11.71-37.6-29.06-45.08-13.42,10.14-22,26.34-21.67,44.53Z" fill="#7588c3" stroke-width="0"/>
    <path d="M283.21,170.88c26.42-.18,48.25,21.33,48.43,47.75.11,15.29-6.92,28.95-17.96,37.83,1.05,5.34,3.18,11.86,7.5,17.09,1.27,1.54.04,3.84-1.95,3.59-2.22-.27-4.7-.75-7.34-1.54-3.09-.93-10.89-3.37-17.45-9.77-3.9.9-7.98,1.33-12.18,1.23-25.59-.66-46.36-21.59-46.82-47.19-.49-26.86,21.05-48.81,47.76-48.99Z" fill="#fcbf6c" stroke-width="0"/>
    <path d="M331.42,223.57c-13.84,17.93-31.45,32.78-51.66,43.36.83.07,1.67.11,2.52.13,4.2.11,8.28-.32,12.18-1.23,6.55,6.39,14.35,8.84,17.45,9.77,2.64.79,5.12,1.27,7.34,1.54,1.99.25,3.22-2.04,1.95-3.59-4.31-5.23-6.45-11.75-7.5-17.09,9.83-7.92,16.48-19.62,17.74-32.9Z" fill="#f8a460" stroke-width="0"/>
    <path d="M399.72,181.04c2.46,0,4.46-2,4.46-4.46v-38.32c0-8.32-6.77-15.09-15.09-15.09h-88.22c-2.06-9.8-10.77-17.17-21.17-17.17h-47.4c-10.4,0-19.11,7.38-21.17,17.17h-88.22c-8.32,0-15.09,6.77-15.09,15.09v171.51c0,8.32,6.77,15.09,15.09,15.09h96v9.34c0,3.55,1.84,6.67,4.62,8.47l-29.55,55.24c-1.16,2.17-.34,4.87,1.83,6.04.67.36,1.39.53,2.1.53,1.59,0,3.13-.85,3.94-2.36l30.94-57.82h18.75v57.24c0,2.46,2,4.46,4.46,4.46s4.46-2,4.46-4.46v-57.24h18.75l30.94,57.82c.8,1.5,2.34,2.36,3.94,2.36.71,0,1.43-.17,2.1-.53,2.17-1.16,2.99-3.86,1.83-6.04l-29.56-55.24c2.78-1.8,4.62-4.92,4.62-8.47v-9.34h96c8.32,0,15.09-6.77,15.09-15.09v-133.17c0-2.46-2-4.46-4.46-4.46s-4.46,2-4.46,4.46v133.17c0,3.4-2.77,6.17-6.17,6.17H122.92c-3.4,0-6.17-2.77-6.17-6.17v-171.51c0-3.4,2.77-6.17,6.17-6.17h266.17c3.4,0,6.17,2.77,6.17,6.17v38.32c0,2.46,2,4.46,4.46,4.46ZM284.16,324.87v9.34c0,.65-.53,1.17-1.17,1.17h-53.97c-.65,0-1.17-.53-1.17-1.17v-9.34h56.32ZM220.39,123.17c1.81-4.82,6.46-8.26,11.91-8.26h47.4c5.44,0,10.1,3.44,11.91,8.26h-71.21Z" fill="#173651" stroke-width="0"/>
    <path d="M336.1,218.6c-.2-28.85-23.75-52.18-52.56-52.18-.12,0-.24,0-.36,0-9.13.06-17.87,2.44-25.58,6.83-7.77-4.41-16.56-6.77-25.56-6.83-28.98-.21-52.72,23.21-52.92,52.18-.11,15.2,6.23,29.44,17.48,39.51-1.01,3.96-2.81,8.75-6,12.6-1.75,2.13-2.03,5.06-.71,7.46,1.18,2.15,3.4,3.44,5.81,3.44.28,0,.56-.02.84-.05,2.73-.34,5.45-.91,8.07-1.7,2.69-.81,10.43-3.13,17.49-9.21,3.6.66,7.28.95,10.96.85,3.03-.08,6.07-.42,9.02-1.02,2.41-.49,3.97-2.84,3.48-5.26-.49-2.41-2.84-3.97-5.26-3.49-2.45.5-4.97.78-7.48.85-3.73.1-7.46-.28-11.05-1.11-1.48-.34-3.03.09-4.12,1.15-5.92,5.78-13.22,7.97-15.61,8.69-.43.13-.87.25-1.31.37,2.37-4.1,4.11-8.91,5.19-14.38.32-1.63-.29-3.3-1.58-4.34-10.45-8.41-16.39-20.92-16.3-34.33.17-23.95,19.72-43.32,43.64-43.32.1,0,.2,0,.3,0,6.02.04,11.93,1.32,17.37,3.73-1.18,1.02-2.33,2.08-3.44,3.22-4.81,4.93-8.52,10.63-11.04,16.81h-22.73c-2.46,0-4.46,2-4.46,4.46s2,4.46,4.46,4.46h20c-.56,2.65-.92,5.36-1.06,8.11h-20.57c-2.46,0-4.46,2-4.46,4.46s2,4.46,4.46,4.46h20.83c.32,2.76.87,5.47,1.61,8.11h-20.81c-2.46,0-4.46,2-4.46,4.46s2,4.46,4.46,4.46h24.22c2.5,5.07,5.82,9.76,9.92,13.88,9.61,9.68,22.35,15.21,35.88,15.56,3.69.09,7.37-.19,10.97-.85,7.06,6.08,14.8,8.4,17.49,9.21,2.62.79,5.34,1.36,8.07,1.7.28.03.56.05.84.05,2.41,0,4.63-1.29,5.81-3.44,1.32-2.41,1.04-5.34-.71-7.46-3.18-3.86-4.98-8.64-5.99-12.6,11.25-10.07,17.58-24.32,17.48-39.51ZM310.88,252.99c-1.29,1.04-1.9,2.71-1.58,4.34,1.08,5.46,2.81,10.28,5.19,14.38-.44-.12-.88-.24-1.31-.37-2.4-.72-9.69-2.91-15.61-8.69-.84-.82-1.96-1.27-3.11-1.27-.34,0-.67.04-1.01.12-3.6.83-7.32,1.21-11.06,1.11-11.22-.29-21.8-4.88-29.78-12.93-3.97-4-7.08-8.64-9.23-13.67-.03-.08-.06-.15-.1-.23-2.11-5.02-3.27-10.43-3.37-15.99-.21-11.76,4.19-22.87,12.39-31.28,8.21-8.41,19.19-13.09,30.94-13.17,24.06-.18,43.77,19.27,43.94,43.32.09,13.4-5.84,25.91-16.3,34.33Z" fill="#173651" stroke-width="0"/>
    <path d="M308.61,198.35h-48.28c-2.46,0-4.46,2-4.46,4.46s2,4.46,4.46,4.46h48.28c2.46,0,4.46-2,4.46-4.46s-2-4.46-4.46-4.46Z" fill="#173651" stroke-width="0"/>
    <path d="M308.61,215.38h-48.28c-2.46,0-4.46,2-4.46,4.46s2,4.46,4.46,4.46h48.28c2.46,0,4.46-2,4.46-4.46s-2-4.46-4.46-4.46Z" fill="#173651" stroke-width="0"/>
    <path d="M285.26,232.42h-24.92c-2.46,0-4.46,2-4.46,4.46s2,4.46,4.46,4.46h24.92c2.46,0,4.46-2,4.46-4.46s-2-4.46-4.46-4.46Z" fill="#173651" stroke-width="0"/>
  </g>
</svg>