<?xml version="1.0" encoding="UTF-8"?>
<svg id="Capa_1" data-name="Capa 1" xmlns="http://www.w3.org/2000/svg" version="1.1" viewBox="0 0 512 512">
  <path d="M270.8,512c-61.9-.7-108.3-3.6-152.9-20.1-60.7-22.6-93.8-68.8-106.9-129.5-15-69.6-14.5-140-.3-209.8C27,72.7,76.9,25.2,156,9.8c67-13.1,134.7-13.3,201.7.5,72,14.9,121.5,56.2,139.6,129.4,19.8,80.4,20.3,161.3-2.3,241.2-21.1,74.8-76.1,111.5-149.2,123.7-29.6,4.9-59.9,6-74.9,7.4h-.1Z" fill="#efefef" stroke-width="0"/>
  <g>
    <g>
      <polygon points="347.6 251.7 356.7 270.1 377.1 273.1 362.3 287.4 365.8 307.7 347.6 298.1 329.4 307.7 332.9 287.4 318.2 273.1 338.5 270.1 347.6 251.7" fill="#ffe07d" stroke-width="0"/>
      <polygon points="162.8 207.7 171.9 226.2 192.3 229.1 177.5 243.5 181 263.7 162.8 254.2 144.6 263.7 148.1 243.5 133.4 229.1 153.7 226.2 162.8 207.7" fill="#ffe07d" stroke-width="0"/>
      <g>
        <path d="M235.2,131c-21.3,0-18.3-20.6-18.3-20.6h18.3l.9,9.9-.9,10.6h0v.1Z" fill="#ffd064" stroke-width="0"/>
        <path d="M277.2,131c21.3,0,18.3-20.6,18.3-20.6h-18.3l-.9,9.9.9,10.6h0v.1Z" fill="#ffd064" stroke-width="0"/>
        <path d="M235.1,110.4v30c0,11.6,9.4,21,21,21h0c11.6,0,21-9.4,21-21v-30h-42.1s.1,0,.1,0Z" fill="#ffe07d" stroke-width="0"/>
        <path d="M234.7,203.1c0-11.7,9.5-21.3,21.3-21.3s21.3,9.5,21.3,21.3h-42.6,0Z" fill="#ffe07d" stroke-width="0"/>
      </g>
      <g>
        <path d="M300.3,401.6h-89.2v-165.3c0-3.8,3.1-6.9,6.9-6.9h75.5c3.8,0,6.9,3.1,6.9,6.9v165.3h-.1Z" fill="#c3ddff" stroke-width="0"/>
        <path d="M293.4,229.4h-23.4c3.8,0,6.9,3.1,6.9,6.9v165.3h23.4v-165.3c0-3.8-3.1-6.9-6.9-6.9h0Z" fill="#a4ccff" stroke-width="0"/>
        <path d="M390.2,401.6h-89.2v-61.9c0-3.8,3.1-6.9,6.9-6.9h75.5c3.8,0,6.9,3.1,6.9,6.9v61.9h-.1Z" fill="#b3e59f" stroke-width="0"/>
        <path d="M383.3,332.9h-23.4c3.8,0,6.9,3.1,6.9,6.9v61.9h23.4v-61.9c0-3.8-3.1-6.9-6.9-6.9Z" fill="#95d6a4" stroke-width="0"/>
        <path d="M211.1,401.6h-89.2v-107.7c0-3.8,3.1-6.9,6.9-6.9h75.5c3.8,0,6.9,3.1,6.9,6.9v107.7h-.1Z" fill="#ff8086" stroke-width="0"/>
        <path d="M204.2,287h-23.4c3.8,0,6.9,3.1,6.9,6.9v107.7h23.4v-107.7c0-3.8-3.1-6.9-6.9-6.9h0Z" fill="#e5646e" stroke-width="0"/>
      </g>
    </g>
    <g>
      <path d="M328.2,289l-3.1,18c-.3,1.6.4,3.3,1.7,4.3s3.1,1.1,4.6.3l16.1-8.5,16.1,8.5c.6.3,1.3.5,2,.5s1.8-.3,2.6-.8c1.4-1,2-2.6,1.7-4.3l-3.1-18,13.1-12.7c1.2-1.2,1.6-2.9,1.1-4.5s-1.9-2.7-3.5-3l-18.1-2.6-8.1-16.4c-.7-1.5-2.3-2.4-3.9-2.4s-3.2.9-3.9,2.4l-8.1,16.4-18.1,2.6c-1.7.2-3,1.4-3.5,3s0,3.3,1.1,4.5l13.1,12.7h.2,0ZM339.2,274.5c1.4-.2,2.7-1.1,3.3-2.4l5.2-10.5,5.2,10.5c.6,1.3,1.9,2.2,3.3,2.4l11.5,1.7-8.4,8.1c-1,1-1.5,2.5-1.3,3.9l2,11.5-10.3-5.4c-.6-.3-1.3-.5-2-.5s-1.4.2-2,.5l-10.3,5.4,2-11.5c.2-1.4-.2-2.9-1.3-3.9l-8.4-8.1,11.5-1.7h0Z" fill="#004045" stroke-width="0"/>
      <path d="M143.4,245l-3.1,18c-.3,1.6.4,3.3,1.7,4.3,1.4,1,3.1,1.1,4.6.3l16.1-8.5,16.1,8.5c.6.3,1.3.5,2,.5s1.8-.3,2.6-.8c1.4-1,2-2.6,1.7-4.3l-3.1-18,13.1-12.7c1.2-1.2,1.6-2.9,1.1-4.5s-1.9-2.7-3.5-3l-18.1-2.6-8.1-16.4c-.7-1.5-2.3-2.4-3.9-2.4s-3.2.9-3.9,2.4l-8.1,16.4-18.1,2.6c-1.7.2-3,1.4-3.5,3s0,3.3,1.1,4.5l13.1,12.7h.2,0ZM154.4,230.5c1.4-.2,2.7-1.1,3.3-2.4l5.2-10.5,5.2,10.5c.6,1.3,1.9,2.2,3.3,2.4l11.5,1.7-8.4,8.1c-1,1-1.5,2.5-1.3,3.9l2,11.5-10.3-5.4c-.6-.3-1.3-.5-2-.5s-1.4.2-2,.5l-10.3,5.4,2-11.5c.2-1.4-.2-2.9-1.3-3.9l-8.4-8.1,11.5-1.7Z" fill="#004045" stroke-width="0"/>
      <path d="M230.7,135.1v5.3c0,12.5,9.1,22.9,21,25v12.3c-10.7,1.7-19.3,10.2-21.1,20.9h-6.1c-5.7,0-5.7,8.8,0,8.8h63c5.7,0,5.7-8.8,0-8.8h-6.3c-1.8-10.5-10.1-18.9-20.6-20.8v-12.4c11.9-2.1,21-12.5,21-25v-5.4c5.6-.8,10-3,13.3-6.7,6.5-7.5,5-18.1,4.9-18.6-.3-2.2-2.2-3.7-4.3-3.7h-78.8c-2.2,0-4,1.6-4.3,3.7,0,.4-1.6,11.1,4.9,18.6,3.3,3.8,7.8,6.1,13.6,6.8h-.2ZM272.2,198.7h-32.6c1.9-7.2,8.5-12.5,16.3-12.5s14.4,5.3,16.3,12.5ZM288.2,122.6c-1.5,1.8-3.8,3-6.6,3.6v-11.4h9.6c-.2,2.4-.9,5.5-2.9,7.8h-.1ZM239.5,114.8h33.3v25.7c0,9.2-7.5,16.6-16.6,16.6s-16.6-7.5-16.6-16.6v-25.7h-.1ZM230.7,114.8v11.4c-3-.5-5.3-1.7-6.9-3.6-2.1-2.4-2.8-5.5-3-7.9h9.9v.1Z" fill="#004045" stroke-width="0"/>
      <path d="M401.3,397.2h-6.8v-57.5c0-6.2-5.1-11.3-11.3-11.3h-75.5c-1.1,0-2.1.2-3.1.4v-92.6c0-6.2-5.1-11.3-11.3-11.3h-75.5c-6.2,0-11.3,5.1-11.3,11.3v46.6c-.8-.2-1.6-.3-2.5-.3h-75.5c-6.2,0-11.3,5.1-11.3,11.3v59.3c0,5.7,8.8,5.7,8.8,0v-59.3c0-1.4,1.1-2.5,2.5-2.5h75.5c1.4,0,2.5,1.1,2.5,2.5v103.3h-80.5v-47.4c0-5.7-8.8-5.7-8.8,0v47.4h-6.8c-2.4,0-4.4,2-4.4,4.4s2,4.4,4.4,4.4h290.7c2.4,0,4.4-2,4.4-4.4s-2-4.4-4.4-4.4h.2v.1ZM215.5,397.2v-160.9c0-1.4,1.1-2.5,2.5-2.5h75.5c1.4,0,2.5,1.1,2.5,2.5v160.9h-80.5ZM305.3,397.2v-57.5c0-1.4,1.1-2.5,2.5-2.5h75.5c1.4,0,2.5,1.1,2.5,2.5v57.5h-80.5Z" fill="#004045" stroke-width="0"/>
    </g>
  </g>
</svg>