<?xml version="1.0" encoding="UTF-8"?>
<svg id="Capa_1" data-name="Capa 1" xmlns="http://www.w3.org/2000/svg" version="1.1" viewBox="0 0 512 512">
  <path d="M270.8,512c-61.9-.7-108.3-3.6-152.9-20.1-60.7-22.6-93.8-68.8-106.9-129.5-15-69.6-14.5-140-.3-209.8C27,72.7,76.9,25.2,156,9.8c67-13.1,134.7-13.3,201.7.5,72,14.9,121.5,56.2,139.6,129.4,19.8,80.4,20.3,161.3-2.3,241.2-21.1,74.8-76.1,111.5-149.2,123.7-29.6,4.9-59.9,6-74.9,7.4h-.1Z" fill="#efefef" stroke-width="0"/>
  <g>
    <circle cx="256" cy="256.5" r="149.5" fill="#fbbd5e" stroke-width="0"/>
    <g>
      <path d="M111.2,184.1h289.2v214.9H137c-14.6,0-26.3-11.8-26.3-25.9v-189h.5Z" fill="#e0e4e8" stroke-width="0"/>
      <path d="M400.8,403.6H137.5c-16.9,0-30.6-13.6-30.6-30.6v-189c0-2.4,1.9-4.7,4.7-4.7h289.2c2.4,0,4.7,1.9,4.7,4.7v214.9c0,2.8-2.4,4.7-4.7,4.7h0ZM115.9,188.8v184.8c0,11.8,9.4,21.2,21.2,21.2h258.6v-206H115.9Z" fill="#183651" stroke-width="0"/>
    </g>
    <path d="M382,202.4h-252v170.7c0,3.8,3.3,7.1,7.1,7.1h200.3l44.2-39.5v-138.2h.5-.1v-.1Z" fill="#fff" stroke-width="0"/>
    <path d="M337.8,380.6l44.2-40h-44.2v40Z" fill="#cecfd0" stroke-width="0"/>
    <g>
      <path d="M136.1,155.8c-13.6,0-24.9,11.3-24.9,24.9v190c0-13.6,11.3-24.9,24.9-24.9s24.9,11.3,24.9,24.9v-190.4c-.5-13.6-11.3-24.5-24.9-24.5h0Z" fill="#4fbf9f" stroke-width="0"/>
      <path d="M160.5,375.4c-2.4,0-4.7-1.9-4.7-4.7,0-11.3-8.9-20.2-20.2-20.2s-19.7,9.4-19.7,20.2-1.9,4.7-4.7,4.7-4.7-1.9-4.7-4.7v-190.4c0-16,13.2-29.2,29.2-29.2s29.2,13.2,29.2,29.2v190.4c.5,2.8-1.4,4.7-4.2,4.7h-.2ZM136.1,341.6c7.5,0,14.6,2.8,20.2,8v-169.3c0-11.3-8.9-20.2-20.2-20.2s-20.2,8.9-20.2,20.2v168.8c5.2-4.7,12.2-7.5,20.2-7.5h0Z" fill="#183651" stroke-width="0"/>
    </g>
    <path d="M185.5,222.6h59.2v9.4h-59.2v-9.4Z" fill="#183651" stroke-width="0"/>
    <path d="M185.5,251.8h59.2v9.4h-59.2v-9.4h0Z" fill="#183651" stroke-width="0"/>
    <path d="M185.5,280.9h59.2v9.4h-59.2v-9.4Z" fill="#183651" stroke-width="0"/>
    <path d="M185.5,310.1h59.2v9.4h-59.2v-9.4Z" fill="#183651" stroke-width="0"/>
    <g>
      <g>
        <path d="M319.5,150.7l-35.3,116.6c-8.5,27.3-7.5,56.9,2.8,83.7,23.5-16.9,40.4-40.9,48.9-68.2l35.3-116.1-51.7-16h0Z" fill="#2ea0da" stroke-width="0"/>
        <path d="M285.6,355.7c-1.4-.5-2.4-1.4-2.8-2.8-10.3-27.7-11.3-58.8-2.8-87l35.3-116.6c.5-1.4,1.4-2.4,2.4-2.8s2.4-.9,3.8-.5l51.7,15.5c2.4.9,3.8,3.3,3.3,5.6l-35.3,116.6c-8.5,28.2-26.8,53.6-50.8,70.5-1.9,1.4-3.3,1.9-4.7,1.4h-.1v.1ZM322.8,156.8l-33.9,111.9c-7.5,24.5-7.1,50.8.5,74.8,19.7-16,34.8-37.6,42.3-62.1l33.9-111.9-42.8-12.7Z" fill="#183651" stroke-width="0"/>
      </g>
      <path d="M296,321.4c-2.4-16.5-.9-33.4,3.8-48.9l30.6-101.1,20.2,6.1-30.6,101.1c-4.7,15.5-13.2,30.1-24,42.8Z" fill="#fff" stroke-width="0"/>
      <g>
        <path d="M375.4,120.6l-33.9-10.3c-4.7-1.4-10.3,1.4-11.8,6.1l-10.3,34.3,51.7,15.5,10.3-34.3c1.4-4.7-1.4-9.9-6.1-11.3h.1Z" fill="#f06151" stroke-width="0"/>
        <path d="M371.2,171.4h-1.4l-51.7-15.5c-2.4-.9-3.8-3.3-3.3-5.6l10.3-34.3c1.9-6.1,7.1-9.9,13.2-9.9s2.8,0,4.2.5l33.9,10.3c3.8.9,6.6,3.3,8.5,6.6,1.9,3.3,2.4,7.1.9,10.8l-10.3,34.3c-.5,1.4-1.4,2.4-2.4,2.8-.5-.5-1.4,0-1.9,0h0ZM325.6,147.8l42.8,13.2,8.9-30.1c.5-1.4.5-2.4-.5-3.8-.5-.9-1.4-1.9-2.8-2.4l-33.9-10.3c-2.4-.9-5.2.9-5.6,3.3l-8.9,30.1h0Z" fill="#183651" stroke-width="0"/>
      </g>
    </g>
    <g>
      <path d="M185.5,339.2h9.4v9.4h-9.4v-9.4Z" fill="#183651" stroke-width="0"/>
      <path d="M210.4,339.2h9.4v9.4h-9.4v-9.4Z" fill="#183651" stroke-width="0"/>
      <path d="M235.3,339.2h9.4v9.4h-9.4v-9.4Z" fill="#183651" stroke-width="0"/>
    </g>
  </g>
</svg>