<?xml version="1.0" encoding="UTF-8"?>
<svg id="Capa_1" data-name="Capa 1" xmlns="http://www.w3.org/2000/svg" version="1.1" viewBox="0 0 512 512">
  <path d="M270.8,512c-61.9-.7-108.3-3.6-152.9-20.1-60.7-22.6-93.8-68.8-106.9-129.5-15-69.6-14.5-140-.3-209.8C27,72.7,76.9,25.2,156,9.8c67-13.1,134.7-13.3,201.7.5,72,14.9,121.5,56.2,139.6,129.4,19.8,80.4,20.3,161.3-2.3,241.2-21.1,74.8-76.1,111.5-149.2,123.7-29.6,4.9-59.9,6-74.9,7.4h-.1Z" fill="#efefef" stroke-width="0"/>
  <g>
    <path d="M109.5,195.7v192.8c0,7.8,6.3,14.1,14.1,14.1h264.8c7.8,0,14.1-6.3,14.1-14.1v-192.8H109.5Z" fill="#d9dcef" stroke-width="0"/>
    <path d="M203.3,402.5h-79.8c-7.7,0-14.1-6.3-14.1-14.1v-192.7h79.8v192.7c0,7.8,6.3,14.1,14.1,14.1h0Z" fill="#c4cae6" stroke-width="0"/>
    <path d="M402.5,195.6v-47.3c0-7.8-6.3-14.1-14.1-14.1H123.6c-7.8,0-14.1,6.3-14.1,14.1v47.3h293Z" fill="#488fcc" stroke-width="0"/>
    <path d="M203.3,134.3c-7.8,0-14.1,6.3-14.1,14.1v47.3h-79.8v-47.3c0-7.8,6.3-14.1,14.1-14.1h79.8Z" fill="#2f84c6" stroke-width="0"/>
    <path d="M234,120.2v44.8h-21.3v-44.8c0-5.9,4.8-10.6,10.6-10.6h0c5.9,0,10.6,4.8,10.6,10.6h.1Z" fill="#fadb43" stroke-width="0"/>
    <path d="M228.7,111c-3.2,1.8-5.3,5.3-5.3,9.2v44.8h-10.6v-44.8c0-5.9,4.7-10.7,10.6-10.7s3.8.5,5.3,1.5Z" fill="#e8c635" stroke-width="0"/>
    <path d="M299.3,120.2v44.8h-21.3v-44.8c0-5.9,4.8-10.6,10.6-10.6h0c5.9,0,10.6,4.8,10.6,10.6h.1Z" fill="#fadb43" stroke-width="0"/>
    <path d="M294,110.9c-3.2,1.9-5.3,5.3-5.3,9.3v44.8h-10.7v-44.8c0-5.9,4.8-10.7,10.7-10.7s3.8.5,5.3,1.4Z" fill="#e8c635" stroke-width="0"/>
    <path d="M364.7,120.2v44.8h-21.3v-44.8c0-5.9,4.8-10.6,10.6-10.6h0c5.9,0,10.6,4.8,10.6,10.6h.1Z" fill="#fadb43" stroke-width="0"/>
    <path d="M359.4,110.9c-3.2,1.9-5.3,5.3-5.3,9.3v44.8h-10.6v-44.8c0-5.9,4.8-10.7,10.6-10.7s3.8.5,5.3,1.4Z" fill="#e8c635" stroke-width="0"/>
    <path d="M168.6,120.2v44.8h-21.3v-44.8c0-5.9,4.8-10.6,10.6-10.6h0c5.9,0,10.6,4.8,10.6,10.6h.1Z" fill="#fadb43" stroke-width="0"/>
    <path d="M163.3,110.9c-3.2,1.9-5.3,5.3-5.3,9.3v44.8h-10.6v-44.8c0-5.9,4.8-10.7,10.6-10.7s3.8.5,5.3,1.4Z" fill="#e8c635" stroke-width="0"/>
    <g>
      <path d="M316.1,277.9l-72.2,72.2-38.9-38.9,72.2-72.2c3.7-3.7,9.6-3.7,13.3,0l25.7,25.7c3.7,3.7,3.7,9.6,0,13.3h-.1v-.1Z" fill="#2f84c6" stroke-width="0"/>
      <path d="M300.7,293.3l15.4-15.4c3.7-3.7,3.7-9.6,0-13.3l-25.7-25.7c-3.7-3.7-9.6-3.7-13.3,0l-15.4,15.4,38.9,38.9h.1v.1Z" fill="#fadb43" stroke-width="0"/>
      <path d="M244,350.1l-45,11.7c-3.5.9-6.6-2.3-5.7-5.7l11.7-44.9,38.9,38.9h.1Z" fill="#f7b3bb" stroke-width="0"/>
      <path d="M216.1,357.4l-17.1,4.4c-3.5.9-6.6-2.3-5.7-5.7l4.4-17,18.3,18.3h.1Z" fill="#445a66" stroke-width="0"/>
      <g>
        <path d="M406,148.4c0-9.7-7.9-17.6-17.6-17.6h-20.2v-10.6c0-7.8-6.4-14.2-14.2-14.2s-14.2,6.4-14.2,14.2v10.6h-37v-10.6c0-7.8-6.4-14.2-14.2-14.2s-14.2,6.4-14.2,14.2v10.6h-37v-10.6c0-7.8-6.4-14.2-14.2-14.2s-14.2,6.4-14.2,14.2v10.6h-37v-10.6c0-7.8-6.4-14.2-14.2-14.2s-14.2,6.4-14.2,14.2v10.6h-20.2c-9.7,0-17.6,7.9-17.6,17.6v240c0,9.7,7.9,17.6,17.6,17.6h264.8c9.7,0,17.6-7.9,17.6-17.6v-240h.2ZM346.9,120.2c0-3.9,3.2-7.1,7.1-7.1s7.1,3.2,7.1,7.1v41.3h-14.3v-41.3h.1ZM281.6,120.2c0-3.9,3.2-7.1,7.1-7.1s7.1,3.2,7.1,7.1v41.3h-14.3v-41.3h.1ZM216.2,120.2c0-3.9,3.2-7.1,7.1-7.1s7.1,3.2,7.1,7.1v41.3h-14.3v-41.3h.1ZM150.8,120.2c0-3.9,3.2-7.1,7.1-7.1s7.1,3.2,7.1,7.1v41.3h-14.3v-41.3h.1ZM113,148.4c0-5.8,4.7-10.5,10.5-10.5h20.2v23.6h-4.1c-1.9,0-3.5,1.6-3.5,3.5s1.6,3.5,3.5,3.5h36.6c1.9,0,3.5-1.6,3.5-3.5s-1.6-3.5-3.5-3.5h-4.1v-23.6h37v23.6h-4.1c-1.9,0-3.5,1.6-3.5,3.5s1.6,3.5,3.5,3.5h36.6c1.9,0,3.5-1.6,3.5-3.5s-1.6-3.5-3.5-3.5h-4.1v-23.6h37v23.6h-4.1c-1.9,0-3.5,1.6-3.5,3.5s1.6,3.5,3.5,3.5h36.6c1.9,0,3.5-1.6,3.5-3.5s-1.6-3.5-3.5-3.5h-4.1v-23.6h37v23.6h-4.1c-1.9,0-3.5,1.6-3.5,3.5s1.6,3.5,3.5,3.5h36.6c1.9,0,3.5-1.6,3.5-3.5s-1.6-3.5-3.5-3.5h-4.1v-23.6h20.2c5.8,0,10.5,4.7,10.5,10.5v43.7H113v-43.7ZM399,388.4c0,5.8-4.7,10.5-10.5,10.5H123.6c-5.8,0-10.5-4.7-10.5-10.5v-189.3h285.9v189.3Z" fill="#60276d" stroke-width="0"/>
        <path d="M199.9,365.2l45-11.7c.3,0,1.3-.7,1.6-1l72.1-72.1c5-5,5-13.2,0-18.2l-25.7-25.7c-4.9-4.9-13.4-4.9-18.2,0l-72.2,72.2c-.4.4-.7.9-.8,1.5-.1.5-12.2,45-11.8,45-1.6,6.1,4,11.6,10,10h0ZM198.1,358.4c-.9.2-1.7-.6-1.4-1.4l2.9-11.1,9.7,9.7-11.1,2.9h0l-.1-.1ZM206.9,318l30.3,30.2-20,5.2-15.5-15.5,5.2-20h0v.1ZM261.8,259.3l14.5,14.5-51.8,51.8-14.5-14.5,51.8-51.8ZM243.9,345.1l-14.5-14.5,51.8-51.8,14.5,14.5-51.8,51.8h0ZM279.7,241.4c2.2-2.2,6.1-2.2,8.3,0l25.7,25.7c2.3,2.3,2.3,6,0,8.3h0l-12.9,12.9-34-34,12.9-12.9Z" fill="#60276d" stroke-width="0"/>
      </g>
    </g>
  </g>
</svg>