<?xml version="1.0" encoding="UTF-8"?>
<svg id="Capa_1" data-name="Capa 1" xmlns="http://www.w3.org/2000/svg" version="1.1" viewBox="0 0 512 512">
  <path d="M270.8,512c-61.9-.7-108.3-3.6-152.9-20.1-60.7-22.6-93.8-68.8-106.9-129.5-15-69.6-14.5-140-.3-209.8C27,72.7,76.9,25.2,156,9.8c67-13.1,134.7-13.3,201.7.5,72,14.9,121.5,56.2,139.6,129.4,19.8,80.4,20.3,161.3-2.3,241.2-21.1,74.8-76.1,111.5-149.2,123.7-29.6,4.9-59.9,6-74.9,7.4h-.1Z" fill="#efefef" stroke-width="0"/>
  <g>
    <g>
      <path d="M391.8,391.8c-11.8,11.8-30.8,11.8-42.6,0l-101-101,42.6-42.6,101,101c11.8,11.8,11.8,30.8,0,42.6h0Z" fill="#b76c6c" stroke-width="0"/>
      <path d="M398.1,382.5c-1.5,3.4-3.6,6.5-6.3,9.3-11.8,11.8-30.8,11.7-42.6,0l-101-101,15.6-15.6,101,101c9,9,22.3,11.1,33.3,6.3h0Z" fill="#c98585" stroke-width="0"/>
      <path d="M290.8,248.3l101,101c11.7,11.7,11.8,30.8,0,42.6-2.8,2.8-5.9,4.9-9.3,6.3,4.8-11,2.7-24.3-6.3-33.3l-101-101,15.6-15.6h0Z" fill="#965959" stroke-width="0"/>
      <g>
        <circle cx="230.3" cy="230.3" r="118.8" fill="#3193f3" stroke-width="0"/>
        <circle cx="230.3" cy="230.3" r="94" fill="#ffe2e2" stroke-width="0"/>
        <path d="M302,290.9c-1.7,2-3.4,3.9-5.3,5.8-36.7,36.7-96.2,36.7-132.9,0s-36.7-96.2,0-132.9,3.8-3.6,5.8-5.3c-31.3,36.9-29.5,92.3,5.3,127.1s90.2,36.6,127.1,5.3h0Z" fill="#ffefee" stroke-width="0"/>
        <path d="M296.7,163.8c36.7,36.7,36.7,96.2,0,132.9s-3.8,3.6-5.8,5.3c31.3-36.9,29.5-92.3-5.3-127.1s-90.2-36.6-127.1-5.3c1.7-2,3.4-3.9,5.3-5.8,36.7-36.7,96.2-36.7,132.9,0h0Z" fill="#ffcfcf" stroke-width="0"/>
      </g>
    </g>
    <g>
      <path d="M395.6,345.4l-56-56c25.1-46.2,19-106.5-21.5-147s-127.1-48.6-175.7,0c-48.5,48.5-48.6,127.1,0,175.7,40.6,40.6,101,46.4,147,21.5l56,56c13.8,13.8,36.4,13.8,50.2,0,13.8-13.8,13.8-36.4,0-50.2h0ZM150,310.5c-44.3-44.3-44.3-116.1,0-160.5,44.5-44.5,116.3-44.2,160.5,0,44.5,44.5,44.2,116.4,0,160.5-44.1,44.2-115.9,44.5-160.5,0h0ZM388,388c-9.6,9.6-25.3,9.6-34.9,0l-54.1-54.1c13.8-9.2,25.7-21.1,34.9-34.9l54.1,54.1c9.6,9.6,9.6,25.3,0,34.9Z" fill="#5f266d" stroke-width="0"/>
      <path d="M300.5,160c-38.7-38.7-101.8-38.7-140.5,0s-38.7,101.8,0,140.5,101.7,38.8,140.5,0,38.7-101.8,0-140.5ZM292.9,292.9c-34.6,34.6-90.6,34.6-125.3,0-34.5-34.5-34.5-90.7,0-125.3,34.5-34.5,90.7-34.6,125.3,0,34.7,34.7,34.6,90.7,0,125.3Z" fill="#5f266d" stroke-width="0"/>
      <path d="M334.5,326.8c-2.1-2.1-5.5-2.1-7.6,0s-2.1,5.5,0,7.6l5.5,5.4c2.1,2.1,5.5,2.1,7.6,0s2.1-5.5,0-7.6l-5.5-5.4Z" fill="#5f266d" stroke-width="0"/>
      <path d="M354.3,346.5c-2.1-2.1-5.5-2.1-7.6,0s-2.1,5.5,0,7.6l26.8,26.6c2.1,2.1,5.5,2.1,7.6,0s2.1-5.5,0-7.6l-26.8-26.6Z" fill="#5f266d" stroke-width="0"/>
      <path d="M188.5,192.8h77.1c3,0,5.4-2.4,5.4-5.4s-2.4-5.4-5.4-5.4h-77.1c-3,0-5.4,2.4-5.4,5.4s2.4,5.4,5.4,5.4Z" fill="#5f266d" stroke-width="0"/>
      <path d="M160.3,219.7h133.5c3,0,5.4-2.4,5.4-5.4s-2.4-5.4-5.4-5.4h-133.5c-3,0-5.4,2.4-5.4,5.4s2.4,5.4,5.4,5.4h0Z" fill="#5f266d" stroke-width="0"/>
      <path d="M293.9,235.9h-133.5c-3,0-5.4,2.4-5.4,5.4s2.4,5.4,5.4,5.4h133.5c3,0,5.4-2.4,5.4-5.4s-2.4-5.4-5.4-5.4Z" fill="#5f266d" stroke-width="0"/>
      <path d="M265.6,262.9h-77.1c-3,0-5.4,2.4-5.4,5.4s2.4,5.4,5.4,5.4h77.1c3,0,5.4-2.4,5.4-5.4s-2.5-5.4-5.4-5.4Z" fill="#5f266d" stroke-width="0"/>
    </g>
  </g>
</svg>