<?xml version="1.0" encoding="UTF-8"?>
<svg id="Capa_1" data-name="Capa 1" xmlns="http://www.w3.org/2000/svg" version="1.1" viewBox="0 0 512 512">
  <path d="M270.8,512c-61.9-.7-108.3-3.6-152.9-20.1-60.7-22.6-93.8-68.8-106.9-129.5-15-69.6-14.5-140-.3-209.8C27,72.7,76.9,25.2,156,9.8c67-13.1,134.7-13.3,201.7.5,72,14.9,121.5,56.2,139.6,129.4,19.8,80.4,20.3,161.3-2.3,241.2-21.1,74.8-76.1,111.5-149.2,123.7-29.6,4.9-59.9,6-74.9,7.4h-.1Z" fill="#efefef" stroke-width="0"/>
  <g>
    <path d="M380.05,210.07l-261.6-10.24,185.27-27.56,8.28-1.22,60.9-9.07,7.15,48.08Z" fill="#fba616" stroke-width="0"/>
    <path d="M310.78,191.2c-.21.03-.41.04-.62.05-2.08,0-3.84-1.53-4.14-3.59l-2.3-15.38,8.28-1.22,2.3,15.38c.32,2.28-1.24,4.4-3.52,4.76h0Z" fill="#fbdd6b" stroke-width="0"/>
    <path d="M377.21,258.58c-9.02,9.02-9.03,23.65,0,32.68,4.33,4.34,10.21,6.77,16.34,6.77v51.98H118.45v-51.98c12.76,0,23.1-10.33,23.11-23.09,0-12.76-10.33-23.1-23.09-23.11h-.02v-51.98h275.09v51.98c-6.13,0-12,2.42-16.34,6.75h0Z" fill="#fbdd6b" stroke-width="0"/>
    <path d="M377.21,258.58c-9.02,9.02-9.03,23.65,0,32.68,4.33,4.34,10.21,6.77,16.34,6.77v51.98H118.45v-51.98c12.76,0,23.1-10.33,23.11-23.09,0-12.76-10.33-23.1-23.09-23.11h-.02v-51.98h275.09v51.98c-6.13,0-12,2.42-16.34,6.75h0Z" fill="#fbdd6b" stroke-width="0"/>
    <g>
      <path d="M377.21,258.58c-9.02,9.02-9.03,23.65,0,32.68,4.33,4.34,10.21,6.77,16.34,6.77v51.98h-13.49v-51.98c-12.76,0-23.1-10.33-23.11-23.09,0-12.76,10.33-23.1,23.09-23.11h.02v-51.98h13.49v51.98c-6.13,0-12,2.42-16.34,6.75h0Z" fill="#fba616" stroke-width="0"/>
      <path d="M377.21,258.58c-9.02,9.02-9.03,23.65,0,32.68,4.33,4.34,10.21,6.77,16.34,6.77v51.98h-13.49v-51.98c-12.76,0-23.1-10.33-23.11-23.09,0-12.76,10.33-23.1,23.09-23.11h.02v-51.98h13.49v51.98c-6.13,0-12,2.42-16.34,6.75h0Z" fill="#fba616" stroke-width="0"/>
      <path d="M327.43,199.86v15.55c0,2.31-1.87,4.19-4.19,4.19s-4.19-1.87-4.19-4.19h0v-15.55h8.37Z" fill="#fba616" stroke-width="0"/>
      <path d="M323.24,281.38c-2.31,0-4.18,1.86-4.19,4.17,0,0,0,.01,0,.02v27.63c0,2.31,1.87,4.19,4.19,4.19s4.19-1.87,4.19-4.19v-27.63c0-2.31-1.88-4.18-4.19-4.19ZM323.24,232.49c-2.31,0-4.18,1.86-4.19,4.17,0,0,0,.01,0,.02v27.63c0,2.31,1.87,4.19,4.19,4.19s4.19-1.87,4.19-4.19v-27.63c0-2.31-1.88-4.18-4.19-4.19h0Z" fill="#fba616" stroke-width="0"/>
      <path d="M327.43,334.46v15.55h-8.37v-15.55c0-2.31,1.87-4.19,4.19-4.19s4.19,1.87,4.19,4.19Z" fill="#fba616" stroke-width="0"/>
      <path d="M220.13,239.3h-51.97c-2.31,0-4.19-1.87-4.19-4.19s1.87-4.19,4.19-4.19h51.97c2.31,0,4.19,1.87,4.19,4.19s-1.87,4.19-4.19,4.19Z" fill="#fba616" stroke-width="0"/>
      <path d="M272.1,265.85h-103.93c-2.31,0-4.19-1.87-4.19-4.19s1.87-4.19,4.19-4.19h103.93c2.31,0,4.19,1.87,4.19,4.19s-1.87,4.19-4.19,4.19Z" fill="#fba616" stroke-width="0"/>
      <path d="M272.1,292.39h-103.93c-2.31,0-4.19-1.87-4.19-4.19s1.87-4.19,4.19-4.19h103.93c2.31,0,4.19,1.87,4.19,4.19s-1.87,4.19-4.19,4.19Z" fill="#fba616" stroke-width="0"/>
      <path d="M272.1,318.94h-103.93c-2.31,0-4.19-1.87-4.19-4.19s1.87-4.19,4.19-4.19h103.93c2.31,0,4.19,1.87,4.19,4.19s-1.87,4.19-4.19,4.19Z" fill="#fba616" stroke-width="0"/>
    </g>
    <path d="M393.55,256c2.31,0,4.19-1.87,4.19-4.19v-51.95c0-2.31-1.87-4.19-4.19-4.19h-218.72l129.51-19.26,1.67,11.24c.31,2.05,2.06,3.56,4.14,3.57.21,0,.42-.02.62-.05,2.29-.34,3.86-2.47,3.53-4.76l-1.67-11.24,56.76-8.44,1.73,11.65c.34,2.29,2.47,3.87,4.76,3.53,2.29-.34,3.87-2.47,3.53-4.76h0l-2.34-15.79c-.34-2.29-2.47-3.87-4.76-3.53l-254.46,37.84c-1.45.22-2.67,1.18-3.23,2.53l-.02.06c-.09.22-.16.44-.21.67-.02.08-.02.16-.04.24-.03.18-.05.37-.06.55v52.07c0,2.3,1.87,4.17,4.17,4.17,3.58,0,7.09,1.01,10.12,2.93,1.88,1.34,4.5.9,5.84-.98,1.34-1.88.9-4.5-.98-5.84-.12-.09-.25-.17-.38-.24-3.16-2-6.71-3.33-10.41-3.9v-43.91h196.41v11.36c0,2.31,1.87,4.19,4.19,4.19s4.19-1.87,4.19-4.19h0v-11.36h61.94v43.9c-14.9,2.32-25.1,16.27-22.78,31.17,1.83,11.74,11.04,20.96,22.78,22.78v43.9h-61.94v-11.35c0-2.31-1.87-4.19-4.19-4.19s-4.19,1.87-4.19,4.19v11.36h-72.72c-2.31,0-4.19,1.87-4.19,4.19s1.87,4.19,4.19,4.19h147.22c2.31,0,4.19-1.87,4.19-4.19v-51.97c0-2.31-1.87-4.19-4.19-4.19-10.45,0-18.92-8.47-18.92-18.92s8.47-18.92,18.92-18.92h0Z" fill="#232629" stroke-width="0"/>
    <path d="M200.98,345.81h-78.34v-43.91c13.29-2.08,23.09-13.52,23.11-26.97,0-.81-.04-1.61-.11-2.39-.26-2.3-2.33-3.95-4.62-3.7-2.22.25-3.85,2.19-3.71,4.41.05.55.07,1.11.07,1.67-.01,10.44-8.48,18.91-18.92,18.92-2.31,0-4.19,1.87-4.19,4.19v51.97c0,2.31,1.87,4.19,4.19,4.19h129.39c2.31,0,4.19-1.87,4.19-4.19s-1.87-4.19-4.19-4.19h-46.86Z" fill="#232629" stroke-width="0"/>
    <path d="M323.23,268.49c2.31,0,4.19-1.87,4.19-4.19v-27.63c0-2.31-1.87-4.19-4.19-4.19s-4.19,1.87-4.19,4.19v27.63c0,2.31,1.87,4.19,4.19,4.19Z" fill="#232629" stroke-width="0"/>
    <path d="M319.05,313.19c0,2.31,1.87,4.19,4.19,4.19s4.19-1.87,4.19-4.19v-27.63c0-2.31-1.87-4.19-4.19-4.19s-4.19,1.87-4.19,4.19v27.63Z" fill="#232629" stroke-width="0"/>
    <path d="M168.16,239.3h51.97c2.31,0,4.19-1.87,4.19-4.19s-1.87-4.19-4.19-4.19h-51.97c-2.31,0-4.19,1.87-4.19,4.19s1.87,4.19,4.19,4.19Z" fill="#232629" stroke-width="0"/>
    <path d="M168.16,265.85h103.93c2.31,0,4.19-1.87,4.19-4.19s-1.87-4.19-4.19-4.19h-103.93c-2.31,0-4.19,1.87-4.19,4.19s1.87,4.19,4.19,4.19Z" fill="#232629" stroke-width="0"/>
    <path d="M168.16,292.39h103.93c2.31,0,4.19-1.87,4.19-4.19s-1.87-4.19-4.19-4.19h-103.93c-2.31,0-4.19,1.87-4.19,4.19s1.87,4.19,4.19,4.19Z" fill="#232629" stroke-width="0"/>
    <path d="M168.16,318.94h103.93c2.31,0,4.19-1.87,4.19-4.19s-1.87-4.19-4.19-4.19h-103.93c-2.31,0-4.19,1.87-4.19,4.19s1.87,4.19,4.19,4.19Z" fill="#232629" stroke-width="0"/>
  </g>
</svg>