<?xml version="1.0" encoding="UTF-8"?>
<svg id="Capa_1" data-name="Capa 1" xmlns="http://www.w3.org/2000/svg" version="1.1" viewBox="0 0 512 512">
  <path d="M270.8,512c-61.9-.7-108.3-3.6-152.9-20.1-60.7-22.6-93.8-68.8-106.9-129.5-15-69.6-14.5-140-.3-209.8C27,72.7,76.9,25.2,156,9.8c67-13.1,134.7-13.3,201.7.5,72,14.9,121.5,56.2,139.6,129.4,19.8,80.4,20.3,161.3-2.3,241.2-21.1,74.8-76.1,111.5-149.2,123.7-29.6,4.9-59.9,6-74.9,7.4h-.1Z" fill="#efefef" stroke-width="0"/>
  <g>
    <path d="M350.7,111.3c-36.8,0-66.5,29.8-66.5,66.5s2.4,20.4,6.7,29.2c-3.2,12.9-9.5,29.7-21.9,38.8-2.4,1.8-1.4,5.6,1.6,5.9,12.7,1.3,35.9,1.2,55.6-11.9,7.6,3,15.9,4.7,24.5,4.7,36.8,0,66.5-29.8,66.5-66.5s-29.8-66.5-66.5-66.5v-.2h0Z" fill="#44c7b6" stroke-width="0"/>
    <path d="M403,177.9c0,34.4-26,62.6-59.5,66.2,2.3.3,4.7.4,7.1.4,36.8,0,66.5-29.8,66.5-66.5s-29.8-66.5-66.5-66.5-4.8,0-7.1.4c33.4,3.5,59.5,31.8,59.5,66.2v-.2h0Z" fill="#3bb2a0" stroke-width="0"/>
    <path d="M299.6,177.9c0,10.5,2.4,20.4,6.7,29.2-3.2,12.9-9.5,29.6-21.9,38.8-2.4,1.8-1.4,5.6,1.6,5.9.8,0,1.7.2,2.6.2-7,.5-13.3.2-18.1-.2-3-.3-4-4.1-1.6-5.9,12.4-9.2,18.7-25.9,21.9-38.8-4.3-8.8-6.7-18.7-6.7-29.2,0-36.7,29.8-66.5,66.5-66.5s5.2.2,7.7.5c-33.1,3.8-58.8,32-58.8,66.1h0l.1-.1Z" fill="#4bdbc3" stroke-width="0"/>
    <path d="M356.6,139.6l7,14.1c1,2,3,3.5,5.2,3.8l15.6,2.3c5.7.8,7.9,7.8,3.8,11.8l-11.3,11c-1.6,1.6-2.4,3.9-2,6.1l2.7,15.5c1,5.6-5,10-10,7.3l-13.9-7.3c-2-1.1-4.4-1.1-6.4,0l-13.9,7.3c-5.1,2.7-11-1.6-10-7.3l2.7-15.5c.4-2.2-.4-4.5-2-6.1l-11.3-11c-4.1-4-1.8-11,3.8-11.8l15.6-2.3c2.3-.3,4.2-1.7,5.2-3.8l7-14.1c2.5-5.1,9.9-5.1,12.4,0h-.2Z" fill="#f9d335" stroke-width="0"/>
    <g>
      <path d="M278.1,387.4v1.2c0,6.7-5.4,12.1-12.1,12.1H106.9c-6.7,0-12.1-5.4-12.1-12.1v-1.2c0-29.1,13.5-55,34.7-71.8,1.4-1.1,2.9-2.2,4.4-3.3,9.4-6.6,20-11.5,31.6-14.2,6.8-1.6,13.8-2.4,21.1-2.4h0c7.3,0,14.4.9,21.2,2.5,11.4,2.7,22,7.6,31.4,14.1,1.5,1,3,2.1,4.4,3.3,2.7,2.2,5.3,4.5,7.8,7,16.6,16.6,26.8,39.5,26.8,64.8h-.1Z" fill="#ffe2e2" stroke-width="0"/>
      <path d="M200,296.7c-2.5.4-5,.9-7.5,1.4-11.5,2.7-22.2,7.6-31.6,14.2-1.5,1-2.9,2.1-4.4,3.3-21.1,16.8-34.7,42.7-34.7,71.8v1.2c0,6.7,5.4,12.1,12.1,12.1h-27.1c-6.7,0-12.1-5.4-12.1-12.1v-1.2c0-29.1,13.5-55,34.7-71.8,1.4-1.1,2.9-2.2,4.4-3.3,9.4-6.6,20.1-11.5,31.6-14.2,6.8-1.6,13.8-2.4,21.1-2.4h0c4.6,0,9.1.3,13.6,1h-.1Z" fill="#ffefee" stroke-width="0"/>
      <path d="M121.7,212.8v18.1c0,35.6,29.1,64.7,64.7,64.7h0c35.6,0,64.7-29.1,64.7-64.7v-18.1c0-35.6-28.7-64.5-64.3-64.7h0c-35.9-.2-65.2,28.8-65.2,64.7h.1Z" fill="#ffbb98" stroke-width="0"/>
      <path d="M278.1,387.4v1.2c0,6.7-5.4,12.1-12.1,12.1h-27.1c6.7,0,12.1-5.4,12.1-12.1v-1.2c0-25.3-10.3-48.2-26.9-64.8-2.5-2.5-5.1-4.8-7.8-7-1.4-1.1-2.9-2.2-4.4-3.3-9.4-6.5-20-11.4-31.4-14.1-2.5-.6-5.1-1.1-7.7-1.5,4.4-.7,9-1,13.5-1h0c7.3,0,14.4.8,21.2,2.5,11.4,2.7,22,7.6,31.4,14.1,1.5,1,2.9,2.1,4.4,3.3,2.7,2.2,5.4,4.5,7.8,7,16.6,16.6,26.9,39.5,26.9,64.8h.1Z" fill="#ffcfcf" stroke-width="0"/>
      <path d="M207.7,298.2l-9.3,21.4h-23l-10-21.5c6.8-1.6,13.8-2.4,21.1-2.4h0c7.3,0,14.4.9,21.2,2.5Z" fill="#87828e" stroke-width="0"/>
      <polygon points="175.4 319.6 159 400.7 214.2 400.7 198.3 319.6 175.4 319.6" fill="#796e84" stroke-width="0"/>
      <path d="M200,294.2c-4.4,1-8.9,1.4-13.6,1.4-35.6,0-64.8-29.1-64.8-64.7v-18.1c0-35.8,29-64.7,64.8-64.7h.4c4.5,0,8.9.5,13.2,1.4-29.2,6.2-51.2,32.2-51.2,63.3v18.1c0,31,22,57,51.2,63.3h0Z" fill="#ffcaa6" stroke-width="0"/>
      <path d="M251.2,212.8v18.1c0,17.8-7.3,34-19,45.7-11.7,11.7-27.9,19-45.7,19s-9.2-.5-13.6-1.4c12.4-2.7,23.5-8.9,32.2-17.6,11.7-11.7,19-27.9,19-45.7v-18.1c0-31.1-21.9-57.1-51.2-63.3,4.4-.9,8.9-1.4,13.6-1.4h.4c35.6.2,64.3,29.1,64.3,64.7Z" fill="#ffaa80" stroke-width="0"/>
      <path d="M239.4,123.5h-57.2c-18.4,0-33.6,13.3-36.6,30.9-.5-9.4-8.3-16.8-17.8-16.8h0c-9.9,0-17.9,8-17.9,17.9v38.2c0,3.1,2.5,5.7,5.7,5.7h141.6c3.1,0,5.7-2.5,5.7-5.7v-46.7c0-12.9-10.5-23.4-23.4-23.4h-.1v-.1Z" fill="#b76c6c" stroke-width="0"/>
    </g>
    <path d="M353.5,400.7h-95.3c-10.2,0-18.5-8.3-18.5-18.5v-69.7c0-10.2,8.3-18.5,18.5-18.5h95.3c10.2,0,18.5,8.3,18.5,18.5v69.7c0,10.2-8.3,18.5-18.5,18.5Z" fill="#b76c6c" stroke-width="0"/>
    <path d="M372,337.3h-132.4v-24.8c0-10.2,8.3-18.5,18.5-18.5h95.3c10.2,0,18.5,8.3,18.5,18.5v24.8h.1Z" fill="#b76c6c" stroke-width="0"/>
    <path d="M372,312.4v69.7c0,10.2-8.3,18.5-18.5,18.5h-17.1c10.2,0,18.5-8.3,18.5-18.5v-69.7c0-10.2-8.3-18.5-18.5-18.5h17.1c10.2,0,18.5,8.3,18.5,18.5h0Z" fill="#965959" stroke-width="0"/>
    <path d="M372,312.4v24.8h-17.1v-24.8c0-10.2-8.3-18.5-18.5-18.5h17.1c10.2,0,18.5,8.3,18.5,18.5Z" fill="#965959" stroke-width="0"/>
    <path d="M275.3,400.7h-17.1c-10.2,0-18.5-8.3-18.5-18.5v-69.7c0-10.2,8.3-18.5,18.5-18.5h17.1c-10.2,0-18.5,8.3-18.5,18.5v69.7c0,10.2,8.3,18.5,18.5,18.5Z" fill="#c98585" stroke-width="0"/>
    <path d="M275.3,293.9c-10.2,0-18.5,8.3-18.5,18.5v24.8h-17.1v-24.8c0-10.2,8.3-18.5,18.5-18.5h17.1Z" fill="#c98585" stroke-width="0"/>
    <g>
      <path d="M350.7,106c-39.6,0-71.9,32.2-71.9,71.9s2.2,20.4,6.4,29.7c-3,11.5-8.8,26.1-19.4,34-2.9,2.1-4.1,5.7-3.2,9.2.9,3.4,3.8,5.9,7.4,6.2,3,.3,6.7.5,10.9.5,12.9,0,30.2-2.3,45.9-11.9,7.7,2.7,15.7,4.1,23.9,4.1,39.6,0,71.9-32.2,71.9-71.9s-32.2-71.9-71.9-71.9h0v.1ZM350.7,239.1c-7.8,0-15.4-1.4-22.5-4.3-1.6-.6-3.4-.4-4.9.5-16.1,10.7-34.9,12-47.2,11.4,11.1-10.5,16.9-26.4,19.9-38.5.3-1.2.2-2.5-.4-3.6-4.1-8.4-6.2-17.4-6.2-26.8,0-33.8,27.5-61.2,61.2-61.2s61.2,27.5,61.2,61.2-27.5,61.2-61.2,61.2h.1v.1Z" fill="#5f266d" stroke-width="0"/>
      <path d="M395,162.8c-1.4-4.5-5.2-7.6-9.9-8.3l-15.6-2.3c-.5,0-1-.4-1.2-.9l-7-14.1c-2.1-4.2-6.3-6.8-11-6.8s-8.9,2.6-11,6.8l-7,14.1c-.2.5-.7.8-1.2.9l-15.6,2.3c-4.6.7-8.4,3.9-9.9,8.3-1.4,4.5-.3,9.3,3.1,12.5l11.3,11c.4.4.6.9.5,1.4l-2.7,15.5c-.8,4.6,1.1,9.2,4.9,12s8.7,3.1,12.9.9l13.9-7.3c.5-.2,1-.2,1.5,0l13.9,7.3c1.8.9,3.8,1.4,5.7,1.4s5-.8,7.2-2.3c3.8-2.8,5.7-7.3,4.9-12l-2.7-15.5c0-.5,0-1.1.5-1.4l11.3-11c3.4-3.3,4.5-8.1,3.1-12.5h.1ZM384.4,167.7l-11.3,11c-2.9,2.8-4.2,6.9-3.5,10.8l2.7,15.5c.1.8-.3,1.3-.6,1.6-.4.3-1,.5-1.7.1l-13.9-7.3c-1.8-.9-3.7-1.4-5.7-1.4s-3.9.5-5.7,1.4l-13.9,7.3c-.7.4-1.3.1-1.7-.1-.4-.3-.8-.8-.6-1.6l2.7-15.5c.7-4-.6-8-3.5-10.8l-11.3-11c-.6-.6-.5-1.2-.4-1.6.1-.4.5-1,1.3-1.1l15.6-2.3c4-.6,7.4-3.1,9.2-6.7l7-14.1c.4-.7,1-.9,1.4-.9s1.1.2,1.4.9h0l7,14.1c1.8,3.6,5.2,6.1,9.2,6.7l15.6,2.3c.8.1,1.2.7,1.3,1.1.1.4.2,1.1-.4,1.6h-.2Z" fill="#5f266d" stroke-width="0"/>
      <path d="M353.5,288.6h-17.6v-9.5c0-7-5.7-12.7-12.7-12.7h-34.6c-7,0-12.7,5.7-12.7,12.7v9.5h-17.6c-10.2,0-18.9,6.4-22.3,15.4-6.5-3.9-13.5-7-20.7-9.2,7.6-3.4,14.6-8.3,20.7-14.4,13.3-13.3,20.6-30.8,20.6-49.5v-18.1c0-2.7-.2-5.5-.5-8.2h1.2c6.1,0,11-4.9,11-11v-46.7c0-15.9-12.9-28.8-28.8-28.8h-57.2c-15.8,0-29.8,8.6-37.1,21.8-4.3-4.8-10.4-7.8-17.3-7.8-12.8,0-23.2,10.4-23.2,23.2v38.2c0,6.1,4.9,11,11,11h1.2c-.3,2.7-.5,5.4-.5,8.2v18.1c0,28.4,17,52.8,41.3,63.8-9.6,3-18.6,7.4-26.9,13.2-1.5,1.1-3.1,2.2-4.6,3.5-23.3,18.5-36.7,46.2-36.7,76v1.2c0,9.6,7.8,17.4,17.4,17.4h246.6c13.2,0,23.9-10.7,23.9-23.9v-69.7h0c0-13.2-10.7-23.9-23.9-23.9v.2h0ZM123.1,194h-7.5c-.2,0-.4-.2-.4-.4v-38.2c0-6.9,5.6-12.6,12.6-12.6s12.1,5.2,12.5,11.8c.2,2.7,2.3,4.8,5,5,2.7.1,5.1-1.7,5.5-4.4,2.6-15.3,15.8-26.4,31.3-26.4h57.2c10,0,18.1,8.1,18.1,18.1v46.7c0,.2-.2.4-.4.4H123.1ZM127,230.9v-18.1c0-2.7.2-5.5.6-8.2h117.7c.4,2.7.6,5.4.6,8.2v18.1c0,15.8-6.2,30.7-17.5,42-11.2,11.3-26.1,17.5-42,17.5-32.8,0-59.4-26.7-59.4-59.4h0v-.1ZM200.2,302.2l-5.3,12.2h-16.1l-5.7-12.2c4.4-.7,8.9-1.1,13.4-1.1s9.2.4,13.7,1.1h0ZM106.9,395.4c-3.7,0-6.8-3-6.8-6.8v-1.2c0-26.5,11.9-51.2,32.7-67.6,1.4-1.1,2.7-2.1,4.1-3.1,7.8-5.5,16.4-9.6,25.6-12.3l7.4,15.9-15.1,75.1h-47.9ZM165.5,395.4l14.2-70.4h14.3l13.7,70.4h-42.2ZM218.5,395.4l-14.7-75.1,6.9-15.7c8.4,2.5,16.3,6.2,23.6,11.1v66.6c0,4.9,1.5,9.4,4,13.2h-19.8v-.1ZM286.4,279.1c0-1.2.9-2.1,2.1-2.1h34.6c1.2,0,2.1.9,2.1,2.1v9.5h-38.9v-9.5h.1ZM366.7,382.2c0,7.3-5.9,13.2-13.2,13.2h-95.3c-7.3,0-13.2-5.9-13.2-13.2v-39.6h20.4v8.9c0,2.9,2.4,5.3,5.3,5.3s5.3-2.4,5.3-5.3v-8.9h59.7v8.9c0,2.9,2.4,5.3,5.3,5.3s5.3-2.4,5.3-5.3v-8.9h20.4v39.6h0ZM366.7,332h-20.4v-7.3c0-2.9-2.4-5.3-5.3-5.3s-5.3,2.4-5.3,5.3v7.3h-59.7v-7.3c0-2.9-2.4-5.3-5.3-5.3s-5.3,2.4-5.3,5.3v7.3h-20.4v-19.5c0-7.3,5.9-13.2,13.2-13.2h95.3c7.3,0,13.2,5.9,13.2,13.2v19.5h0Z" fill="#5f266d" stroke-width="0"/>
      <path d="M231.9,165.1h-37.2c-2.9,0-5.3,2.4-5.3,5.3s2.4,5.3,5.3,5.3h37.2c2.9,0,5.3-2.4,5.3-5.3s-2.4-5.3-5.3-5.3Z" fill="#5f266d" stroke-width="0"/>
      <path d="M174.8,165.1h-10.6c-2.9,0-5.3,2.4-5.3,5.3s2.4,5.3,5.3,5.3h10.6c2.9,0,5.3-2.4,5.3-5.3s-2.4-5.3-5.3-5.3Z" fill="#5f266d" stroke-width="0"/>
    </g>
  </g>
</svg>