<?xml version="1.0" encoding="UTF-8"?>
<svg id="Capa_1" data-name="Capa 1" xmlns="http://www.w3.org/2000/svg" version="1.1" viewBox="0 0 512 512">
  <path d="M270.8,512c-61.9-.7-108.3-3.6-152.9-20.1-60.7-22.6-93.8-68.8-106.9-129.5-15-69.6-14.5-140-.3-209.8C27,72.7,76.9,25.2,156,9.8c67-13.1,134.7-13.3,201.7.5,72,14.9,121.5,56.2,139.6,129.4,19.8,80.4,20.3,161.3-2.3,241.2-21.1,74.8-76.1,111.5-149.2,123.7-29.6,4.9-59.9,6-74.9,7.4h-.1Z" fill="#efefef" stroke-width="0"/>
  <g id="Cyber_Monday_1" data-name="Cyber Monday 1">
    <g id="_27_Gift" data-name=" 27 Gift">
      <path d="M340.14,264.88v62h-159.43v-119.57h159.43v57.57Z" fill="#f4b400" stroke-width="0"/>
      <path d="M194,202.88h-13.29v119.57h159.43v-13.29h-39.86c-58.7,0-106.28-47.58-106.28-106.28Z" fill="#f29500" stroke-width="0"/>
      <path d="M180.72,207.31h159.43v13.29h-159.43v-13.29Z" fill="#f29500" stroke-width="0"/>
      <path d="M340.14,331.3h-159.43c-2.45,0-4.43-1.98-4.43-4.43v-119.57h8.86v115.14h150.57v-115.14h8.86v119.57c0,2.45-1.98,4.43-4.43,4.43Z" fill="#383838" stroke-width="0"/>
      <path d="M247.14,207.31h26.57v115.14h-26.57v-115.14Z" fill="#db4437" stroke-width="0"/>
      <path d="M247.14,322.45h26.57v-16.63c-9.31-2.41-18.25-6.08-26.57-10.91v27.54Z" fill="#c62e26" stroke-width="0"/>
      <path d="M247.14,211.74h26.57v8.86h-26.57v-8.86Z" fill="#c62e26" stroke-width="0"/>
      <path d="M278.14,278.16h-8.86v-66.43h-17.71v66.43h-8.86v-70.86c0-2.45,1.98-4.43,4.43-4.43h26.57c2.45,0,4.43,1.98,4.43,4.43v70.86Z" fill="#383838" stroke-width="0"/>
      <path d="M256,127.59c12.23,0,22.14,9.91,22.14,22.14v22.14h-44.28v-22.14c0-12.23,9.91-22.14,22.14-22.14Z" fill="#db4437" stroke-width="0"/>
      <path d="M256,127.59c12.23,0,22.14,9.91,22.14,22.14v22.14h-44.28v-22.14c0-12.23,9.91-22.14,22.14-22.14Z" fill="#f4b400" stroke-width="0"/>
      <path d="M256,127.59c12.23,0,22.14,9.91,22.14,22.14v22.14h-44.28v-22.14c0-12.23,9.91-22.14,22.14-22.14Z" fill="#db4437" stroke-width="0"/>
      <path d="M278.14,176.31h-44.28c-2.45,0-4.43-1.98-4.43-4.43v-22.14c0-14.67,11.9-26.57,26.57-26.57s26.57,11.9,26.57,26.57v22.14c0,2.45-1.98,4.43-4.43,4.43ZM238.29,167.45h35.43v-17.71c0-9.78-7.93-17.71-17.71-17.71s-17.71,7.93-17.71,17.71v17.71Z" fill="#383838" stroke-width="0"/>
      <ellipse cx="300.26" cy="149.75" rx="37.17" ry="23.23" transform="translate(-17.95 256.18) rotate(-45)" fill="#db4437" stroke-width="0"/>
      <path d="M279.52,179.52c9.99,3.76,25.18-1.33,37.2-13.33,6.53-6.3,11.23-14.25,13.61-23-9.99-3.76-25.18,1.33-37.2,13.33-6.53,6.3-11.23,14.25-13.61,23Z" fill="#a51e1b" stroke-width="0"/>
      <path d="M286.72,185.2c-5.88.2-11.6-1.98-15.85-6.05-10.97-10.97-6.64-32.48,9.85-48.98,16.5-16.49,38.01-20.81,48.97-9.86,5.72,6.37,7.66,15.28,5.1,23.44-2.54,9.72-7.72,18.56-14.96,25.53-8.59,9.36-20.45,15.06-33.13,15.91ZM287,136.45c-12.55,12.55-17.06,29.23-9.86,36.46s23.91,2.68,36.45-9.86c6.07-5.79,10.43-13.15,12.59-21.26,1.78-5.19.75-10.94-2.73-15.19-7.22-7.23-23.91-2.71-36.45,9.85h0Z" fill="#383838" stroke-width="0"/>
      <path d="M286.72,185.16c-2.99.03-5.96-.48-8.76-1.51-2.09-.78-3.27-3-2.75-5.17,2.57-9.55,7.68-18.22,14.78-25.1,13.14-13.09,29.98-18.86,41.92-14.35,2.09.79,3.26,3,2.75,5.17-2.57,9.55-7.68,18.22-14.78,25.1-8.62,9.33-20.49,15-33.16,15.87h0ZM285.16,176.25c8.39.7,19.61-4.41,28.45-13.21,4.8-4.71,8.58-10.36,11.09-16.59-8.34-.64-19.61,4.4-28.45,13.21-4.8,4.72-8.58,10.37-11.1,16.61h0Z" fill="#383838" stroke-width="0"/>
      <path d="M286.72,185.16c-2.99.03-5.96-.48-8.76-1.51-2.09-.78-3.27-3-2.75-5.17,2.57-9.55,7.68-18.22,14.78-25.1,13.14-13.09,29.98-18.86,41.92-14.35,2.09.79,3.26,3,2.75,5.17-2.57,9.55-7.68,18.22-14.78,25.1-8.62,9.33-20.49,15-33.16,15.87h0ZM285.16,176.25c8.39.7,19.61-4.41,28.45-13.21,4.8-4.71,8.58-10.36,11.09-16.59-8.34-.64-19.61,4.4-28.45,13.21-4.8,4.72-8.58,10.37-11.1,16.61h0Z" fill="#383838" stroke-width="0"/>
      <ellipse cx="216.13" cy="149.75" rx="23.23" ry="37.17" transform="translate(-42.58 196.69) rotate(-45)" fill="#db4437" stroke-width="0"/>
      <path d="M229.71,185.2c-12.68-.85-24.54-6.55-33.13-15.91-7.24-6.97-12.41-15.81-14.96-25.53-2.56-8.17-.62-17.08,5.1-23.44,10.96-10.96,32.48-6.64,48.97,9.86,16.49,16.5,20.81,38.01,9.85,48.98-4.25,4.07-9.97,6.25-15.85,6.05ZM202.52,123.17c-3.51-.18-6.94,1.06-9.53,3.44-3.48,4.25-4.51,9.99-2.73,15.19,2.17,8.1,6.53,15.44,12.6,21.23,12.55,12.55,29.23,17.07,36.45,9.86s2.68-23.9-9.88-36.43c-7-7.63-16.6-12.37-26.91-13.29h0Z" fill="#383838" stroke-width="0"/>
      <path d="M229.71,185.16c-12.66-.86-24.52-6.53-33.14-15.85-7.11-6.88-12.22-15.56-14.8-25.11-.52-2.17.66-4.38,2.75-5.17,11.93-4.5,28.79,1.27,41.9,14.34,7.11,6.88,12.22,15.56,14.8,25.12.52,2.17-.66,4.38-2.75,5.17-2.81,1.03-5.78,1.54-8.76,1.51h0ZM191.72,146.45c2.53,6.24,6.32,11.9,11.13,16.61,8.83,8.79,20.04,13.89,28.44,13.19-2.53-6.24-6.31-11.9-11.12-16.62-8.85-8.79-20.11-13.86-28.45-13.19Z" fill="#383838" stroke-width="0"/>
      <path d="M236.91,179.52c-9.99,3.76-25.18-1.33-37.2-13.33-6.53-6.3-11.23-14.25-13.61-23,9.99-3.76,25.18,1.33,37.2,13.33,6.53,6.3,11.23,14.25,13.61,23Z" fill="#a51e1b" stroke-width="0"/>
      <path d="M229.71,185.16c-12.66-.86-24.52-6.53-33.14-15.85-7.11-6.88-12.22-15.56-14.8-25.11-.52-2.17.66-4.38,2.75-5.17,11.93-4.5,28.79,1.27,41.9,14.34,7.11,6.88,12.22,15.56,14.8,25.12.52,2.17-.66,4.38-2.75,5.17-2.81,1.03-5.78,1.54-8.76,1.51h0ZM191.72,146.45c2.53,6.24,6.32,11.9,11.13,16.61,8.83,8.79,20.04,13.89,28.44,13.19-2.53-6.24-6.31-11.9-11.12-16.62-8.85-8.79-20.11-13.86-28.45-13.19Z" fill="#383838" stroke-width="0"/>
      <path d="M295.86,207.31h-132.85v-35.43h194.85v35.43h-35.35" fill="#f4b400" stroke-width="0"/>
      <path d="M357.86,211.74h-35.35v-8.86h30.92v-26.57h-186v26.57h159.61v8.86h-164.03c-2.45,0-4.43-1.98-4.43-4.43v-35.43c0-2.45,1.98-4.43,4.43-4.43h194.85c2.45,0,4.43,1.98,4.43,4.43v35.43c0,2.45-1.98,4.43-4.43,4.43Z" fill="#383838" stroke-width="0"/>
      <path d="M238.29,171.88h44.28v35.43h-44.28v-35.43Z" fill="#db4437" stroke-width="0"/>
      <path d="M282.57,211.74h-44.28c-2.45,0-4.43-1.98-4.43-4.43v-35.43c0-2.45,1.98-4.43,4.43-4.43h44.28c2.45,0,4.43,1.98,4.43,4.43v35.43c0,2.45-1.98,4.43-4.43,4.43ZM242.71,202.88h35.43v-26.57h-35.43v26.57Z" fill="#383838" stroke-width="0"/>
      <path d="M154.14,324.44v60.01l53.29-.12,117.45-38.09c.76-.25,1.44-.71,1.96-1.33l47.8-56.26c1.21-1.42,1.04-3.55-.39-4.76-.02-.02-.04-.03-.06-.05-10.4-8.39-25.53-7.25-34.54,2.61l-32.86,35.92-.16.07h-59.78c9.75,0,17.66-7.91,17.66-17.66v-.05c0-9.78-7.93-17.71-17.71-17.71h-61.65l-22.14,22.14-8.86.05v15.22Z" fill="#f0d0b4" stroke-width="0"/>
      <path d="M367.04,279.89l-40.18,47.33c-.52.62-1.2,1.08-1.96,1.33l-117.45,38.09-53.3.11v17.71l53.29-.12,117.45-38.09c.76-.25,1.44-.71,1.96-1.33l47.8-56.26c1.21-1.42,1.04-3.55-.39-4.76-.02-.02-.04-.03-.06-.05-2.15-1.7-4.57-3.04-7.16-3.96h0Z" fill="#dfb28b" stroke-width="0"/>
      <path d="M154.14,388.88c-2.45,0-4.43-1.98-4.43-4.43v-75.23c0-2.44,1.97-4.41,4.4-4.43l7.04-.05,20.86-20.85c.83-.83,1.96-1.29,3.13-1.29h61.64c12.23,0,22.14,9.91,22.14,22.14,0,4.79-1.55,9.45-4.43,13.29h40.3l31.61-34.54c10.6-11.56,28.36-12.9,40.58-3.06,3.35,2.72,3.87,7.63,1.16,10.99-.04.04-.07.09-.11.13l-47.82,56.26c-1.05,1.24-2.43,2.16-3.99,2.66l-117.44,38.09c-.44.14-.9.22-1.36.22l-53.29.12ZM158.57,313.62v66.4l48.16-.1,116.78-37.88,47.04-55.4c-8.59-6.2-20.46-4.99-27.62,2.81l-32.86,35.92c-.42.46-.93.83-1.5,1.07-.61.27-1.27.42-1.93.44h-86.06v-8.86h26.26c7.34-.01,13.28-5.97,13.27-13.31-.01-7.34-5.97-13.28-13.31-13.27h-59.81l-20.84,20.84c-.82.82-1.94,1.29-3.1,1.3l-4.46.03Z" fill="#383838" stroke-width="0"/>
      <path d="M118.72,331.3v-31h35.43v93h-35.43v-62Z" fill="#4285f4" stroke-width="0"/>
      <path d="M132,331.3v-31h-13.29v93h13.29v-62Z" fill="#2b69b2" stroke-width="0"/>
      <g>
        <path d="M154.14,397.73h-35.43c-2.45,0-4.43-1.98-4.43-4.43v-17.71h8.86v13.29h26.57v-84.14h-26.57v72.29h-8.86v-76.72c0-2.45,1.98-4.43,4.43-4.43h35.43c2.45,0,4.43,1.98,4.43,4.43v93c0,2.45-1.98,4.43-4.43,4.43Z" fill="#383838" stroke-width="0"/>
        <path d="M371.14,185.16h26.57v8.86h-26.57v-8.86Z" fill="#383838" stroke-width="0"/>
        <path d="M367.98,173.2l15.5-15.5,6.26,6.26-15.5,15.5-6.26-6.26Z" fill="#383838" stroke-width="0"/>
        <path d="M367.97,206.03l6.26-6.26,15.5,15.5-6.26,6.26-15.5-15.5Z" fill="#383838" stroke-width="0"/>
        <path d="M123.15,185.16h26.57v8.86h-26.57v-8.86Z" fill="#383838" stroke-width="0"/>
        <path d="M131.07,215.24l15.5-15.5,6.26,6.26-15.5,15.5-6.26-6.26Z" fill="#383838" stroke-width="0"/>
        <path d="M131.08,163.94l6.26-6.26,15.5,15.5-6.26,6.26-15.5-15.5Z" fill="#383838" stroke-width="0"/>
      </g>
    </g>
  </g>
</svg>