<?xml version="1.0" encoding="UTF-8"?>
<svg id="Capa_1" data-name="Capa 1" xmlns="http://www.w3.org/2000/svg" version="1.1" viewBox="0 0 512 512">
  <path d="M270.8,512c-61.9-.7-108.3-3.6-152.9-20.1-60.7-22.6-93.8-68.8-106.9-129.5-15-69.6-14.5-140-.3-209.8C27,72.7,76.9,25.2,156,9.8c67-13.1,134.7-13.3,201.7.5,72,14.9,121.5,56.2,139.6,129.4,19.8,80.4,20.3,161.3-2.3,241.2-21.1,74.8-76.1,111.5-149.2,123.7-29.6,4.9-59.9,6-74.9,7.4h-.1Z" fill="#efefef" stroke-width="0"/>
  <g id="_03-top_up" data-name=" 03-top up">
    <path d="M214.66,120.17h82.68v5.91c-.02,6.51-5.3,11.79-11.81,11.81h-59.06c-6.51-.02-11.79-5.3-11.81-11.81v-5.91Z" fill="#e9edf5" stroke-width="0"/>
    <path d="M344.58,143.8v224.41c0,13.05-10.58,23.62-23.62,23.62h-129.92c-13.05,0-23.62-10.58-23.62-23.62v-224.41c0-13.05,10.58-23.62,23.62-23.62h23.62v5.91c.02,6.51,5.3,11.79,11.81,11.81h59.06c6.51-.02,11.79-5.3,11.81-11.81v-5.91h23.62c13.05,0,23.62,10.58,23.62,23.62Z" fill="#9576f0" stroke-width="0"/>
    <path d="M344.58,315.33v-171.53c0-13.05-10.58-23.62-23.62-23.62h-23.62v5.91c-.02,6.51-5.3,11.79-11.81,11.81h-59.06c-6.51-.02-11.79-5.3-11.81-11.81v-5.91h-23.62c-.04,92.71,63.43,173.38,153.54,195.15h0Z" fill="#b785f8" stroke-width="0"/>
    <rect x="196.94" y="202.85" width="118.11" height="141.73" rx="12.45" ry="12.45" fill="#eaf4f9" stroke-width="0"/>
    <circle cx="291.43" cy="202.85" r="35.43" fill="#68edaf" stroke-width="0"/>
    <path d="M291.43,238.28c15.11-.01,28.55-9.61,33.47-23.89-19.37,11.99-44.8,6.01-56.79-13.36-3.38-5.46-5.44-11.63-6.01-18.03-10.97,16.21-6.71,38.24,9.49,49.2,5.86,3.96,12.77,6.08,19.84,6.09Z" fill="#3ade93" stroke-width="0"/>
    <path d="M191.04,215.3v116.83c.01,10.13,8.22,18.34,18.35,18.35h93.21c10.13-.01,18.34-8.22,18.35-18.35v-82.04h-11.81v82.04c0,3.61-2.93,6.54-6.54,6.54h-93.21c-3.61,0-6.54-2.93-6.54-6.54v-116.83c0-3.61,2.93-6.54,6.54-6.54h34.8v-11.81h-34.8c-10.13.01-18.34,8.22-18.35,18.35h0Z" fill="#000" stroke-width="0"/>
    <path d="M220.57,303.24h47.24v11.81h-47.24v-11.81Z" fill="#000" stroke-width="0"/>
    <path d="M279.62,303.24h11.81v11.81h-11.81v-11.81Z" fill="#000" stroke-width="0"/>
    <path d="M220.57,267.81h47.24v11.81h-47.24v-11.81Z" fill="#000" stroke-width="0"/>
    <path d="M279.62,267.81h11.81v11.81h-11.81v-11.81Z" fill="#000" stroke-width="0"/>
    <path d="M220.57,232.38h23.62v11.81h-23.62v-11.81Z" fill="#000" stroke-width="0"/>
    <path d="M338.68,368.2c0,9.78-7.93,17.72-17.72,17.72h-129.92c-9.78,0-17.72-7.93-17.72-17.72v-188.98h-11.81v188.98c.02,16.3,13.23,29.51,29.53,29.53h129.92c16.3-.02,29.51-13.23,29.53-29.53v-23.62h-11.81v23.62Z" fill="#000" stroke-width="0"/>
    <path d="M320.96,114.27h-129.92c-16.3.02-29.51,13.23-29.53,29.53v39.2h11.81v-39.2c0-9.78,7.93-17.72,17.72-17.72h17.72c0,9.78,7.93,17.72,17.72,17.72h59.06c9.78,0,17.72-7.93,17.72-17.72h17.72c9.78,0,17.72,7.93,17.72,17.72v202.69h11.81v-202.69c-.02-16.3-13.23-29.51-29.53-29.53ZM285.53,131.98h-59.06c-3.26,0-5.91-2.64-5.91-5.91h70.87c0,3.26-2.64,5.91-5.91,5.91Z" fill="#000" stroke-width="0"/>
    <path d="M332.77,202.85c0-22.83-18.51-41.34-41.34-41.34s-41.34,18.51-41.34,41.34,18.51,41.34,41.34,41.34c22.82-.03,41.31-18.52,41.34-41.34ZM261.91,202.85c0-16.31,13.22-29.53,29.53-29.53s29.53,13.22,29.53,29.53-13.22,29.53-29.53,29.53c-16.3-.02-29.51-13.23-29.53-29.53Z" fill="#000" stroke-width="0"/>
    <path d="M297.34,226.47v-30.31l8.53,5.69,6.56-9.83-17.72-11.81c-1.98-1.32-4.57-1.32-6.56,0l-17.72,11.81,6.56,9.83,8.53-5.69v30.31h11.81Z" fill="#000" stroke-width="0"/>
  </g>
</svg>