<?xml version="1.0" encoding="UTF-8"?>
<svg id="Capa_1" data-name="Capa 1" xmlns="http://www.w3.org/2000/svg" version="1.1" viewBox="0 0 512 512">
  <path d="M270.8,512c-61.9-.7-108.3-3.6-152.9-20.1-60.7-22.6-93.8-68.8-106.9-129.5-15-69.6-14.5-140-.3-209.8C27,72.7,76.9,25.2,156,9.8c67-13.1,134.7-13.3,201.7.5,72,14.9,121.5,56.2,139.6,129.4,19.8,80.4,20.3,161.3-2.3,241.2-21.1,74.8-76.1,111.5-149.2,123.7-29.6,4.9-59.9,6-74.9,7.4h-.1Z" fill="#efefef" stroke-width="0"/>
  <g>
    <g>
      <g>
        <path d="M363.7,376.1h-215.4v-239.4c0-14.3,11.6-25.8,25.8-25.8h189.5v265.3h0l.1-.1Z" fill="#ff4a73" stroke-width="0"/>
        <path d="M192.3,110.8c-14.3,0-25.8,11.6-25.8,25.8v239.4h-18.2v-239.4c0-14.3,11.6-25.8,25.8-25.8h18.2Z" fill="#f973a3" stroke-width="0"/>
        <path d="M345.5,110.8h18.2v265.3h-18.2V110.8Z" fill="#ea2a6a" stroke-width="0"/>
        <path d="M363.7,401.2h-190.3c-13.8,0-25-11.2-25-25s11.2-25,25-25h190.3v50.1h0v-.1Z" fill="#ffe2e2" stroke-width="0"/>
        <path d="M191.5,401.2h-18.2c-13.8,0-25-11.2-25-25s2.8-13.2,7.3-17.7,10.8-7.3,17.7-7.3h18.2c-6.9,0-13.2,2.8-17.7,7.3s-7.3,10.8-7.3,17.7c0,13.8,11.2,25,25,25Z" fill="#ffefee" stroke-width="0"/>
        <path d="M345.5,351.1h18.2v50.1h-18.2v-50.1Z" fill="#ffcfcf" stroke-width="0"/>
      </g>
      <g>
        <path d="M272.9,302.6v14.9c0,4-3.2,7.2-7.2,7.2h-17c-4,0-7.2-3.2-7.2-7.2v-14.9h31.5-.1Z" fill="#87828e" stroke-width="0"/>
        <path d="M302.4,222.1c0-26.1-22-47-48.5-45.1-21.9,1.5-39.8,19-41.8,40.8-1.1,11.5,2.2,22.3,8.4,30.8,10.3,14.2,16.3,19.3,16.3,36.9v2h40.8v-1.6c0-17.3,5.2-22.6,15.6-36.4,5.8-7.6,9.2-17.1,9.2-27.4h0Z" fill="#f9d335" stroke-width="0"/>
        <path d="M277.5,287.4v16c0,3.9-3.1,7-7,7h-26.8c-3.9,0-7-3.1-7-7v-16h40.8Z" fill="#87828e" stroke-width="0"/>
        <path d="M233.9,248.6c10.3,14.2,16.3,19.3,16.3,36.9v2h-13.4v-2c0-17.5-6-22.7-16.3-36.9-6.2-8.5-9.4-19.3-8.4-30.8,2-21.9,19.9-39.3,41.8-40.8,3.4-.2,6.7,0,9.9.4-20.3,3-36.4,19.8-38.3,40.4-1.1,11.5,2.2,22.3,8.4,30.8h0Z" fill="#f9e27d" stroke-width="0"/>
        <path d="M236.7,287.4h13.4v23h-6.5c-3.9,0-7-3.1-7-7v-16h.1Z" fill="#a4a4a5" stroke-width="0"/>
      </g>
    </g>
    <g>
      <path d="M368.5,110.8c0-2.7-2.2-4.8-4.8-4.8h-189.5c-16.9,0-30.7,13.8-30.7,30.7v239.5c0,16.5,13.4,29.9,29.9,29.9h190.3c2.7,0,4.8-2.2,4.8-4.8V110.8ZM174.2,115.7h184.7v230.6h-185.5c-8,0-15.8,3.5-20.2,7.9v-217.4c0-11.6,9.4-21,21-21h0v-.1ZM358.8,396.3h-185.5c-11.1,0-20.2-9-20.2-20.2s9.1-20.2,20.2-20.2h185.5v40.4h0Z" fill="#5f266d" stroke-width="0"/>
      <path d="M220.7,257c7.5,10,11.2,15,11.2,28.4v18c0,3.8,1.8,7.2,4.6,9.4v4.6c0,6.7,5.4,12.1,12.1,12.1h17c6.7,0,12.1-5.4,12.1-12.1v-4.6c2.8-2.2,4.6-5.6,4.6-9.4v-17.6c0-14.4,3.6-19.1,12.4-30.6,6.9-9,12.4-18.4,12.4-33.2,0-28.4-23.9-52-53.7-50-24.2,1.7-44.1,21.1-46.3,45.2-1.9,20.9,8.8,33.5,13.4,39.7h.2v.1ZM272.7,303.4c0,1.2-1,2.1-2.1,2.1h-26.8c-1.2,0-2.1-1-2.1-2.1v-11.2h31.1v11.2h-.1ZM265.6,319.8h-17c-1.3,0-2.4-1.1-2.4-2.4v-2.2h21.8v2.2c0,1.3-1.1,2.4-2.4,2.4h0ZM216.9,218.2c1.8-19.4,17.9-35.1,37.4-36.4,23.6-1.6,43.3,16.9,43.3,40.3s-5,20.3-10.4,27.3c-8.7,11.3-13.8,17.9-14.4,33.2h-31.2c-.6-14.6-5.7-21.4-13.1-31.3-4.3-5.8-13.1-15.9-11.5-33h0l-.1-.1Z" fill="#5f266d" stroke-width="0"/>
      <path d="M280.9,221.2v1.7c-.1,2.7,2,4.9,4.7,5,3.1,0,4.9-2.3,5-4.7v-2.3c0-2.7-2.3-4.8-5-4.7-2.7,0-4.8,2.3-4.7,5Z" fill="#5f266d" stroke-width="0"/>
      <path d="M265.6,199.5s6,2.3,10.4,7.9c1.7,2.1,4.8,2.4,6.8.8,2.1-1.7,2.4-4.7.8-6.8-6.2-7.7-14.2-10.8-14.6-10.9-2.5-.9-5.3.3-6.2,2.8s.3,5.3,2.8,6.2h0Z" fill="#5f266d" stroke-width="0"/>
      <path d="M257.1,162.4c2.7,0,4.8-2.2,4.8-4.8v-17.7c0-2.7-2.2-4.8-4.8-4.8s-4.8,2.2-4.8,4.8v17.7c0,2.7,2.2,4.8,4.8,4.8Z" fill="#5f266d" stroke-width="0"/>
      <path d="M221,168.8c1.3,2.3,4.3,3.1,6.6,1.8s3.1-4.3,1.8-6.6l-9.3-16.1c-1.3-2.3-4.3-3.1-6.6-1.8s-3.1,4.3-1.8,6.6l9.3,16.1Z" fill="#5f266d" stroke-width="0"/>
      <path d="M183.1,184.1l16.1,9.3c2.3,1.3,5.3.5,6.6-1.8s.5-5.3-1.8-6.6l-16.1-9.3c-2.3-1.3-5.3-.5-6.6,1.8s-.5,5.3,1.8,6.6h0Z" fill="#5f266d" stroke-width="0"/>
      <path d="M174,225.6h18.5c2.7,0,4.8-2.2,4.8-4.8s-2.2-4.8-4.8-4.8h-18.5c-2.7,0-4.8,2.2-4.8,4.8s2.2,4.8,4.8,4.8Z" fill="#5f266d" stroke-width="0"/>
      <path d="M316.5,223c0,2.7,2.2,4.8,4.8,4.8h16.7c2.7,0,4.8-2.2,4.8-4.8s-2.2-4.8-4.8-4.8h-16.7c-2.7,0-4.8,2.2-4.8,4.8Z" fill="#5f266d" stroke-width="0"/>
      <path d="M313.9,195.3l16.1-9.3c2.3-1.3,3.1-4.3,1.8-6.6s-4.3-3.1-6.6-1.8l-16.1,9.3c-2.3,1.3-3.1,4.3-1.8,6.6,1.3,2.3,4.3,3.1,6.6,1.8h0Z" fill="#5f266d" stroke-width="0"/>
      <path d="M286.3,171.7c2.3,1.3,5.3.5,6.6-1.8l9.3-16.1c1.3-2.3.5-5.3-1.8-6.6s-5.3-.5-6.6,1.8l-9.3,16.1c-1.3,2.3-.5,5.3,1.8,6.6Z" fill="#5f266d" stroke-width="0"/>
    </g>
  </g>
</svg>