<?xml version="1.0" encoding="UTF-8"?>
<svg id="Capa_1" data-name="Capa 1" xmlns="http://www.w3.org/2000/svg" version="1.1" viewBox="0 0 512 512">
  <path d="M270.8,512c-61.9-.7-108.3-3.6-152.9-20.1-60.7-22.6-93.8-68.8-106.9-129.5-15-69.6-14.5-140-.3-209.8C27,72.7,76.9,25.2,156,9.8c67-13.1,134.7-13.3,201.7.5,72,14.9,121.5,56.2,139.6,129.4,19.8,80.4,20.3,161.3-2.3,241.2-21.1,74.8-76.1,111.5-149.2,123.7-29.6,4.9-59.9,6-74.9,7.4h-.1Z" fill="#efefef" stroke-width="0"/>
  <g>
    <g>
      <path d="M332.5,369.3V106H106v263.3c0,20.3,16.4,36.7,36.7,36.7h226.5c-20.3,0-36.7-16.4-36.7-36.7Z" fill="#fff" stroke-width="0"/>
      <path d="M164.8,243.1c0-51.7,17.7-99.4,47.3-137.1h-106.1v263.3c0,20.3,16.4,36.7,36.7,36.7h93c-43.6-40.6-70.9-98.5-70.9-162.9h0Z" fill="#d2dcfd" stroke-width="0"/>
      <path d="M164.8,243.1c0-51.7,17.7-99.4,47.3-137.1h-106.1v263.3c0,20.3,16.4,36.7,36.7,36.7h93c-43.6-40.6-70.9-98.5-70.9-162.9h0Z" fill="#d2dcfd" stroke-width="0"/>
      <path d="M332.5,260h73.5v109.2c0,20.3-16.4,36.7-36.7,36.7h0c-20.3,0-36.7-16.4-36.7-36.7v-109.2h-.1Z" fill="#fdcb50" stroke-width="0"/>
      <polyline points="303.1 208.9 303.1 135.4 192.6 135.4 170.8 139.2 135.4 135.4 140.1 165.4 135.4 208.9 155.6 204.4 167.4 208.9 303.1 208.9" fill="#bc9af4" stroke-width="0"/>
      <g>
        <path d="M215.9,157.2v29.8h-6.8l-4-13.5v13.5h-6.5v-29.8h6.5l4.3,13.4v-13.4h6.5Z" fill="#fff" stroke-width="0"/>
        <path d="M220,157.2h12.9v6h-5.2v5.6h4.8v5.7h-4.8v6.5h5.7v6h-13.4v-29.8Z" fill="#fff" stroke-width="0"/>
        <path d="M266.7,157.2l-3.4,29.8h-9.7c-.9-4.6-1.7-9.8-2.3-15.6-.3,2.5-1,7.7-2.2,15.6h-9.6l-3.5-29.8h7.5l.8,10.4.8,10c.3-5.2,1-12,2.1-20.4h8c.1.9.4,4.1.8,9.8l.9,11.3c.4-7.2,1.2-14.2,2.2-21.1h7.6,0Z" fill="#fff" stroke-width="0"/>
        <path d="M285.7,166.3h-7.2v-2.2c0-1,0-1.7-.3-2-.2-.3-.5-.4-.9-.4s-.8.2-1.1.6c-.2.4-.4,1-.4,1.7s.1,1.7.4,2.2,1,1.1,2.2,1.8c3.4,2,5.6,3.7,6.5,5s1.3,3.4,1.3,6.3-.2,3.7-.7,4.7-1.5,1.8-2.9,2.5-3.1,1-5,1-3.8-.4-5.3-1.2-2.4-1.8-2.9-3-.7-2.9-.7-5.2v-1.9h7.2v3.6c0,1.1.1,1.8.3,2.2.2.3.6.5,1.1.5s.9-.2,1.1-.6c.3-.4.4-1,.4-1.8,0-1.8-.2-2.9-.7-3.4s-1.7-1.4-3.6-2.7-3.2-2.2-3.8-2.8c-.6-.6-1.1-1.4-1.6-2.4-.4-1-.6-2.3-.6-3.9,0-2.3.3-3.9.9-5s1.5-1.9,2.8-2.5,2.9-.9,4.7-.9,3.7.3,5.1,1c1.4.6,2.4,1.5,2.8,2.5.5,1,.7,2.7.7,5v1.2h.2v.1Z" fill="#fff" stroke-width="0"/>
      </g>
      <path d="M164.8,243.1c0-51.7,17.7-99.4,47.3-137.1h-106.1v263.3c0,20.3,16.4,36.7,36.7,36.7h93c-43.6-40.6-70.9-98.5-70.9-162.9h0Z" fill="#d2dcfd" stroke-width="0"/>
      <path d="M135.4,135.4v73.5h32c4.1-26.3,12.7-51.1,25.2-73.5h-57.2Z" fill="#6864f7" stroke-width="0"/>
      <polyline points="135.4 376.6 177.4 369.9 208.9 376.6 208.9 243.1 164.8 243.1 150.8 249.9 135.4 243.1 140.8 288.2 135.4 376.6" fill="#67ccd1" stroke-width="0"/>
      <path d="M208.9,376.1c-27.7-37.1-44.1-83.1-44.1-132.9h-29.4v133.5h73.5v-.5h0v-.1Z" fill="#27a2cc" stroke-width="0"/>
    </g>
    <g>
      <path d="M332.5,260h73.5v109.2c0,20.3-16.4,36.7-36.7,36.7h0c-20.3,0-36.7-16.4-36.7-36.7v-109.2h-.1Z" fill="none" stroke="#052a75" stroke-linecap="round" stroke-linejoin="round" stroke-width="12.2"/>
      <path d="M332.5,318.7V106H106v263.3c0,20.3,16.4,36.7,36.7,36.7h226.5" fill="none" stroke="#052a75" stroke-linecap="round" stroke-linejoin="round" stroke-width="12.2"/>
      <g>
        <line x1="243.1" y1="243.1" x2="303.1" y2="243.1" fill="none" stroke="#6864f7" stroke-linecap="round" stroke-linejoin="round" stroke-width="12.2"/>
        <line x1="243.1" y1="273.8" x2="303.1" y2="273.8" fill="none" stroke="#6864f7" stroke-linecap="round" stroke-linejoin="round" stroke-width="12.2"/>
        <line x1="243.1" y1="304.4" x2="303.1" y2="304.4" fill="none" stroke="#6864f7" stroke-linecap="round" stroke-linejoin="round" stroke-width="12.2"/>
        <line x1="243.1" y1="335" x2="303.1" y2="335" fill="none" stroke="#6864f7" stroke-linecap="round" stroke-linejoin="round" stroke-width="12.2"/>
        <line x1="243.1" y1="365.6" x2="303.1" y2="365.6" fill="none" stroke="#6864f7" stroke-linecap="round" stroke-linejoin="round" stroke-width="12.2"/>
      </g>
    </g>
  </g>
</svg>