<?xml version="1.0" encoding="UTF-8"?>
<svg xmlns="http://www.w3.org/2000/svg" version="1.1" viewBox="0 0 512 512">
  <defs>
    <style>
      .cls-1 {
        fill: #3a6584;
      }

      .cls-1, .cls-2, .cls-3, .cls-4, .cls-5, .cls-6, .cls-7 {
        fill-rule: evenodd;
      }

      .cls-8 {
        fill: #4bd16d;
      }

      .cls-9 {
        fill: #ffba57;
      }

      .cls-2 {
        fill: #d3dde6;
      }

      .cls-3 {
        fill: #bec7cf;
      }

      .cls-10 {
        fill: #282828;
      }

      .cls-4 {
        fill: #e0eeff;
      }

      .cls-11 {
        fill: #efefef;
      }

      .cls-5 {
        fill: #cad6e6;
      }

      .cls-12 {
        fill: #ff5876;
      }

      .cls-6 {
        fill: #57a3ff;
      }

      .cls-7 {
        fill: #3282e3;
      }
    </style>
  </defs>
  <!-- Generator: Adobe Illustrator 28.6.0, SVG Export Plug-In . SVG Version: 1.2.0 Build 709)  -->
  <g>
    <g id="Capa_1">
      <path class="cls-11" d="M270.8,512c-61.9-.7-108.3-3.6-152.9-20.1-60.7-22.6-93.8-68.8-106.9-129.5-15-69.6-14.5-140-.3-209.8C27,72.7,76.9,25.2,156,9.8c67-13.1,134.7-13.3,201.7.5,72,14.9,121.5,56.2,139.6,129.4,19.8,80.4,20.3,161.3-2.3,241.2-21.1,74.8-76.1,111.5-149.2,123.7-29.6,4.9-59.9,6-74.9,7.4h-.1Z"/>
      <g>
        <path class="cls-1" d="M309.9,390.7c0,6.2-5,11.2-11.2,11.2H124.2c-6.2,0-11.2-5-11.2-11.2v-249.2c0-6.2,5-11.2,11.2-11.2h145.6l40.1,40.1v220.2Z"/>
        <path class="cls-2" d="M330.3,370.4c0,6.2-5,11.2-11.2,11.2h-174.5c-6.2,0-11.2-5-11.2-11.2V121.2c0-6.2,5-11.2,11.2-11.2h145.6l40.1,40.1v220.2Z"/>
        <path class="cls-1" d="M290.1,110v32.9c0,4,3.3,7.2,7.2,7.2h32.9l-40.1-40.1Z"/>
        <path class="cls-8" d="M154.6,168.3h40.5v40.6h-40.5v-40.6Z"/>
        <path class="cls-9" d="M154.6,239.4h40.5v40.6h-40.5v-40.6Z"/>
        <path class="cls-12" d="M154.6,310.6h40.5v40.5h-40.5v-40.5Z"/>
        <g>
          <path class="cls-6" d="M399,267.7c0,30.6-24.8,55.4-55.5,55.4-30.6,0-55.4-24.8-55.4-55.5,0-30.6,24.8-55.4,55.4-55.4,30.6,0,55.5,24.8,55.5,55.4h0Z"/>
          <path class="cls-4" d="M384.6,267.7c0,22.7-18.4,41-41,41-22.7,0-41-18.4-41-41,0-22.7,18.4-41,41-41,22.7,0,41,18.4,41,41Z"/>
          <path class="cls-3" d="M320.3,217.3c3.2-1.5,6.5-2.6,10-3.5v-63.6h-10v67.1Z"/>
          <path class="cls-3" d="M330.3,321.5c-3.4-.8-6.8-2-10-3.5v52.4c0,5.9-4.5,10.7-10.4,11.2-.3,0-.5,0-.8,0h10c6.2,0,11.2-5,11.2-11.2v-48.9Z"/>
          <path class="cls-7" d="M356.7,228.8c21.5,7.3,33,30.6,25.7,52.1-4.1,12.1-13.6,21.6-25.7,25.7-7.2,7.4-16.3,12.6-26.4,15,29.8,7.3,59.8-11,67-40.7,7.3-29.8-11-59.8-40.7-67-8.6-2.1-17.6-2.1-26.3,0,10,2.5,19.1,7.7,26.4,15h0Z"/>
          <path class="cls-5" d="M384.6,267.7c0-17.6-11.2-33.2-27.8-38.9,21.2,21.6,21.2,56.2,0,77.7,16.6-5.7,27.8-21.3,27.8-38.9h0Z"/>
        </g>
        <path class="cls-10" d="M314,390.7v-5.1h5.1c8.4,0,15.3-6.8,15.3-15.3v-36.9c0-2.3-1.8-4.1-4.1-4.1s-4.1,1.8-4.1,4.1v36.9c0,3.9-3.2,7.1-7.1,7.1h-174.6c-3.9,0-7.1-3.2-7.1-7.1V121.2c0-3.9,3.2-7.1,7.1-7.1h141.5v28.8c0,6.3,5.1,11.3,11.3,11.3h28.8v47.5c0,2.3,1.8,4.1,4.1,4.1s4.1-1.8,4.1-4.1v-51.6c0-1.1-.4-2.1-1.2-2.9l-40.1-40.1c-.8-.8-1.8-1.2-2.9-1.2h-145.6c-8.4,0-15.3,6.9-15.3,15.3v5h-5c-8.4,0-15.3,6.8-15.3,15.3v249.2c0,8.4,6.8,15.3,15.3,15.3h174.6c8.4,0,15.3-6.9,15.3-15.3h0ZM294.2,142.9v-23l26.1,26.1h-23c-1.7,0-3.1-1.4-3.1-3.1h0ZM117.1,390.7v-249.2c0-3.9,3.2-7.1,7.1-7.1h5.1v235.9c0,8.4,6.8,15.3,15.3,15.3h161.3v5c0,3.9-3.2,7.1-7.1,7.1H124.2c-3.9,0-7.1-3.2-7.1-7.1h0ZM209,168l-29,29c-1.6,1.6-4.2,1.6-5.8,0h0s-9.2-9.2-9.2-9.2c-1.6-1.6-1.6-4.2,0-5.8,1.6-1.6,4.2-1.6,5.8,0h0l6.3,6.3,26.1-26.1c1.6-1.6,4.2-1.6,5.8,0,1.6,1.6,1.6,4.2,0,5.8h0ZM279,169c0,2.3-1.8,4.1-4.1,4.1h-46.5c-2.3,0-4.1-1.8-4.1-4.1s1.8-4.1,4.1-4.1h46.5c2.3,0,4.1,1.8,4.1,4.1ZM224.3,188.9c0-2.3,1.8-4.1,4.1-4.1h26.8c2.3,0,4.1,1.8,4.1,4.1s-1.8,4.1-4.1,4.1h-26.8c-2.3,0-4.1-1.8-4.1-4.1h0s0,0,0,0ZM269,184.8h39.9c2.3,0,4.1,1.8,4.1,4.1s-1.8,4.1-4.1,4.1h-39.9c-2.3,0-4.1-1.8-4.1-4.1s1.8-4.1,4.1-4.1h0ZM224.3,208.8c0-2.3,1.8-4.1,4.1-4.1h80.6c2.3,0,4.1,1.8,4.1,4.1s-1.8,4.1-4.1,4.1h-80.6c-2.3,0-4.1-1.8-4.1-4.1h0s0,0,0,0ZM209,239.2l-29,29.1c-1.6,1.6-4.2,1.6-5.8,0,0,0,0,0,0,0l-9.2-9.2c-1.6-1.6-1.6-4.2,0-5.8,1.6-1.6,4.2-1.6,5.8,0l6.3,6.3,26.1-26.2c1.6-1.6,4.2-1.6,5.8,0s1.6,4.2,0,5.8h0ZM224.3,280c0-2.3,1.8-4.1,4.1-4.1h49.1c2.3,0,4.1,1.8,4.1,4.1s-1.8,4.1-4.1,4.1h-49.1c-2.3,0-4.1-1.8-4.1-4.1h0s0,0,0,0ZM224.3,260c0-2.3,1.8-4.1,4.1-4.1h26.8c2.3,0,4.1,1.8,4.1,4.1s-1.8,4.1-4.1,4.1h-26.8c-2.3,0-4.1-1.8-4.1-4.1h0s0,0,0,0ZM276.8,255.9c2.3,0,4.1,1.8,4.1,4.1s-1.8,4.1-4.1,4.1h-7.7c-2.3,0-4.1-1.8-4.1-4.1s1.8-4.1,4.1-4.1h7.7ZM224.3,240.1c0-2.3,1.8-4.1,4.1-4.1h46.5c2.3,0,4.1,1.8,4.1,4.1s-1.8,4.1-4.1,4.1h-46.5c-2.3,0-4.1-1.8-4.1-4.1h0s0,0,0,0ZM209,310.3l-29,29c-1.6,1.6-4.2,1.6-5.8,0,0,0,0,0,0,0l-9.2-9.2c-1.6-1.6-1.6-4.2,0-5.8,1.6-1.6,4.2-1.6,5.8,0l6.3,6.3,26.1-26.1c1.6-1.6,4.2-1.6,5.8,0s1.6,4.2,0,5.8h0ZM224.3,311.3c0-2.3,1.8-4.1,4.1-4.1h46.5c2.3,0,4.1,1.8,4.1,4.1s-1.8,4.1-4.1,4.1h-46.5c-2.3,0-4.1-1.8-4.1-4.1h0s0,0,0,0ZM313,331.2c0,2.3-1.8,4.1-4.1,4.1h-39.9c-2.3,0-4.1-1.8-4.1-4.1s1.8-4.1,4.1-4.1h39.9c2.3,0,4.1,1.8,4.1,4.1h0ZM224.3,331.2c0-2.3,1.8-4.1,4.1-4.1h26.8c2.3,0,4.1,1.8,4.1,4.1s-1.8,4.1-4.1,4.1h-26.8c-2.3,0-4.1-1.8-4.1-4.1h0ZM224.3,351.1c0-2.3,1.8-4.1,4.1-4.1h80.6c2.3,0,4.1,1.8,4.1,4.1s-1.8,4.1-4.1,4.1h-80.6c-2.3,0-4.1-1.8-4.1-4.1h0s0,0,0,0ZM403.1,267.7c0-32.9-26.7-59.5-59.6-59.5s-59.5,26.7-59.5,59.6c0,32.9,26.7,59.5,59.5,59.5,32.9,0,59.5-26.7,59.6-59.6ZM292.2,267.7c0-28.4,23-51.3,51.4-51.3,28.4,0,51.3,23,51.3,51.4,0,28.4-23,51.3-51.4,51.3h0c-28.3,0-51.3-23-51.3-51.4h0ZM343.5,312.8c-22.4,0-41.5-16.5-44.7-38.7-.3-2.2,1.2-4.3,3.5-4.6s4.3,1.2,4.6,3.5c2.9,20.2,21.6,34.2,41.8,31.3,20.2-2.9,34.2-21.6,31.3-41.8s-21.6-34.2-41.8-31.3c-16.2,2.3-28.9,15.1-31.3,31.3-.3,2.2-2.4,3.8-4.6,3.5-2.2-.3-3.8-2.4-3.5-4.6,3.6-24.7,26.5-41.8,51.1-38.2,24.7,3.6,41.8,26.5,38.2,51.1-3.2,22.2-22.2,38.7-44.7,38.7ZM347.6,239v26.3l12.7,7.3c2,1.1,2.6,3.6,1.5,5.6s-3.6,2.6-5.6,1.5h0l-14.7-8.5c-1.3-.7-2.1-2.1-2.1-3.6v-28.7c0-2.3,1.8-4.1,4.1-4.1s4.1,1.8,4.1,4.1h0ZM158.7,172.4v32.3h32.3v-10.7c0-2.3,1.8-4.1,4.1-4.1s4.1,1.8,4.1,4.1v14.8c0,2.3-1.8,4.1-4.1,4.1h-40.5c-2.3,0-4.1-1.8-4.1-4.1v-40.6c0-2.3,1.8-4.1,4.1-4.1h30.1c2.3,0,4.1,1.8,4.1,4.1s-1.8,4.1-4.1,4.1h-26ZM150.5,239.4c0-2.3,1.8-4.1,4.1-4.1h30.1c2.3,0,4.1,1.8,4.1,4.1s-1.8,4.1-4.1,4.1h-26v32.3h32.3v-10.7c0-2.3,1.8-4.1,4.1-4.1s4.1,1.8,4.1,4.1v14.8c0,2.3-1.8,4.1-4.1,4.1h-40.5c-2.3,0-4.1-1.8-4.1-4.1v-40.6ZM150.5,310.5c0-2.3,1.8-4.1,4.1-4.1h30.1c2.3,0,4.1,1.8,4.1,4.1s-1.8,4.1-4.1,4.1h-26v32.3h32.3v-10.7c0-2.3,1.8-4.1,4.1-4.1s4.1,1.8,4.1,4.1v14.8c0,2.3-1.8,4.1-4.1,4.1h-40.5c-2.3,0-4.1-1.8-4.1-4.1v-40.6Z"/>
      </g>
    </g>
  </g>
</svg>