<?xml version="1.0" encoding="UTF-8"?>
<svg id="Capa_1" data-name="Capa 1" xmlns="http://www.w3.org/2000/svg" version="1.1" viewBox="0 0 512 512">
  <path d="M270.8,512c-61.9-.7-108.3-3.6-152.9-20.1-60.7-22.6-93.8-68.8-106.9-129.5-15-69.6-14.5-140-.3-209.8C27,72.7,76.9,25.2,156,9.8c67-13.1,134.7-13.3,201.7.5,72,14.9,121.5,56.2,139.6,129.4,19.8,80.4,20.3,161.3-2.3,241.2-21.1,74.8-76.1,111.5-149.2,123.7-29.6,4.9-59.9,6-74.9,7.4h-.1Z" fill="#efefef" stroke-width="0"/>
  <g>
    <path d="M236.01,309.63h64.7c14.17,0,26.33,6.99,33.47,19.22,9.73,16.68,20.22,32.94,31.43,48.82,8.47,11.99,22.77,17.21,36.98,13.49l.91-.24c17.26-4.52,28.17-21.25,25.35-38.87-8.68-54.27-22.91-107.95-43.02-161h-106.24l-43.58,43.58v75Z" fill="#fa6e85" fill-rule="evenodd" stroke-width="0"/>
    <path d="M142.25,151.64c-12.65,28.95-23.51,58.1-32.63,87.43h121.94l44.88-44.88v-74.18c-32.93-1.19-66.12.55-99.57,5.31-15.77,2.24-28.25,11.73-34.63,26.33Z" fill="#19cfba" fill-rule="evenodd" stroke-width="0"/>
    <path d="M117.63,214.63c-15.66,45.36-27.09,91.17-34.48,137.41-2.82,17.62,8.09,34.35,25.35,38.87l.91.24c14.2,3.72,28.51-1.49,36.98-13.49,11.21-15.87,21.69-32.14,31.43-48.82,7.14-12.24,19.31-19.22,33.47-19.22h44.71v-31.07h12.64c9.04,0,16.43-7.39,16.43-16.43s-7.39-16.43-16.43-16.43h-12.64v-31.07h-52.75v-13.27c0-9.04-7.39-16.43-16.43-16.43s-16.43,7.39-16.43,16.43v13.27h-52.75Z" fill="#ffbf31" fill-rule="evenodd" stroke-width="0"/>
    <path d="M394.36,214.63c-7.29-21.11-15.49-42.13-24.64-63.05-6.37-14.58-18.83-24.06-34.58-26.32-26.22-3.76-52.6-5.65-79.15-5.63v31.07h-12.64c-9.04,0-16.43,7.39-16.43,16.43s7.39,16.43,16.43,16.43h12.64v31.07h52.75v13.27c0,9.04,7.39,16.43,16.43,16.43s16.43-7.39,16.43-16.43v-13.27h52.75Z" fill="#60b7fe" fill-rule="evenodd" stroke-width="0"/>
    <path d="M402.12,385.68l-.9.24c-12.05,3.16-23.99-1.2-31.19-11.37-11.13-15.75-21.61-32.05-31.17-48.42-8.12-13.92-22.03-21.91-38.15-21.91h-39.29v-20.24h7.22c12.04,0,21.85-9.8,21.85-21.84s-9.81-21.85-21.85-21.85h-7.22v-20.23h41.92v7.86c0,12.04,9.81,21.84,21.85,21.84s21.84-9.8,21.84-21.84v-7.86h43.45c14.76,43.47,25.86,88.04,33.02,132.85,2.38,14.87-6.81,28.96-21.38,32.77h0ZM236.01,304.22h14.58v-25.66c0-2.99,2.43-5.42,5.42-5.42h12.64c6.07,0,11.02-4.94,11.02-11.01s-4.95-11.02-11.02-11.02h-12.64c-2.99,0-5.42-2.42-5.42-5.42v-25.65h-47.34c-2.99,0-5.41-2.43-5.41-5.42v-13.27c0-6.07-4.95-11.02-11.02-11.02s-11.01,4.95-11.01,11.02v13.27c0,2.99-2.43,5.42-5.42,5.42h-48.87l-2.39,7.13c-13.46,40.55-23.93,83.9-30.62,125.72-2.38,14.86,6.81,28.96,21.38,32.77l.9.24c12.05,3.16,24-1.2,31.18-11.37,11.13-15.76,21.62-32.05,31.17-48.42,8.13-13.92,22.03-21.91,38.15-21.91h24.72ZM147.21,153.82c5.66-12.93,16.46-21.15,30.43-23.14,24.26-3.45,48.7-5.31,72.95-5.58v20.19h-7.22c-12.05,0-21.85,9.8-21.85,21.84s9.8,21.85,21.85,21.85h7.22v20.24h-41.92v-7.86c0-12.05-9.8-21.85-21.85-21.85s-21.84,9.8-21.84,21.85v7.86h-39.69c6.63-18.63,13.96-37.18,21.93-55.41h0ZM364.77,153.76c-5.64-12.91-16.43-21.12-30.38-23.13-24.82-3.56-48.08-5.23-72.97-5.53v25.61c0,2.99-2.43,5.42-5.42,5.42h-12.63c-6.07,0-11.02,4.94-11.02,11.01s4.95,11.02,11.02,11.02h12.63c2.99,0,5.42,2.43,5.42,5.42v25.66h47.34c3,0,5.42,2.42,5.42,5.42v13.27c0,6.07,4.95,11.01,11.02,11.01s11.01-4.94,11.01-11.01v-13.27c0-3,2.43-5.42,5.42-5.42h45.1c-6.59-18.66-14.03-37.37-21.95-55.47h0ZM434.19,351.2c-8.23-51.48-21.83-103.64-39.98-153.13l-3.32-8.94h0c-5.05-13.33-10.47-26.61-16.19-39.71-7.1-16.24-21.23-26.99-38.77-29.51-19.61-2.81-39.47-4.59-59.28-5.31h0c-34.18-1.06-65.35.35-100.53,5.36-17.57,2.5-31.72,13.26-38.83,29.52-28.26,64.62-48.35,132.19-59.47,201.72-3.26,20.39,9.34,39.73,29.32,44.96,4.01,1.05,7.14,1.58,11.22,1.58,12.74,0,24.8-6.1,32.46-16.95,11.31-16.01,21.97-32.57,31.68-49.2,6.14-10.52,16.63-16.54,28.8-16.54h89.42c12.18,0,22.67,6.02,28.8,16.54,9.71,16.64,20.37,33.2,31.68,49.2,9.85,13.94,26.69,19.81,42.77,15.6l.91-.24c19.98-5.23,32.59-24.56,29.32-44.96Z" fill="#1e2f3f" fill-rule="evenodd" stroke-width="0"/>
  </g>
</svg>