<?xml version="1.0" encoding="UTF-8"?>
<svg id="Capa_1" data-name="Capa 1" xmlns="http://www.w3.org/2000/svg" version="1.1" viewBox="0 0 512 512">
  <path d="M270.8,512c-61.9-.7-108.3-3.6-152.9-20.1-60.7-22.6-93.8-68.8-106.9-129.5-15-69.6-14.5-140-.3-209.8C27,72.7,76.9,25.2,156,9.8c67-13.1,134.7-13.3,201.7.5,72,14.9,121.5,56.2,139.6,129.4,19.8,80.4,20.3,161.3-2.3,241.2-21.1,74.8-76.1,111.5-149.2,123.7-29.6,4.9-59.9,6-74.9,7.4h-.1Z" fill="#efefef" stroke-width="0"/>
  <g>
    <g>
      <g>
        <path d="M149.9,110.8h179.4c1.6,0,3,.6,4.1,1.7l32.9,32.9c1.1,1.1,1.7,2.5,1.7,4.1v245.8c0,3.2-2.6,5.9-5.9,5.9h-212.3c-3.2,0-5.9-2.6-5.9-5.9V116.7c0-3.2,2.6-5.9,5.9-5.9h.1Z" fill="#eceff1" fill-rule="evenodd" stroke-width="0"/>
        <path d="M149.9,110.8h10.7v290.3h-10.7c-3.2,0-5.9-2.6-5.9-5.9V116.7c0-3.2,2.6-5.9,5.9-5.9Z" fill="#d1d1d6" fill-rule="evenodd" stroke-width="0"/>
        <path d="M331.7,111.3c.6.3,1.2.7,1.7,1.2l32.9,32.9c.5.5.9,1.1,1.2,1.7h-32.9c-1.6,0-2.9-1.3-2.9-2.9v-32.9h0Z" fill="#a79ba7" fill-rule="evenodd" stroke-width="0"/>
      </g>
      <g>
        <path d="M179.6,354.7h16.6c1.3,0,2.4,1.1,2.4,2.4v16.6c0,1.3-1.1,2.4-2.4,2.4h-16.6c-1.3,0-2.4-1.1-2.4-2.4v-16.6c0-1.3,1.1-2.4,2.4-2.4h0Z" fill="#ffe177" fill-rule="evenodd" stroke-width="0"/>
        <path d="M191.5,354.7h4.6c1.3,0,2.4,1.1,2.4,2.4v16.6c0,1.3-1.1,2.4-2.4,2.4h-4.6c1.3,0,2.4-1.1,2.4-2.4v-16.6c0-1.3-1.1-2.4-2.4-2.4h0Z" fill="#ffd064" fill-rule="evenodd" stroke-width="0"/>
      </g>
      <g>
        <path d="M179.6,304.4h16.6c1.3,0,2.4,1.1,2.4,2.4v16.6c0,1.3-1.1,2.4-2.4,2.4h-16.6c-1.3,0-2.4-1.1-2.4-2.4v-16.6c0-1.3,1.1-2.4,2.4-2.4h0Z" fill="#8ac9fe" fill-rule="evenodd" stroke-width="0"/>
        <path d="M191.5,304.4h4.6c1.3,0,2.4,1.1,2.4,2.4v16.6c0,1.3-1.1,2.4-2.4,2.4h-4.6c1.3,0,2.4-1.1,2.4-2.4v-16.6c0-1.3-1.1-2.4-2.4-2.4h0Z" fill="#60b7ff" fill-rule="evenodd" stroke-width="0"/>
      </g>
      <g>
        <circle cx="256" cy="152" r="11" fill="#837683" stroke-width="0"/>
        <path d="M256,141c6.1,0,11,4.9,11,11s-4.9,11-11,11-1.2,0-1.8-.1c5.2-.9,9.2-5.4,9.2-10.9s-4-10-9.2-10.9c.6,0,1.2-.1,1.8-.1Z" fill="#685e68" fill-rule="evenodd" stroke-width="0"/>
        <path d="M256,243.5c15,0,28.1,8.1,35.2,20.2.7,1.2-.2,2.7-1.6,2.7h-67.2c-1.4,0-2.3-1.5-1.6-2.7,7.1-12.1,20.2-20.2,35.2-20.2h0Z" fill="#837683" fill-rule="evenodd" stroke-width="0"/>
        <path d="M256,243.5c15,0,28.1,8.1,35.2,20.2.7,1.2-.2,2.7-1.6,2.7h-6c1.4,0,2.3-1.5,1.6-2.7-6.6-11.3-18.4-19.1-32.2-20.1,1,0,2-.1,3-.1Z" fill="#685e68" fill-rule="evenodd" stroke-width="0"/>
        <path d="M288.9,195.4c0-.3-.1-.7-.1-1.1,0-2.5,2.1-4.6,4.6-4.6h45.5c2.8,0,5,2.5,4.5,5.4-2.3,13.2-13.9,23-27.3,23s-24.8-9.6-27.2-22.7h0Z" fill="#ffe177" fill-rule="evenodd" stroke-width="0"/>
        <path d="M293.3,189.7h45.5c2.8,0,5,2.5,4.5,5.3-2.3,13.2-13.9,23-27.3,23s-1.9,0-2.9-.2c12.2-1.3,22.3-10.5,24.4-22.8.5-2.8-1.7-5.3-4.5-5.3h-39.8.1Z" fill="#ffd064" fill-rule="evenodd" stroke-width="0"/>
        <path d="M168.7,195.4c0-.3-.1-.7-.1-1.1,0-2.5,2.1-4.6,4.6-4.6h45.5c2.8,0,5,2.5,4.5,5.4-2.3,13.2-13.9,23-27.3,23s-24.8-9.6-27.2-22.7h0Z" fill="#ffe177" fill-rule="evenodd" stroke-width="0"/>
        <path d="M173.1,189.7h45.5c2.8,0,5,2.5,4.5,5.3-2.3,13.2-13.9,23-27.3,23s-1.9,0-2.9-.2c12.2-1.3,22.3-10.5,24.4-22.8.5-2.8-1.7-5.3-4.5-5.3h-39.8.1Z" fill="#ffd064" fill-rule="evenodd" stroke-width="0"/>
      </g>
    </g>
    <path d="M339.7,315.1c0,2.7-2.2,4.8-4.8,4.8h-112.3c-2.7,0-4.8-2.2-4.8-4.8s2.2-4.8,4.8-4.8h112.3c2.7,0,4.8,2.2,4.8,4.8h0ZM193.7,321h-11.8v-11.8h11.8v11.8ZM198.6,299.6h-21.4c-2.7,0-4.8,2.2-4.8,4.8v21.4c0,2.7,2.2,4.8,4.8,4.8h21.4c2.7,0,4.8-2.2,4.8-4.8v-21.4c0-2.7-2.2-4.8-4.8-4.8ZM339.7,365.4c0,2.7-2.2,4.8-4.8,4.8h-112.3c-2.7,0-4.8-2.2-4.8-4.8s2.2-4.8,4.8-4.8h112.3c2.7,0,4.8,2.2,4.8,4.8h0ZM193.7,371.3h-11.8v-11.8h11.8v11.8ZM198.6,349.9h-21.4c-2.7,0-4.8,2.2-4.8,4.8v21.4c0,2.7,2.2,4.8,4.8,4.8h21.4c2.7,0,4.8-2.2,4.8-4.8v-21.4c0-2.7-2.2-4.8-4.8-4.8ZM316.1,209.1c-7.5,0-14.1-4.2-17.4-10.5h34.7c-3.3,6.3-9.9,10.5-17.4,10.5h.1ZM316.1,162.7l15.5,26.2h-31.1l15.5-26.2h.1ZM256,158.2c-3.4,0-6.2-2.8-6.2-6.2s2.8-6.2,6.2-6.2,6.2,2.8,6.2,6.2-2.8,6.2-6.2,6.2ZM283.9,261.7h-55.8c6.7-8.3,16.8-13.3,27.9-13.3s21.2,4.9,27.9,13.3h0ZM211.4,188.9h-31l15.5-26.2,15.5,26.2ZM195.9,209.1c-7.5,0-14.1-4.2-17.4-10.5h34.7c-3.3,6.3-9.9,10.5-17.3,10.5ZM320.3,150.8c-1.1-1.9-3.4-2.8-5.5-2.2-12,3.3-16.1,1.7-21.3-.2-5.2-2-11-4.2-22.9-2.4-2.4-5.7-8-9.8-14.6-9.8s-12.3,4.1-14.6,9.8c-11.9-1.7-17.7.4-22.9,2.4s-9.4,3.5-21.3.2c-2.1-.6-4.3.3-5.5,2.2l-24,40.5c-.6,1-.8,2.2-.6,3.3,2.4,14,14.5,24.2,28.8,24.2s26.4-10.2,28.8-24.2c.2-1.1,0-2.3-.6-3.3l-18.5-31.3c7.6.7,12.1-1,16.4-2.6,4.5-1.7,8.8-3.3,18.7-1.8,1.3,5.4,5.3,9.8,10.6,11.5v71.9c-15.4,1.7-29.3,11.3-36.1,25.4-.7,1.5-.6,3.3.3,4.7.9,1.4,2.4,2.3,4.1,2.3h73.3c1.7,0,3.2-.9,4.1-2.3s1-3.2.3-4.7c-6.9-14.1-20.7-23.8-36.2-25.4v-71.9c5.2-1.7,9.3-6,10.6-11.5,9.8-1.5,14.1,0,18.7,1.8,4.3,1.6,8.8,3.3,16.4,2.6l-18.5,31.3c-.6,1-.8,2.2-.6,3.3,2.4,14,14.5,24.2,28.8,24.2s26.4-10.2,28.8-24.2c.2-1.1,0-2.3-.6-3.3l-24-40.5h-.4,0ZM362.1,396.3c.6,0,1-.5,1-1v-243.3h-28.5c-4.3,0-7.8-3.5-7.8-7.8v-28.5h-177c-.5,0-1,.5-1,1v278.6c0,.6.5,1,1,1h212.3,0ZM336.5,122.5l19.8,19.8h-19.8v-19.8ZM369.7,142l-32.9-32.9c-2.1-2-4.7-3.1-7.6-3.1h-179.4c-5.9,0-10.7,4.8-10.7,10.7v278.6c0,5.9,4.8,10.7,10.7,10.7h212.3c5.9,0,10.7-4.8,10.7-10.7v-245.7c0-2.9-1.1-5.5-3.1-7.6h0Z" fill="#044045" fill-rule="evenodd" stroke-width="0"/>
  </g>
</svg>