<?xml version="1.0" encoding="UTF-8"?>
<svg id="Capa_1" data-name="Capa 1" xmlns="http://www.w3.org/2000/svg" version="1.1" viewBox="0 0 512 512">
  <path d="M270.8,512c-61.9-.7-108.3-3.6-152.9-20.1-60.7-22.6-93.8-68.8-106.9-129.5-15-69.6-14.5-140-.3-209.8C27,72.7,76.9,25.2,156,9.8c67-13.1,134.7-13.3,201.7.5,72,14.9,121.5,56.2,139.6,129.4,19.8,80.4,20.3,161.3-2.3,241.2-21.1,74.8-76.1,111.5-149.2,123.7-29.6,4.9-59.9,6-74.9,7.4h-.1Z" fill="#efefef" stroke-width="0"/>
  <g id="Page-1">
    <g id="_017---Box-of-Points" data-name="017---Box-of-Points">
      <g id="Icons">
        <path id="Shape" d="M255.99,251.01l-23.6,47.25c-.86,1.7-2.6,2.76-4.5,2.75h-108.79c-1.74.01-3.36-.88-4.28-2.36s-1-3.33-.22-4.89l20-40c.86-1.7,2.6-2.76,4.5-2.75h116.89Z" fill="sienna" stroke-width="0"/>
        <path id="Shape-2" data-name="Shape" d="M240.99,251.01l-23.6,47.25c-.86,1.7-2.6,2.76-4.5,2.75h15c1.9.01,3.64-1.05,4.5-2.75l23.6-47.25h-15Z" fill="#783e22" stroke-width="0"/>
        <path id="Shape-3" data-name="Shape" d="M392.88,301.01h-108.79c-1.9.01-3.64-1.05-4.5-2.75l-23.6-47.25h116.89c1.9-.01,3.64,1.05,4.5,2.75l20,40c.78,1.56.7,3.41-.22,4.89s-2.54,2.38-4.28,2.36h0Z" fill="sienna" stroke-width="0"/>
        <path id="Shape-4" data-name="Shape" d="M397.38,293.76l-20-40c-.86-1.7-2.6-2.76-4.5-2.75h-15c1.9-.01,3.64,1.05,4.5,2.75l20,40c.78,1.56.7,3.41-.22,4.89s-2.54,2.38-4.28,2.36h15c1.74.01,3.36-.88,4.28-2.36s1-3.33.22-4.89Z" fill="#783e22" stroke-width="0"/>
        <path id="Shape-5" data-name="Shape" d="M255.99,251.01v149.99h-109.99c-5.52-.02-9.98-4.48-10-10v-89.99h91.89c1.9.01,3.64-1.05,4.5-2.75l23.6-47.25Z" fill="#91562d" stroke-width="0"/>
        <path id="Shape-6" data-name="Shape" d="M240.99,281.04v119.96h15v-149.99l-15,30.03Z" fill="#6d4122" stroke-width="0"/>
        <path id="Shape-7" data-name="Shape" d="M375.98,301.01v89.99c-.02,5.52-4.48,9.98-10,10h-109.99v-149.99l23.6,47.25c.86,1.7,2.6,2.76,4.5,2.75h91.89Z" fill="#91562d" stroke-width="0"/>
        <path id="Shape-8" data-name="Shape" d="M360.98,301.01v89.99c-.02,5.52-4.48,9.98-10,10h15c5.52-.02,9.98-4.48,10-10v-89.99h-15Z" fill="#6d4122" stroke-width="0"/>
        <path id="Shape-9" data-name="Shape" d="M263.85,116.14l11.8,24.88c1.23,2.66,3.71,4.54,6.61,5l26.18,3.95c3.4.68,6.15,3.16,7.16,6.48,1.01,3.31.12,6.91-2.32,9.37l-18.79,19.04c-2.13,2.19-3.08,5.26-2.57,8.27l4.45,27c.72,3.35-.55,6.81-3.26,8.91-2.71,2.09-6.38,2.45-9.44.91l-23.65-12.93c-2.52-1.39-5.56-1.39-8.08,0l-23.66,12.94c-3.06,1.54-6.73,1.19-9.44-.91s-3.98-5.56-3.26-8.91l4.45-27c.51-3.01-.44-6.08-2.57-8.27l-18.78-19.03c-2.44-2.46-3.33-6.06-2.32-9.37,1.01-3.31,3.76-5.8,7.16-6.48l26.18-3.97c2.9-.46,5.37-2.34,6.61-5l11.8-24.86c1.37-3.11,4.45-5.12,7.85-5.12,3.4,0,6.48,2,7.86,5.1h0Z" fill="#ffdc00" stroke-width="0"/>
        <path id="Shape-10" data-name="Shape" d="M313.28,165.83c2.44-2.46,3.33-6.06,2.32-9.37-1.01-3.31-3.76-5.8-7.16-6.48l-26.18-3.96c-2.9-.46-5.37-2.34-6.61-5l-11.8-24.88c-1.32-2.99-4.24-4.96-7.51-5.08s-6.31,1.65-7.85,4.54c.11.19.26.33.35.54l11.8,24.88c1.23,2.66,3.71,4.54,6.61,5l26.18,3.95c3.4.68,6.15,3.16,7.16,6.48s.12,6.91-2.32,9.37l-18.79,19.04c-2.13,2.19-3.08,5.26-2.57,8.27l4.45,27c.47,2.66-.23,5.39-1.92,7.5l4.22,2.31c3.06,1.54,6.73,1.19,9.44-.91s3.98-5.56,3.26-8.91l-4.45-27c-.51-3.01.44-6.08,2.57-8.27l18.79-19.03Z" fill="#fec108" stroke-width="0"/>
        <path id="Shape-11" data-name="Shape" d="M164.93,173.58l5.9,12.44c.62,1.33,1.86,2.27,3.3,2.5l13.09,2c1.7.34,3.08,1.58,3.58,3.24.51,1.66.06,3.46-1.16,4.69l-9.39,9.5c-1.06,1.09-1.54,2.63-1.28,4.13l2.23,13.5c.36,1.67-.28,3.4-1.63,4.45s-3.19,1.22-4.72.45l-11.85-6.46c-1.26-.69-2.78-.69-4.04,0l-11.81,6.47c-1.53.77-3.36.59-4.72-.45-1.35-1.05-1.99-2.78-1.63-4.45l2.23-13.5c.26-1.5-.22-3.04-1.28-4.13l-9.39-9.5c-1.22-1.23-1.67-3.03-1.17-4.69s1.89-2.9,3.59-3.24l13.09-2c1.45-.23,2.69-1.17,3.3-2.5l5.9-12.43c.68-1.56,2.22-2.56,3.93-2.57s3.24,1,3.93,2.56h0Z" fill="#ffdc00" stroke-width="0"/>
        <path id="Shape-12" data-name="Shape" d="M354.92,173.58l5.9,12.44c.62,1.33,1.86,2.27,3.3,2.5l13.09,2c1.7.34,3.08,1.58,3.58,3.24.51,1.66.06,3.46-1.16,4.69l-9.39,9.5c-1.06,1.09-1.54,2.63-1.28,4.13l2.23,13.5c.36,1.67-.28,3.4-1.63,4.45-1.35,1.05-3.19,1.22-4.72.45l-11.85-6.46c-1.26-.69-2.78-.69-4.04,0l-11.81,6.47c-1.53.77-3.36.59-4.72-.45-1.35-1.05-1.99-2.78-1.63-4.45l2.23-13.5c.26-1.5-.22-3.04-1.28-4.13l-9.39-9.5c-1.22-1.23-1.67-3.03-1.16-4.69s1.88-2.9,3.58-3.24l13.09-2c1.45-.23,2.69-1.17,3.3-2.5l5.9-12.43c.68-1.56,2.22-2.57,3.92-2.57s3.25,1,3.93,2.55h0Z" fill="#ffdc00" stroke-width="0"/>
        <path id="Shape-13" data-name="Shape" d="M379.63,198.42c1.22-1.23,1.67-3.03,1.16-4.69s-1.88-2.9-3.58-3.24l-13.09-2c-1.45-.23-2.69-1.17-3.3-2.5l-5.9-12.43c-.69-1.56-2.23-2.56-3.93-2.56s-3.24,1-3.93,2.56l-3.57,7.5,2.33,4.9c.62,1.33,1.86,2.27,3.3,2.5l13.09,2c1.7.34,3.08,1.58,3.58,3.24.51,1.66.06,3.46-1.16,4.69l-9.39,9.5c-1.06,1.09-1.54,2.63-1.28,4.13l2.23,13.5v.18l8.64,4.72c1.53.77,3.36.59,4.72-.45,1.35-1.05,1.99-2.78,1.63-4.45l-2.23-13.5c-.25-1.5.22-3.04,1.28-4.13l9.39-9.47Z" fill="#fec108" stroke-width="0"/>
      </g>
      <g id="Icons_copy" data-name="Icons copy">
        <path id="Shape-14" data-name="Shape" d="M119.1,306.01h11.91v84.99c0,8.28,6.72,15,15,15h219.98c8.28,0,15-6.72,15-15v-84.99h11.91c3.47,0,6.7-1.79,8.52-4.75,1.82-2.96,1.98-6.65.42-9.75l-20-40c-1.69-3.39-5.16-5.52-8.94-5.5h-233.8c-3.79-.01-7.26,2.13-8.94,5.52l-20,40c-1.55,3.1-1.39,6.78.44,9.73s5.04,4.74,8.51,4.74h0ZM141,391v-84.99h86.9c3.79.02,7.25-2.11,8.94-5.5l14.14-28.32v123.81h-104.99c-2.76,0-5-2.24-5-5ZM370.98,391c0,2.76-2.24,5-5,5h-104.99v-123.81l14.14,28.29c1.68,3.4,5.15,5.54,8.94,5.53h86.9v84.99ZM372.89,256.01l20,40h-108.81l-20-40h108.81ZM139.09,256.01h108.81l-20,40h-108.81l20-40Z" fill="#000" stroke-width="0"/>
        <path id="Shape-15" data-name="Shape" d="M316.84,169.35c3.84-3.91,5.15-9.66,3.39-14.85-1.59-4.99-5.86-8.66-11.04-9.47l-26.2-3.94c-1.26-.22-2.32-1.06-2.84-2.22l-11.78-24.83c-2.2-4.85-7.04-7.97-12.37-7.97s-10.17,3.12-12.37,7.97l-11.8,24.86c-.52,1.17-1.58,2-2.84,2.22l-26.18,3.91c-5.18.82-9.45,4.5-11.04,9.5-1.76,5.19-.45,10.94,3.39,14.85l18.78,19.03c1,1.05,1.45,2.51,1.19,3.94l-4.45,27c-.96,5.45,1.31,10.97,5.82,14.17,4.18,3,9.71,3.33,14.22.84l23.66-12.93c1.02-.57,2.27-.57,3.29,0l23.66,12.93c4.51,2.49,10.04,2.16,14.22-.84,4.51-3.21,6.76-8.72,5.8-14.17l-4.45-27c-.25-1.43.19-2.89,1.19-3.94l18.76-19.06ZM290.94,181.34c-3.24,3.33-4.7,8-3.94,12.59l4.46,27c.34,1.67-.34,3.39-1.72,4.39-1.06.8-2.49.88-3.64.22l-23.66-12.93c-4.01-2.21-8.87-2.21-12.88,0l-23.66,12.95c-1.15.66-2.58.57-3.64-.22-1.38-1-2.06-2.72-1.72-4.39l4.46-27c.76-4.58-.7-9.26-3.94-12.59l-18.78-19.05c-1.19-1.24-1.58-3.05-1-4.66.41-1.42,1.59-2.47,3.04-2.73l26.19-3.95c4.55-.72,8.44-3.65,10.38-7.82l11.8-24.86c.54-1.37,1.87-2.26,3.34-2.26s2.8.9,3.34,2.26l11.8,24.86c1.94,4.16,5.81,7.09,10.34,7.82l26.18,3.95c1.45.26,2.63,1.31,3.04,2.73.58,1.62.19,3.42-1,4.66l-18.78,19.02Z" fill="#000" stroke-width="0"/>
        <path id="Shape-16" data-name="Shape" d="M138.1,211.26l-2.23,13.5c-.64,3.67.88,7.38,3.92,9.53,2.87,2.06,6.67,2.28,9.76.57l11.45-6.24,11.45,6.25c3.09,1.71,6.89,1.49,9.76-.57,3.04-2.16,4.56-5.87,3.92-9.53l-2.32-13.31,9.39-9.5c2.6-2.62,3.49-6.49,2.29-9.98-1.09-3.38-3.99-5.86-7.5-6.41l-12.74-1.92-5.79-12.19c-1.51-3.3-4.81-5.41-8.44-5.41s-6.93,2.12-8.44,5.41l-5.82,12.19-12.74,1.92c-3.52.54-6.43,3.03-7.52,6.41-1.18,3.49-.3,7.35,2.28,9.97l9.31,9.32ZM148.6,193.46c3.1-.48,5.75-2.47,7.08-5.31l5.32-11.19,5.31,11.19c1.33,2.84,3.98,4.83,7.08,5.31l12.29,1.86-9,9.11c-2.18,2.24-3.17,5.37-2.65,8.45l2.32,12.72-10.93-6c-2.75-1.51-6.09-1.51-8.84,0l-10.69,5.87,2.08-12.59c.51-3.08-.48-6.22-2.66-8.46l-9.09-9.09,12.39-1.87Z" fill="#000" stroke-width="0"/>
        <path id="Shape-17" data-name="Shape" d="M359.42,171.43c-1.51-3.3-4.81-5.41-8.44-5.41s-6.93,2.12-8.44,5.41l-5.79,12.19-12.74,1.92c-3.51.55-6.41,3.03-7.5,6.41-1.18,3.49-.3,7.35,2.28,9.97l9.3,9.32-2.23,13.5c-.64,3.67.88,7.38,3.92,9.53,2.87,2.06,6.67,2.28,9.76.57l11.43-6.24,11.45,6.25c3.09,1.71,6.89,1.49,9.76-.57,3.04-2.16,4.56-5.87,3.92-9.53l-2.32-13.31,9.39-9.5c2.6-2.62,3.49-6.49,2.29-9.98-1.09-3.38-3.99-5.86-7.5-6.41l-12.74-1.92-5.82-12.19ZM366.67,204.43c-2.18,2.24-3.17,5.37-2.65,8.45l2.32,12.72-10.93-6c-2.75-1.51-6.09-1.51-8.84,0l-10.69,5.84,2.08-12.59c.51-3.08-.48-6.22-2.66-8.46l-9.09-9.09,12.4-1.87c3.1-.48,5.75-2.47,7.08-5.31l5.31-11.16,5.31,11.19c1.33,2.84,3.98,4.83,7.08,5.31l12.29,1.86-8.99,9.11Z" fill="#000" stroke-width="0"/>
        <path id="Shape-18" data-name="Shape" d="M221,126.02c1.74,0,3.36-.88,4.27-2.36s1-3.32.23-4.88l-5-10c-1.23-2.47-4.24-3.47-6.71-2.24s-3.47,4.24-2.24,6.71l5,10c.84,1.69,2.56,2.76,4.45,2.76h0Z" fill="#000" stroke-width="0"/>
        <path id="Shape-19" data-name="Shape" d="M197.46,134.56c1.96,1.89,5.08,1.87,7.01-.06s1.96-5.05.06-7.01l-5-5c-1.96-1.89-5.08-1.87-7.01.06s-1.96,5.05-.06,7.01l5,5Z" fill="#000" stroke-width="0"/>
        <path id="Shape-20" data-name="Shape" d="M290.99,126.02c1.9.01,3.65-1.06,4.5-2.76l5-10c1.23-2.49.22-5.5-2.26-6.73s-5.5-.22-6.73,2.26l-5,10c-.78,1.55-.69,3.4.23,4.88.92,1.48,2.54,2.37,4.27,2.36Z" fill="#000" stroke-width="0"/>
        <path id="Shape-21" data-name="Shape" d="M314.52,134.56l5-5c1.3-1.26,1.82-3.11,1.36-4.86s-1.82-3.11-3.57-3.57c-1.75-.46-3.61.06-4.86,1.36l-5,5c-1.3,1.26-1.82,3.11-1.36,4.86s1.82,3.11,3.57,3.57c1.75.46,3.61-.06,4.86-1.36Z" fill="#000" stroke-width="0"/>
      </g>
    </g>
  </g>
</svg>