<?xml version="1.0" encoding="UTF-8"?>
<svg id="Capa_1" data-name="Capa 1" xmlns="http://www.w3.org/2000/svg" version="1.1" viewBox="0 0 512 512">
  <path d="M270.8,512c-61.9-.7-108.3-3.6-152.9-20.1-60.7-22.6-93.8-68.8-106.9-129.5-15-69.6-14.5-140-.3-209.8C27,72.7,76.9,25.2,156,9.8c67-13.1,134.7-13.3,201.7.5,72,14.9,121.5,56.2,139.6,129.4,19.8,80.4,20.3,161.3-2.3,241.2-21.1,74.8-76.1,111.5-149.2,123.7-29.6,4.9-59.9,6-74.9,7.4h-.1Z" fill="#efefef" stroke-width="0"/>
  <g>
    <path d="M166.12,291.17h51.12v80.74h-51.12v-80.74Z" fill="#5b99f4" stroke-width="0"/>
    <path d="M327.14,163c-1.19-3.68-2.31-7.16-3.27-10.47-8.62-28.58-12.43-28.66-22.64-28.88-.51-.02-2.62-.05-12.18-.05-5.41,0-6.78,1.31-10.84,5.21-.24.23-.5.47-.75.72v6.09c0,7.05-5.72,12.77-12.77,12.78h-17.41c-7.05-.01-12.76-5.73-12.77-12.78v-6.09c-.25-.24-.51-.48-.75-.72-4.06-3.9-5.42-5.21-10.84-5.21-9.56,0-11.68.03-12.14.05-10.24.22-14.06.31-22.69,28.94-.94,3.25-2.06,6.73-3.25,10.41-8.15,25.22-13.05,45.07,3.76,52.02,1.77.73,3.65,1.14,5.56,1.2h1.22c5.86-.23,11.85-3.56,16.44-9.43l12.21-15.62c-4.47-6.77-2.61-15.87,4.16-20.34,6.77-4.47,15.87-2.61,20.34,4.16,1.43,2.16,2.26,4.66,2.41,7.25h10.08c.46-8.1,7.4-14.29,15.5-13.83,8.1.46,14.29,7.4,13.83,15.5-.15,2.59-.98,5.1-2.41,7.27l12.21,15.62c4.58,5.87,10.56,9.19,16.42,9.43h1.28c1.9-.07,3.77-.47,5.52-1.2,16.81-6.95,11.91-26.8,3.76-52.02h0Z" fill="#eaf2ff" stroke-width="0"/>
    <path d="M200.52,154.81c0-2.58,2.09-4.67,4.67-4.67h4.58v-4.56c0-2.58,2.09-4.67,4.67-4.67s4.67,2.09,4.67,4.67v4.56h4.58c2.58,0,4.67,2.09,4.67,4.67s-2.09,4.67-4.67,4.67h-4.58v4.58c0,2.58-2.09,4.67-4.67,4.67s-4.67-2.09-4.67-4.67v-4.58h-4.58c-2.58,0-4.67-2.09-4.67-4.67ZM381.77,260.13v111.79h3.06c7.13,0,12.9,5.77,12.92,12.9v8.25c0,2.58-2.09,4.67-4.67,4.67H118.92c-2.58,0-4.67-2.09-4.67-4.67v-8.25c0-7.12,5.78-12.89,12.9-12.9h3.07v-111.79c-9.88-5.74-15.96-16.3-15.97-27.72v-8.9c0-.62.12-1.23.36-1.8l23.2-55.64c2.45-5.86,9.42-9.65,17.76-9.65h21.58c.72-2.25,1.4-4.42,1.99-6.48,4.77-15.83,8.33-23.87,12.7-28.73,5.5-6.11,12.25-6.76,18.7-6.9,1.36-.04,7.49-.05,12.39-.05,9.17,0,12.76,3.45,17.3,7.82.26.25.53.5.8.77h29.91c.27-.26.54-.52.8-.77,4.54-4.37,8.13-7.82,17.3-7.82,4.9,0,11.03,0,12.43.05,6.4.14,13.16.79,18.66,6.9,4.37,4.86,7.93,12.9,12.69,28.67.6,2.09,1.28,4.28,2.01,6.53h21.58c8.34,0,15.32,3.79,17.76,9.65l23.2,55.64c.24.57.36,1.18.36,1.79v8.9c0,11.43-6.09,21.99-15.97,27.72h0ZM388.41,232.4v-6.86h-45.49v6.86c-.16,12.56,9.9,22.87,22.47,23.03,12.56.16,22.87-9.9,23.03-22.47,0-.19,0-.38,0-.56ZM178.42,232.4c0,12.56,10.18,22.75,22.75,22.75s22.75-10.18,22.75-22.75v-6.86h-45.5v6.86ZM236.3,197.75c-.06,0-.11,0-.17,0l-2.27,18.47h44.28l-2.27-18.47c-.05,0-.11,0-.17,0-4.76,0-9.23-2.31-11.98-6.2h-15.45c-2.75,3.89-7.21,6.2-11.98,6.2h0ZM296.09,216.21c-1.17-1.16-2.27-2.39-3.28-3.69l-6.79-8.69,1.52,12.38h8.56ZM281.05,183.07c0-2.96-2.4-5.35-5.35-5.35-2.96,0-5.35,2.4-5.35,5.35,0,2.96,2.4,5.35,5.35,5.35,2.96,0,5.35-2.4,5.35-5.35ZM241.65,183.07c0-2.96-2.4-5.35-5.35-5.35-2.96,0-5.35,2.4-5.35,5.35s2.4,5.35,5.35,5.35h0c2.95,0,5.35-2.4,5.35-5.35h0ZM219.2,212.53c-1.01,1.3-2.1,2.53-3.27,3.69h8.53l1.52-12.37-6.78,8.68ZM233.25,232.4c0,12.56,10.2,22.74,22.76,22.73,12.55,0,22.73-10.18,22.73-22.73,0-.11,0-.22.02-.33v-6.53h-45.52v6.86ZM288.08,232.4c0,12.57,10.2,22.75,22.77,22.74,12.56,0,22.73-10.18,22.74-22.74v-6.86h-45.5v6.86h-.01ZM356.42,165.76h-18.59c3.03,9.61,5.91,19.93,6.16,29.31.23,8.84-1.92,15.91-6.42,21.14h47.41l-19.41-46.55c-.94-2.27-4.79-3.91-9.15-3.91ZM243.86,132.18v3.44c0,1.9,1.53,3.45,3.44,3.45h17.41c1.89-.03,3.42-1.56,3.44-3.45v-3.44h-24.28ZM184.86,163c-8.15,25.22-13.05,45.07,3.76,52.02,1.77.73,3.65,1.14,5.56,1.2h1.22c5.86-.23,11.85-3.56,16.44-9.43l12.21-15.62c-4.47-6.77-2.61-15.87,4.16-20.34,6.77-4.47,15.87-2.61,20.34,4.16,1.43,2.16,2.26,4.66,2.41,7.25h10.08c.46-8.1,7.4-14.29,15.5-13.83,8.1.46,14.29,7.4,13.83,15.5-.15,2.59-.98,5.1-2.41,7.27l12.21,15.62c4.58,5.87,10.56,9.19,16.42,9.43h1.28c1.9-.07,3.77-.47,5.52-1.2,16.81-6.95,11.91-26.8,3.76-52.02-1.19-3.68-2.31-7.16-3.27-10.47-8.61-28.58-12.43-28.66-22.63-28.88-.51-.02-2.62-.05-12.18-.05-5.41,0-6.78,1.31-10.84,5.21-.24.23-.5.47-.75.72v6.09c0,7.05-5.72,12.77-12.77,12.78h-17.41c-7.05-.01-12.76-5.73-12.77-12.78v-6.09c-.25-.24-.51-.48-.75-.72-4.06-3.9-5.42-5.21-10.84-5.21-9.56,0-11.68.03-12.14.05-10.24.22-14.06.31-22.69,28.94-.94,3.25-2.06,6.73-3.25,10.41h0ZM127.02,216.21h47.41c-4.5-5.24-6.66-12.31-6.42-21.14.25-9.38,3.12-19.7,6.16-29.31h-18.59c-4.36,0-8.21,1.64-9.15,3.91l-19.41,46.55ZM146.34,255.15c12.56-.01,22.74-10.19,22.75-22.75v-6.86h-45.5v6.86c.01,12.56,10.19,22.73,22.75,22.75ZM384.83,381.25H127.16c-1.97,0-3.57,1.6-3.57,3.57v3.58h264.82v-3.58c0-1.97-1.61-3.57-3.58-3.57ZM217.23,291.17h-51.12v80.74h51.12v-80.74ZM372.44,263.76c-13.37,2.9-27.1-3.01-34.19-14.71-9.19,15.14-28.92,19.97-44.07,10.78-4.41-2.67-8.1-6.37-10.78-10.78-9.18,15.14-28.9,19.97-44.04,10.79-4.41-2.68-8.11-6.37-10.79-10.79-9.18,15.14-28.9,19.97-44.04,10.78-4.41-2.67-8.11-6.37-10.78-10.78-7.09,11.69-20.82,17.6-34.19,14.71v108.16h17.22v-85.41c0-2.58,2.09-4.67,4.67-4.67h60.45c2.58,0,4.67,2.09,4.67,4.67v85.41h145.87v-108.16ZM355.36,286.51v65.77c0,2.58-2.09,4.67-4.67,4.67h-99.67c-2.58,0-4.67-2.09-4.67-4.67v-65.77c0-2.58,2.09-4.67,4.67-4.67h99.67c2.58,0,4.67,2.09,4.67,4.67ZM346.03,291.17h-90.33v56.44h90.33v-56.44ZM205.3,337.53c2.58,0,4.67-2.09,4.67-4.67v-5.84c0-2.58-2.09-4.67-4.67-4.67s-4.67,2.09-4.67,4.67v5.84c0,2.58,2.09,4.67,4.67,4.67h0ZM288.33,159.49c2.58,0,4.67-2.08,4.68-4.66,0-2.58-2.08-4.67-4.66-4.68-2.58,0-4.67,2.08-4.68,4.66,0,0,0,.01,0,.02,0,2.57,2.09,4.65,4.66,4.66ZM297.57,150.25c2.58,0,4.67-2.08,4.68-4.66,0-2.58-2.08-4.67-4.66-4.68-2.58,0-4.67,2.08-4.68,4.66,0,0,0,.01,0,.02,0,2.57,2.09,4.66,4.66,4.66ZM306.82,159.49c2.58,0,4.67-2.1,4.66-4.68,0-2.58-2.1-4.67-4.68-4.66-2.58,0-4.67,2.1-4.66,4.68h0c0,2.58,2.1,4.66,4.68,4.66ZM297.57,159.39c-2.58,0-4.67,2.08-4.68,4.66,0,2.58,2.08,4.67,4.66,4.68,2.58,0,4.67-2.08,4.68-4.66,0,0,0-.01,0-.02,0-2.57-2.08-4.66-4.65-4.66,0,0,0,0-.01,0Z" fill="#000" fill-rule="evenodd" stroke-width="0"/>
    <path d="M178.42,232.4c.16,12.56,10.47,22.62,23.03,22.46,12.34-.15,22.31-10.12,22.46-22.46v-6.86h-45.49v6.86Z" fill="#f79219" stroke-width="0"/>
    <path d="M255.7,291.17h90.33v56.44h-90.33v-56.44Z" fill="#80d6fb" stroke-width="0"/>
    <path d="M146.34,255.15c12.56-.01,22.74-10.19,22.75-22.75v-6.86h-45.5v6.86c.01,12.56,10.19,22.73,22.75,22.75Z" fill="#cc3656" stroke-width="0"/>
    <path d="M168.01,195.07c.25-9.38,3.12-19.7,6.16-29.31h-18.59c-4.36,0-8.21,1.64-9.15,3.91l-19.41,46.55h47.41c-4.5-5.24-6.66-12.31-6.42-21.14Z" fill="#e63950" stroke-width="0"/>
    <path d="M281.05,183.07c0-2.96-2.4-5.35-5.35-5.35-2.96,0-5.35,2.4-5.35,5.35,0,2.96,2.4,5.35,5.35,5.35,2.96,0,5.35-2.4,5.35-5.35Z" fill="#9bc4f9" stroke-width="0"/>
    <path d="M146.34,264.48c-2.28,0-4.55-.25-6.78-.73v108.16h17.22v-85.41c0-2.58,2.09-4.67,4.67-4.67h60.45c2.58,0,4.67,2.09,4.67,4.67v85.41h145.87v-108.16c-13.37,2.9-27.1-3.01-34.19-14.71-9.19,15.14-28.92,19.97-44.07,10.78-4.41-2.67-8.1-6.37-10.78-10.78-9.18,15.14-28.9,19.97-44.04,10.79-4.41-2.68-8.11-6.37-10.79-10.79-9.18,15.14-28.9,19.97-44.04,10.78-4.41-2.67-8.11-6.37-10.78-10.78-5.82,9.58-16.21,15.43-27.41,15.43h0ZM246.37,286.51c0-2.58,2.09-4.67,4.67-4.67h99.67c2.58,0,4.67,2.09,4.67,4.67v65.77c0,2.58-2.09,4.67-4.67,4.67h-99.67c-2.58,0-4.67-2.09-4.67-4.67v-65.77Z" fill="#eaf2ff" stroke-width="0"/>
    <path d="M225.98,203.85l-6.78,8.68c-1.01,1.3-2.1,2.53-3.27,3.69h8.53l1.52-12.37Z" fill="#ffa91a" stroke-width="0"/>
    <path d="M310.83,255.15c12.56-.01,22.74-10.19,22.75-22.75v-6.86h-45.5v6.86h-.02c.02,12.56,10.2,22.74,22.76,22.75h0Z" fill="#f79219" stroke-width="0"/>
    <path d="M236.13,197.75l-2.27,18.47h44.28l-2.27-18.47c-.06,0-.11,0-.17,0-4.76,0-9.23-2.31-11.97-6.2h-15.45c-2.75,3.89-7.21,6.2-11.97,6.2-.06,0-.11,0-.17,0h0Z" fill="#e63950" stroke-width="0"/>
    <path d="M255.99,255.15c12.56-.01,22.74-10.19,22.75-22.75,0-.11,0-.22.02-.33v-6.53h-45.51v6.86c.01,12.56,10.19,22.73,22.75,22.75h0Z" fill="#cc3656" stroke-width="0"/>
    <path d="M292.81,212.53l-6.79-8.69,1.52,12.38h8.55c-1.17-1.16-2.27-2.39-3.28-3.69h0Z" fill="#ffa91a" stroke-width="0"/>
    <path d="M236.3,177.71c-2.96,0-5.35,2.4-5.35,5.35,0,2.96,2.4,5.35,5.35,5.35,2.96,0,5.35-2.4,5.35-5.35h0c0-2.96-2.4-5.35-5.35-5.35Z" fill="#9bc4f9" stroke-width="0"/>
    <path d="M123.59,384.82v3.58h264.82v-3.58c0-1.97-1.61-3.57-3.58-3.57H127.16c-1.97,0-3.57,1.6-3.57,3.57Z" fill="#555e6b" stroke-width="0"/>
    <path d="M342.92,232.4c-.16,12.56,9.9,22.87,22.46,23.03,12.56.16,22.87-9.9,23.03-22.46,0-.19,0-.38,0-.56v-6.86h-45.49v6.86Z" fill="#cc3656" stroke-width="0"/>
    <path d="M384.98,216.21l-19.41-46.54c-.94-2.26-4.79-3.91-9.15-3.91h-18.59c3.03,9.61,5.91,19.93,6.16,29.31.23,8.84-1.92,15.91-6.42,21.14h47.41Z" fill="#e63950" stroke-width="0"/>
    <path d="M247.29,139.07h17.41c1.89-.03,3.42-1.56,3.44-3.45v-3.44h-24.28v3.44c0,1.9,1.53,3.45,3.44,3.45h0Z" fill="#9bc4f9" stroke-width="0"/>
    <path d="M340.85,291.17v50.3c0,1.71-1.38,3.09-3.09,3.09h-82.07v3.05h90.33v-56.44h-5.18Z" fill="#46bee8" stroke-width="0"/>
  </g>
</svg>