<?xml version="1.0" encoding="UTF-8"?>
<svg id="Capa_1" data-name="Capa 1" xmlns="http://www.w3.org/2000/svg" version="1.1" viewBox="0 0 512 512">
  <path d="M270.8,512c-61.9-.7-108.3-3.6-152.9-20.1-60.7-22.6-93.8-68.8-106.9-129.5-15-69.6-14.5-140-.3-209.8C27,72.7,76.9,25.2,156,9.8c67-13.1,134.7-13.3,201.7.5,72,14.9,121.5,56.2,139.6,129.4,19.8,80.4,20.3,161.3-2.3,241.2-21.1,74.8-76.1,111.5-149.2,123.7-29.6,4.9-59.9,6-74.9,7.4h-.1Z" fill="#efefef" stroke-width="0"/>
  <g>
    <path d="M131.7,110.8h248.5v221.1h-248.5V110.8h0Z" fill="#ffe2e2" stroke-width="0"/>
    <path d="M362.4,110.8h17.9v221.1h-17.9V110.8Z" fill="#ffcfcf" stroke-width="0"/>
    <path d="M131.7,110.8h17.9v221.1h-17.9V110.8Z" fill="#ffeeed" stroke-width="0"/>
    <g>
      <path d="M285.8,360.8l-15.7-15.7-24.7,24.7v-21.9c0-23.5-14.1-27.1-38.9-35.3-2.6-.9-5.3-1.6-8-2h-20c-3.5.6-6.5,1.5-9.6,2.6-21.8,8-37.3,10.2-37.3,34.8v53.3h109c3.2,0,6.2-1.3,8.5-3.5,7.6-7.6,23.9-23.9,36.9-36.9h-.2v-.1Z" fill="#5fcdff" stroke-width="0"/>
      <path d="M285.8,360.8l-36.9,36.9c-2.2,2.2-5.3,3.5-8.4,3.5h-109v-53.3c0-18.5,8.8-24.3,22.4-29.4l22.8,39.5,11.7,20.3,11.7-20.3,22.8-39.6c13.6,5.1,22.4,10.9,22.4,29.4v21.9l24.7-24.7,15.7,15.7h0l.1.1Z" fill="#89828f" stroke-width="0"/>
      <path d="M285.8,360.8l-36.9,36.9c-2.2,2.2-5.3,3.5-8.4,3.5h-17.9c3.2,0,6.2-1.3,8.4-3.5l36.9-36.9-6.8-6.8,8.9-8.9,15.7,15.7h.1Z" fill="#7e6e85" stroke-width="0"/>
      <path d="M178.4,298.3v15.7l8.3,16h3.4l8.3-16v-15.7h-20Z" fill="#ffbb98" stroke-width="0"/>
      <path d="M158,325.7c-5.5,4.6-8.7,11.1-8.7,22.2v53.3h-17.9v-53.3c0-18.5,8.8-24.3,22.4-29.4l4.2,7.2h0Z" fill="#a4a4a6" stroke-width="0"/>
      <path d="M284.7,330.4l-14.7,14.7,15.7,15.7,14.7-14.7c4.3-4.3,4.3-11.4,0-15.7-4.3-4.3-11.4-4.3-15.7,0Z" fill="#ffbb98" stroke-width="0"/>
      <g>
        <path d="M157.3,234v38.2c0,13.9,9.6,25.9,21.1,29.4h0c6.4,2.2,13.6,2.2,20,0h0c10.9-3.3,21.1-14.9,21.1-29.4v-38.2h-62.2Z" fill="#ffbb98" stroke-width="0"/>
        <path d="M157.3,234v38.2c0,13.9,9.6,25.9,21.1,29.4h0c4.7,1.6,10,2.1,15.2,1.2-4.2-.7-8.2-2.3-11.6-4.5-8.6-5.5-14.3-15.2-14.3-26.1v-38.2h-10.4Z" fill="#ffcaa6" stroke-width="0"/>
        <path d="M183.2,302.9c5.2.9,10.6.4,15.2-1.2h0c10.9-3.3,21.1-14.9,21.1-29.4v-38.2h-10.4v38.2c0,10.9-5.7,20.5-14.3,26.1-3.4,2.2-7.4,3.8-11.6,4.5h0Z" fill="#ffaa80" stroke-width="0"/>
      </g>
      <path d="M202.8,208.2h-19c-5.7,0-10.3,4.4-10.3,9.8h-9.3c-6.4,0-11.6,4.9-11.6,10.9v25.9l24.3-6.2c3.2-.8,5.9-2.8,7.6-5.6l3.9-6.4,3.9,6.4c1.7,2.8,4.4,4.8,7.6,5.6l24.3,6.3v-26.5c0-11.1-9.5-20.1-21.2-20.1h-.2v-.1Z" fill="#b76c6c" stroke-width="0"/>
      <path d="M224.1,228.3v26.5l-10.4-2.7v-23.8c0-11.1-9.5-20.1-21.2-20.1h10.4c11.7,0,21.2,9,21.2,20.1h0Z" fill="#a85959" stroke-width="0"/>
      <path d="M194.2,208.2c-5.7,0-10.3,4.4-10.3,9.8h-9.3c-6.4,0-11.6,4.9-11.6,10.9v23.2l-10.4,2.7v-25.9c0-6,5.2-10.9,11.6-10.9h9.3c0-5.4,4.6-9.8,10.3-9.8h10.4Z" fill="#dd8585" stroke-width="0"/>
    </g>
    <g>
      <circle cx="254.2" cy="247" r="8.3" fill="#5fcdff" stroke-width="0"/>
      <circle cx="295.3" cy="265" r="8.3" fill="#ff4975" stroke-width="0"/>
      <circle cx="348.8" cy="211.5" r="10.8" fill="#00c7b6" stroke-width="0"/>
    </g>
    <g>
      <path d="M401.3,327.1h-16.2V115.5h16.2c2.6,0,4.8-2.1,4.8-4.8s-2.1-4.8-4.8-4.8H110.8c-2.6,0-4.8,2.1-4.8,4.8s2.1,4.8,4.8,4.8h16.2v211.6h-16.2c-2.6,0-4.8,2.1-4.8,4.8s2.1,4.8,4.8,4.8h17.2c-2.2,8.5-1,12.4-1.3,64.6,0,2.6,2.1,4.8,4.8,4.8,155.6,0,95.7,0,109.9,0,8.3-.5,10.8-4.9,22-16-.1.1,40-40,40.4-40.4,3.5-3.5,5-8.1,4.6-12.8h92.9c2.6,0,4.8-2.1,4.8-4.8s-2.1-4.8-4.8-4.8h0v-.2ZM201,243.9c-4.6-1.2-5.3-5.2-8.6-9.8-1.9-3-6.3-3-8.1,0l-3.9,6.4c-2.7,4.5-6.7,3.4-23,8.2v-19.7c0-3.4,3-6.2,6.8-6.2h9.3c2.6,0,4.8-2.1,4.8-4.8s2.5-5,5.6-5h19c9.1,0,16.5,6.9,16.5,15.3v20.4l-18.3-4.7h-.1v-.1ZM162.1,257.3c12.1-4,20.7-2.8,26.3-11.6,5.6,8.7,14.2,7.6,26.3,11.6v14.9c0,12.6-9.1,22.2-17.7,24.8-19.2,5.8-34.9-8.3-34.9-24.8v-14.9ZM250.1,358.3c-.2-7.8.5-14.6-1.3-21.6h22.9c.1-.1-10.2,10.2-21.6,21.6ZM240.6,347.9c.2,21.8-.4,22,.4,23.8,1.4,3.1,5.4,3.7,7.7,1.4,2.2-2.2-7.9,7.9,21.3-21.3l9,9c-35.5,35.6-34.6,35.6-38.5,35.7-7.1,0-12.9-5.9-12.9-13v-30.2c0-2.6-2.1-4.8-4.8-4.8s-4.8,2.1-4.8,4.8v30.2c0,4.8,1.5,9.3,4.1,13h-64.9v-43.2c0-2.6-2.1-4.8-4.8-4.8s-4.8,2.1-4.8,4.8v43.2h-11.7v-48.6c0-12.6,3.8-18.4,15.6-23.5l32.5,56.3c1.8,3.1,6.4,3.2,8.3,0l32.5-56.3c11.2,4.8,15.5,10.4,15.5,23.5h.3,0ZM193.6,307.7v5.2l-5.2,10.1-5.2-10.1v-5.2c3.6.5,6.8.5,10.5,0h-.1ZM193.1,360.6v-26.3c2.5-4.3-.6,1.3,9.4-17.8,3.1.9,11.5,3.7,13.6,4.4l-22.9,39.7h-.1ZM174.2,316.4c17.8,34.2.5,1,9.4,17.8v26.3l-22.8-39.6c11.4-4,10.8-3.9,13.5-4.6h0l-.1.1ZM297.1,342.7l-11.3,11.3-9-9c10.7-10,11.4-13.2,15.8-13.2s8.5,6.9,4.5,10.8h0v.1ZM310.5,327.1l25.4-25.4c1.9-1.9,1.9-4.9,0-6.7-1.9-1.9-4.9-1.9-6.7,0l-29.2,29.2c-6-3.1-13.5-2.2-18.6,2.9h-36.8c-7.3-10.2-21.8-14.2-36.5-19-1.6-.5-3.1-1-4.8-1.4v-1.8c10.9-4.9,21.1-16.9,21.1-32.7v-12.7c2.6,0,4.6-2.2,4.6-4.8v-26.5c0-13.7-11.7-24.9-26-24.9h-19c-6.6,0-12.2,4.1-14.3,9.8h-5.4c-9,0-16.3,7-16.3,15.7v25.9c0,2.5,1.9,4.7,4.6,4.7v12.7c0,14.1,8.7,27.3,21.1,32.7v1.8c-4.1,1-19.8,6.6-24.5,8.5-4.5,1.8-9,4.1-12.6,7.3V115.5h239v211.6h-65.1,0Z" fill="#5f266d" stroke-width="0"/>
      <path d="M348.8,196c-11.7,0-19.2,12.5-13.8,22.8l-33.4,33.4c-5.7-2.8-12.5-1.6-16.9,3.1l-16.4-7c.7-8.3-5.9-15.2-14-15.2s-14.1,6.3-14.1,14.1c0,12.6,15.4,18.8,24.1,9.8l16.5,7c-.6,8.5,6.2,15.4,14.3,15.4s17.5-10.9,13-20.4l33.5-33.5c10.4,5.2,22.5-2.4,22.5-13.9s-7-15.6-15.6-15.6h.3ZM254.4,251.7c-2.5,0-4.6-2-4.6-4.5s2-4.5,4.6-4.5,4.5,2,4.5,4.5-2,4.5-4.5,4.5h0ZM295.3,269.9c-2.7,0-4.8-2.2-4.8-4.8s2.2-4.8,4.8-4.8,4.8,2.2,4.8,4.8-2.2,4.8-4.8,4.8ZM348.8,217.6c-3.3,0-6-2.7-6-6s2.7-6,6-6,6,2.7,6,6-2.7,6-6,6Z" fill="#5f266d" stroke-width="0"/>
      <path d="M171.5,139h169.1c2.6,0,4.8-2.1,4.8-4.8s-2.1-4.8-4.8-4.8h-169.1c-2.6,0-4.8,2.1-4.8,4.8s2.1,4.8,4.8,4.8h0Z" fill="#5f266d" stroke-width="0"/>
      <path d="M345.3,157c0-2.6-2.1-4.8-4.8-4.8h-169.1c-2.6,0-4.8,2.1-4.8,4.8s2.1,4.8,4.8,4.8h169.1c2.6,0,4.8-2.1,4.8-4.8Z" fill="#5f266d" stroke-width="0"/>
      <path d="M232.2,175h-60.8c-2.6,0-4.8,2.1-4.8,4.8s2.1,4.8,4.8,4.8h60.8c2.6,0,4.8-2.1,4.8-4.8s-2.1-4.8-4.8-4.8Z" fill="#5f266d" stroke-width="0"/>
      <path d="M250.1,175c-2.6,0-4.8,2.1-4.8,4.8s2.1,4.8,4.8,4.8h1.3c2.6,0,4.8-2.1,4.8-4.8s-2.1-4.8-4.8-4.8h-1.3Z" fill="#5f266d" stroke-width="0"/>
    </g>
  </g>
</svg>