<?xml version="1.0" encoding="UTF-8"?>
<svg id="Layer_1" data-name="Layer 1" xmlns="http://www.w3.org/2000/svg" version="1.1" xmlns:xlink="http://www.w3.org/1999/xlink" viewBox="0 0 512 414">
  <defs>
    <clipPath id="clippath">
      <circle cx="256" cy="157.2" r="124.7" fill="none" stroke-width="0"/>
    </clipPath>
    <linearGradient id="linear-gradient" x1="353.7" y1="58.6" x2="160.7" y2="58.6" gradientTransform="translate(0 414) scale(1 -1)" gradientUnits="userSpaceOnUse">
      <stop offset="0" stop-color="#6ecdff"/>
      <stop offset="0" stop-color="#66c8ff"/>
      <stop offset=".2" stop-color="#3fb1ff"/>
      <stop offset=".4" stop-color="#27a3ff"/>
      <stop offset=".5" stop-color="#1f9eff"/>
      <stop offset="1" stop-color="#078ade"/>
    </linearGradient>
    <linearGradient id="linear-gradient-2" x1="353.7" y1="-12.85" x2="160.7" y2="-12.85" gradientTransform="translate(0 414) scale(1 -1)" gradientUnits="userSpaceOnUse">
      <stop offset="0" stop-color="#ca6b34"/>
      <stop offset="0" stop-color="#cb6d33"/>
      <stop offset=".1" stop-color="#d27732"/>
      <stop offset=".1" stop-color="#dc8730"/>
      <stop offset=".2" stop-color="#eb9d2e"/>
      <stop offset=".2" stop-color="#feba2b"/>
      <stop offset=".2" stop-color="#ffbc2b"/>
      <stop offset=".6" stop-color="#ffbd2b"/>
      <stop offset=".8" stop-color="#ffba2c"/>
      <stop offset=".9" stop-color="#ffb02f"/>
      <stop offset="1" stop-color="#ffa933"/>
    </linearGradient>
    <linearGradient id="linear-gradient-3" x1="807.98" y1="-782.28" x2="807.98" y2="-726.42" gradientTransform="translate(1065.4 1090.8) rotate(-180) scale(1 -1)" gradientUnits="userSpaceOnUse">
      <stop offset=".3" stop-color="#735c8e"/>
      <stop offset=".7" stop-color="#654c83"/>
    </linearGradient>
    <linearGradient id="linear-gradient-4" x1="808.44" y1="-900.9" x2="808.44" y2="-663.4" gradientTransform="translate(1065.4 1090.8) rotate(-180) scale(1 -1)" gradientUnits="userSpaceOnUse">
      <stop offset="0" stop-color="#c296f5"/>
      <stop offset=".2" stop-color="#c2a1f5"/>
      <stop offset=".7" stop-color="#c2c0f5"/>
      <stop offset="1" stop-color="#c2dcf5"/>
    </linearGradient>
    <linearGradient id="linear-gradient-5" x1="807.13" y1="-749" x2="807.13" y2="-697.98" gradientTransform="translate(1065.4 1090.8) rotate(-180) scale(1 -1)" gradientUnits="userSpaceOnUse">
      <stop offset="0" stop-color="#078ade"/>
      <stop offset=".6" stop-color="#1f9eff"/>
      <stop offset=".7" stop-color="#27a3ff"/>
      <stop offset=".8" stop-color="#3fb1ff"/>
      <stop offset="1" stop-color="#66c8ff"/>
      <stop offset="1" stop-color="#6ecdff"/>
    </linearGradient>
    <linearGradient id="linear-gradient-6" x1="-1085.72" y1="284.6" x2="-1085.72" y2="463.06" gradientTransform="translate(-968.8 414) rotate(-180)" gradientUnits="userSpaceOnUse">
      <stop offset="0" stop-color="#ca9cff"/>
      <stop offset=".2" stop-color="#caa7ff"/>
      <stop offset=".7" stop-color="#cac6ff"/>
      <stop offset="1" stop-color="#cae5ff"/>
    </linearGradient>
    <linearGradient id="linear-gradient-7" x1="-1044.55" y1="284.6" x2="-1044.55" y2="446.3" gradientTransform="translate(-968.8 414) rotate(-180)" gradientUnits="userSpaceOnUse">
      <stop offset="0" stop-color="#ca9cff"/>
      <stop offset=".2" stop-color="#caa7ff"/>
      <stop offset=".7" stop-color="#cac6ff"/>
      <stop offset="1" stop-color="#cae5ff"/>
    </linearGradient>
    <linearGradient id="linear-gradient-8" x1="-1037.04" y1="284.53" x2="-1037.04" y2="384" gradientTransform="translate(-968.8 414) rotate(-180)" gradientUnits="userSpaceOnUse">
      <stop offset="0" stop-color="#ca9cff"/>
      <stop offset=".2" stop-color="#caa7ff"/>
      <stop offset=".7" stop-color="#cac6ff"/>
      <stop offset="1" stop-color="#cae5ff"/>
    </linearGradient>
    <linearGradient id="linear-gradient-9" x1="106.47" y1="135.2" x2="106.47" y2="316.13" gradientTransform="translate(0 414) scale(1 -1)" gradientUnits="userSpaceOnUse">
      <stop offset="0" stop-color="#ca9cff"/>
      <stop offset=".2" stop-color="#caa7ff"/>
      <stop offset=".7" stop-color="#cac6ff"/>
      <stop offset="1" stop-color="#cae5ff"/>
    </linearGradient>
    <linearGradient id="linear-gradient-10" x1="-332.32" y1="284.6" x2="-332.32" y2="462.96" gradientTransform="translate(727.3 414) scale(1 -1)" gradientUnits="userSpaceOnUse">
      <stop offset="0" stop-color="#ca9cff"/>
      <stop offset=".2" stop-color="#caa7ff"/>
      <stop offset=".7" stop-color="#cac6ff"/>
      <stop offset="1" stop-color="#cae5ff"/>
    </linearGradient>
    <linearGradient id="linear-gradient-11" x1="-291.05" y1="284.7" x2="-291.05" y2="446.4" gradientTransform="translate(727.3 414) scale(1 -1)" gradientUnits="userSpaceOnUse">
      <stop offset="0" stop-color="#ca9cff"/>
      <stop offset=".2" stop-color="#caa7ff"/>
      <stop offset=".7" stop-color="#cac6ff"/>
      <stop offset="1" stop-color="#cae5ff"/>
    </linearGradient>
    <linearGradient id="linear-gradient-12" x1="-283.54" y1="284.53" x2="-283.54" y2="384" gradientTransform="translate(727.3 414) scale(1 -1)" gradientUnits="userSpaceOnUse">
      <stop offset="0" stop-color="#ca9cff"/>
      <stop offset=".2" stop-color="#caa7ff"/>
      <stop offset=".7" stop-color="#cac6ff"/>
      <stop offset="1" stop-color="#cae5ff"/>
    </linearGradient>
    <linearGradient id="linear-gradient-13" x1="-646.93" y1="135.2" x2="-646.93" y2="316.23" gradientTransform="translate(-241.4 414) rotate(-180)" gradientUnits="userSpaceOnUse">
      <stop offset="0" stop-color="#ca9cff"/>
      <stop offset=".2" stop-color="#caa7ff"/>
      <stop offset=".7" stop-color="#cac6ff"/>
      <stop offset="1" stop-color="#cae5ff"/>
    </linearGradient>
    <radialGradient id="radial-gradient" cx="-583.93" cy="-1790.65" fx="-583.93" fy="-1790.65" r="31.5" gradientTransform="translate(-307.09 130.32) rotate(-128.9) scale(.6 -.4)" gradientUnits="userSpaceOnUse">
      <stop offset=".5" stop-color="#a68f95"/>
      <stop offset="1" stop-color="#000"/>
    </radialGradient>
    <radialGradient id="radial-gradient-2" cx="-767.99" cy="314.22" fx="-767.99" fy="314.22" r="34.8" gradientTransform="translate(-378.7 -148.36) rotate(-161.9) scale(.6 -.4)" gradientUnits="userSpaceOnUse">
      <stop offset=".5" stop-color="#a68f95"/>
      <stop offset="1" stop-color="#000"/>
    </radialGradient>
    <radialGradient id="radial-gradient-3" cx="-1130.99" cy="1363.85" fx="-1130.99" fy="1363.85" r="23.2" gradientTransform="translate(-711.44 273.71) rotate(144.9) scale(.9 -.4)" gradientUnits="userSpaceOnUse">
      <stop offset=".5" stop-color="#a68f95"/>
      <stop offset="1" stop-color="#000"/>
    </radialGradient>
    <radialGradient id="radial-gradient-4" cx="-98.99" cy="-94.25" fx="-98.99" fy="-94.25" r="34.8" gradientTransform="translate(-7.55 -74.88) rotate(-98.6) scale(.6 -.4)" gradientUnits="userSpaceOnUse">
      <stop offset=".5" stop-color="#a68f95"/>
      <stop offset="1" stop-color="#000"/>
    </radialGradient>
    <radialGradient id="radial-gradient-5" cx="-1337.14" cy="1804.04" fx="-1337.14" fy="1804.04" r="34.8" gradientTransform="translate(-583.61 300.08) rotate(131) scale(.6 -.4)" gradientUnits="userSpaceOnUse">
      <stop offset=".5" stop-color="#a68f95"/>
      <stop offset="1" stop-color="#000"/>
    </radialGradient>
    <radialGradient id="radial-gradient-6" cx="-753.19" cy="-170.21" fx="-753.19" fy="-170.21" r="31.5" gradientTransform="translate(-299.55 229.11) rotate(150) scale(.6 -.4)" gradientUnits="userSpaceOnUse">
      <stop offset=".5" stop-color="#a68f95"/>
      <stop offset="1" stop-color="#000"/>
    </radialGradient>
    <linearGradient id="linear-gradient-14" x1="254.2" y1="95.6" x2="254.2" y2="417.8" gradientTransform="translate(0 414) scale(1 -1)" gradientUnits="userSpaceOnUse">
      <stop offset="0" stop-color="#e4b0ff"/>
      <stop offset=".2" stop-color="#e4bbff"/>
      <stop offset=".6" stop-color="#e4daff"/>
      <stop offset="1" stop-color="#e4ffff"/>
    </linearGradient>
    <linearGradient id="linear-gradient-15" x1="-1010.8" y1="62.9" x2="-958.4" y2="62.9" gradientTransform="translate(-729.9 -69.6) rotate(-180) scale(1 -1)" gradientUnits="userSpaceOnUse">
      <stop offset="0" stop-color="#ca9cff"/>
      <stop offset=".2" stop-color="#caa7ff"/>
      <stop offset=".7" stop-color="#cac6ff"/>
      <stop offset="1" stop-color="#cae5ff"/>
    </linearGradient>
    <radialGradient id="radial-gradient-7" cx="-987.65" cy="-15.85" fx="-987.65" fy="-15.85" r="23.6" gradientTransform="translate(-363.67 162) rotate(166.8) scale(.6 -.4)" gradientUnits="userSpaceOnUse">
      <stop offset=".5" stop-color="#a68f95"/>
      <stop offset="1" stop-color="#000"/>
    </radialGradient>
    <radialGradient id="radial-gradient-8" cx="-967.15" cy="138.25" fx="-967.15" fy="138.25" r="27.2" gradientTransform="translate(-358.77 71.1) rotate(166.8) scale(.6 -.4)" gradientUnits="userSpaceOnUse">
      <stop offset=".5" stop-color="#a68f95"/>
      <stop offset="1" stop-color="#000"/>
    </radialGradient>
    <linearGradient id="linear-gradient-16" x1="710.84" y1="-750.52" x2="710.84" y2="-899.1" gradientTransform="translate(1065.4 1090.8) rotate(-180) scale(1 -1)" gradientUnits="userSpaceOnUse">
      <stop offset="0" stop-color="#d8a7ff"/>
      <stop offset=".2" stop-color="#d8b2ff"/>
      <stop offset=".6" stop-color="#d8d1ff"/>
      <stop offset="1" stop-color="#d8f5ff"/>
    </linearGradient>
    <linearGradient id="linear-gradient-17" x1="909.57" y1="-750.51" x2="909.57" y2="-892.5" gradientTransform="translate(1065.4 1090.8) rotate(-180) scale(1 -1)" gradientUnits="userSpaceOnUse">
      <stop offset="0" stop-color="#d2acff"/>
      <stop offset=".3" stop-color="#d2b7ff"/>
      <stop offset=".8" stop-color="#d2d6ff"/>
      <stop offset="1" stop-color="#d2e9ff"/>
    </linearGradient>
    <linearGradient id="linear-gradient-18" x1="953.1" y1="-870.29" x2="977.58" y2="-870.29" gradientTransform="translate(1065.4 1090.8) rotate(-180) scale(1 -1)" gradientUnits="userSpaceOnUse">
      <stop offset=".3" stop-color="#735c8e"/>
      <stop offset=".7" stop-color="#654c83"/>
    </linearGradient>
    <linearGradient id="linear-gradient-19" x1="642.3" y1="-870.13" x2="670.2" y2="-870.13" gradientTransform="translate(1065.4 1090.8) rotate(-180) scale(1 -1)" gradientUnits="userSpaceOnUse">
      <stop offset=".3" stop-color="#735c8e"/>
      <stop offset=".7" stop-color="#654c83"/>
    </linearGradient>
    <radialGradient id="radial-gradient-9" cx="-2536.67" cy="1816.22" fx="-2536.67" fy="1816.22" r="29.9" gradientTransform="translate(1370.74 1264.43) rotate(12.8) scale(.6 -.4)" gradientUnits="userSpaceOnUse">
      <stop offset=".5" stop-color="#a68f95"/>
      <stop offset="1" stop-color="#000"/>
    </radialGradient>
    <radialGradient id="radial-gradient-10" cx="-2741.87" cy="-899.13" fx="-2741.87" fy="-899.13" r="29.9" gradientTransform="translate(1462.59 1364.33) rotate(48.9) scale(.6 -.4)" gradientUnits="userSpaceOnUse">
      <stop offset=".5" stop-color="#a68f95"/>
      <stop offset="1" stop-color="#000"/>
    </radialGradient>
    <radialGradient id="radial-gradient-11" cx="-504.56" cy="4997.46" fx="-504.56" fy="4997.46" r="33" gradientTransform="translate(1648.91 1204.72) rotate(-49) scale(.6 -.4)" gradientUnits="userSpaceOnUse">
      <stop offset=".5" stop-color="#a68f95"/>
      <stop offset="1" stop-color="#000"/>
    </radialGradient>
    <radialGradient id="radial-gradient-12" cx="-2209.77" cy="1773.92" fx="-2209.77" fy="1773.92" r="29.9" gradientTransform="translate(1370.74 1264.43) rotate(12.8) scale(.6 -.4)" gradientUnits="userSpaceOnUse">
      <stop offset=".5" stop-color="#a68f95"/>
      <stop offset="1" stop-color="#000"/>
    </radialGradient>
    <radialGradient id="radial-gradient-13" cx="-486.51" cy="5299.31" fx="-486.51" fy="5299.31" r="29.9" gradientTransform="translate(1274.4 1308.44) rotate(-30) scale(.6 -.3)" gradientUnits="userSpaceOnUse">
      <stop offset=".5" stop-color="#a68f95"/>
      <stop offset="1" stop-color="#000"/>
    </radialGradient>
    <radialGradient id="radial-gradient-14" cx="-2521.6" cy="3989.93" fx="-2521.6" fy="3989.93" r="29.9" gradientTransform="translate(1306.3 1338.7) scale(.5 -.3)" gradientUnits="userSpaceOnUse">
      <stop offset=".5" stop-color="#a68f95"/>
      <stop offset="1" stop-color="#000"/>
    </radialGradient>
    <linearGradient id="linear-gradient-20" x1="-367.71" y1="230.9" x2="-367.71" y2="409.54" gradientTransform="translate(727.3 414) scale(1 -1)" gradientUnits="userSpaceOnUse">
      <stop offset="0" stop-color="#ac3b00"/>
      <stop offset="1" stop-color="#ffa900"/>
    </linearGradient>
    <linearGradient id="linear-gradient-21" x1="-323.96" y1="225.4" x2="-323.96" y2="413.99" gradientTransform="translate(727.3 414) scale(1 -1)" gradientUnits="userSpaceOnUse">
      <stop offset="0" stop-color="#ac3b00"/>
      <stop offset="1" stop-color="#ffa900"/>
    </linearGradient>
    <linearGradient id="linear-gradient-22" x1="-655.74" y1="67.5" x2="-655.74" y2="258.83" gradientTransform="translate(-241.4 414) rotate(-180)" gradientUnits="userSpaceOnUse">
      <stop offset="0" stop-color="#ac3b00"/>
      <stop offset="1" stop-color="#ffa900"/>
    </linearGradient>
    <linearGradient id="linear-gradient-23" x1="-700.31" y1="121.6" x2="-700.31" y2="221.3" gradientTransform="translate(-241.4 414) rotate(-180)" gradientUnits="userSpaceOnUse">
      <stop offset="0" stop-color="#ac3b00"/>
      <stop offset="1" stop-color="#ffa900"/>
    </linearGradient>
    <radialGradient id="radial-gradient-15" cx="514.7" cy="-606.2" fx="514.7" fy="-606.2" r="33.3" gradientTransform="translate(0 414) scale(1 -1)" gradientUnits="userSpaceOnUse">
      <stop offset=".5" stop-color="#a68f95"/>
      <stop offset="1" stop-color="#000"/>
    </radialGradient>
    <radialGradient id="radial-gradient-16" cx="-1101.79" cy="1511.95" fx="-1101.79" fy="1511.95" r="24.5" gradientTransform="translate(-711.44 273.71) rotate(144.9) scale(.9 -.4)" gradientUnits="userSpaceOnUse">
      <stop offset=".5" stop-color="#a68f95"/>
      <stop offset="1" stop-color="#000"/>
    </radialGradient>
    <radialGradient id="radial-gradient-17" cx="-1269.34" cy="1939.74" fx="-1269.34" fy="1939.74" r="36.7" gradientTransform="translate(-583.61 300.08) rotate(131) scale(.6 -.4)" gradientUnits="userSpaceOnUse">
      <stop offset=".5" stop-color="#a68f95"/>
      <stop offset="1" stop-color="#000"/>
    </radialGradient>
    <linearGradient id="linear-gradient-24" x1="-1656.71" y1="230.9" x2="-1656.71" y2="409.54" gradientTransform="translate(-1504.3 414) rotate(-180)" gradientUnits="userSpaceOnUse">
      <stop offset="0" stop-color="#ac3b00"/>
      <stop offset="1" stop-color="#ffa900"/>
    </linearGradient>
    <linearGradient id="linear-gradient-25" x1="-1612.96" y1="225.4" x2="-1612.96" y2="413.99" gradientTransform="translate(-1504.3 414) rotate(-180)" gradientUnits="userSpaceOnUse">
      <stop offset="0" stop-color="#ac3b00"/>
      <stop offset="1" stop-color="#ffa900"/>
    </linearGradient>
    <linearGradient id="linear-gradient-26" x1="633.16" y1="67.5" x2="633.16" y2="258.83" gradientTransform="translate(-535.5 414) scale(1 -1)" gradientUnits="userSpaceOnUse">
      <stop offset="0" stop-color="#ac3b00"/>
      <stop offset="1" stop-color="#ffa900"/>
    </linearGradient>
    <linearGradient id="linear-gradient-27" x1="588.59" y1="121.6" x2="588.59" y2="221.3" gradientTransform="translate(-535.5 414) scale(1 -1)" gradientUnits="userSpaceOnUse">
      <stop offset="0" stop-color="#ac3b00"/>
      <stop offset="1" stop-color="#ffa900"/>
    </linearGradient>
    <radialGradient id="radial-gradient-18" cx="777.09" cy="862.78" fx="777.09" fy="862.78" r="33.3" gradientTransform="translate(-469.91 130.32) rotate(-51.1) scale(.6 .4)" gradientUnits="userSpaceOnUse">
      <stop offset=".5" stop-color="#a68f95"/>
      <stop offset="1" stop-color="#000"/>
    </radialGradient>
    <radialGradient id="radial-gradient-19" cx="73.24" cy="-367.59" fx="73.24" fy="-367.59" r="24.5" gradientTransform="translate(-65.56 273.71) rotate(35.1) scale(.9 .4)" gradientUnits="userSpaceOnUse">
      <stop offset=".5" stop-color="#a68f95"/>
      <stop offset="1" stop-color="#000"/>
    </radialGradient>
    <radialGradient id="radial-gradient-20" cx="156.43" cy="-526.6" fx="156.43" fy="-526.6" r="36.7" gradientTransform="translate(-193.39 300.08) rotate(49) scale(.6 .4)" gradientUnits="userSpaceOnUse">
      <stop offset=".5" stop-color="#a68f95"/>
      <stop offset="1" stop-color="#000"/>
    </radialGradient>
    <linearGradient id="linear-gradient-28" x1="257" y1="23.8" x2="257" y2="366" gradientTransform="translate(0 414) scale(1 -1)" gradientUnits="userSpaceOnUse">
      <stop offset="0" stop-color="#8e3d00"/>
      <stop offset=".5" stop-color="#e67e00"/>
      <stop offset="1" stop-color="#ffa900"/>
    </linearGradient>
    <linearGradient id="linear-gradient-29" x1="257" y1="41.5" x2="257" y2="348.3" gradientTransform="translate(0 414) scale(1 -1)" gradientUnits="userSpaceOnUse">
      <stop offset="0" stop-color="#ffc800"/>
      <stop offset=".4" stop-color="#ffa200"/>
      <stop offset="1" stop-color="#932800"/>
    </linearGradient>
    <linearGradient id="linear-gradient-30" x1="-1015.3" y1="114.65" x2="-959.6" y2="114.65" gradientTransform="translate(-729.9 -69.6) rotate(-180) scale(1 -1)" gradientUnits="userSpaceOnUse">
      <stop offset="0" stop-color="#ffa900"/>
      <stop offset=".5" stop-color="#e67e00"/>
      <stop offset="1" stop-color="#8e3d00"/>
    </linearGradient>
    <radialGradient id="radial-gradient-21" cx="-968.15" cy="119.45" fx="-968.15" fy="119.45" r="25" gradientTransform="translate(-363.67 162) rotate(166.8) scale(.6 -.4)" gradientUnits="userSpaceOnUse">
      <stop offset=".5" stop-color="#a68f95"/>
      <stop offset="1" stop-color="#000"/>
    </radialGradient>
    <radialGradient id="radial-gradient-22" cx="-947.85" cy="278.75" fx="-947.85" fy="278.75" r="28.8" gradientTransform="translate(-358.77 71.1) rotate(166.8) scale(.6 -.4)" gradientUnits="userSpaceOnUse">
      <stop offset=".5" stop-color="#a68f95"/>
      <stop offset="1" stop-color="#000"/>
    </radialGradient>
    <linearGradient id="linear-gradient-31" x1="701.38" y1="-834.9" x2="701.38" y2="-677.17" gradientTransform="translate(1065.4 1090.8) rotate(-180) scale(1 -1)" gradientUnits="userSpaceOnUse">
      <stop offset="0" stop-color="#d95c00"/>
      <stop offset="1" stop-color="#ffa900"/>
    </linearGradient>
    <linearGradient id="linear-gradient-32" x1="912.48" y1="-828" x2="912.48" y2="-677.05" gradientTransform="translate(1065.4 1090.8) rotate(-180) scale(1 -1)" gradientUnits="userSpaceOnUse">
      <stop offset="0" stop-color="#d95c00"/>
      <stop offset="1" stop-color="#ffa900"/>
    </linearGradient>
    <linearGradient id="linear-gradient-33" x1="958.8" y1="-804.38" x2="984.8" y2="-804.38" gradientTransform="translate(1065.4 1090.8) rotate(-180) scale(1 -1)" gradientUnits="userSpaceOnUse">
      <stop offset="0" stop-color="#ffb200"/>
      <stop offset="1" stop-color="#ffa200"/>
    </linearGradient>
    <linearGradient id="linear-gradient-34" x1="628.7" y1="-804.29" x2="658.2" y2="-804.29" gradientTransform="translate(1065.4 1090.8) rotate(-180) scale(1 -1)" gradientUnits="userSpaceOnUse">
      <stop offset="0" stop-color="#ffa200"/>
      <stop offset="1" stop-color="#ffb200"/>
    </linearGradient>
    <radialGradient id="radial-gradient-23" cx="-2514.57" cy="1629.32" fx="-2514.57" fy="1629.32" r="31.8" gradientTransform="translate(1370.74 1264.43) rotate(12.8) scale(.6 -.4)" gradientUnits="userSpaceOnUse">
      <stop offset=".5" stop-color="#a68f95"/>
      <stop offset="1" stop-color="#000"/>
    </radialGradient>
    <radialGradient id="radial-gradient-24" cx="-601.66" cy="4892.86" fx="-601.66" fy="4892.86" r="35.1" gradientTransform="translate(1648.91 1204.72) rotate(-49) scale(.6 -.4)" gradientUnits="userSpaceOnUse">
      <stop offset=".5" stop-color="#a68f95"/>
      <stop offset="1" stop-color="#000"/>
    </radialGradient>
    <radialGradient id="radial-gradient-25" cx="-531.81" cy="5046.91" fx="-531.81" fy="5046.91" r="31.8" gradientTransform="translate(1274.4 1308.44) rotate(-30) scale(.6 -.3)" gradientUnits="userSpaceOnUse">
      <stop offset=".5" stop-color="#a68f95"/>
      <stop offset="1" stop-color="#000"/>
    </radialGradient>
    <linearGradient id="linear-gradient-35" x1="-1015.3" y1="20.75" x2="-959.6" y2="20.75" gradientTransform="translate(-729.9 414) rotate(-180)" gradientUnits="userSpaceOnUse">
      <stop offset="0" stop-color="#ffa900"/>
      <stop offset=".5" stop-color="#e67e00"/>
      <stop offset="1" stop-color="#8e3d00"/>
    </linearGradient>
    <radialGradient id="radial-gradient-26" cx="-33.95" cy="-1545.3" fx="-33.95" fy="-1545.3" r="20.1" gradientTransform="translate(-382.9 344.9) rotate(-90) scale(.8 -.4)" gradientUnits="userSpaceOnUse">
      <stop offset=".5" stop-color="#a68f95"/>
      <stop offset="1" stop-color="#000"/>
    </radialGradient>
  </defs>
  <g isolation="isolate">
    <g id="Layer_1-2" data-name="Layer 1">
      <g display="none">
        <g>
          <path d="M353.7,463s-4.7-5-12.8-12.1c-4.5-4-10.1-8.6-16.6-13.3-2.3-1.7-4.8-3.5-7.3-5.2-4.7-3.2-9.7-6.4-15.1-9.4-.3-.2-.7-.4-1-.6-13.2-7.4-28-13.8-43.7-17.1-16.7,3.5-32.5,10.5-46.2,18.6-6.7,3.9-12.9,8-18.6,12.1-13.6,9.8-23.7,19.2-28.6,23.9-2.1,2-3.1,3.2-3.1,3.2.7-7.1,1.3-14.4,1.8-21.7h0c.9-12.4,1.6-25,2.2-37.5,3.6-79.9.7-156.2.7-156.2l91.9,63.5,91.2-63,.7-.5v1.3c-.4,11.2-2.9,91,1.5,169.9.4,7.5.9,15,1.4,22.5.5,7.3,1.1,14.5,1.8,21.7l-.2-.1Z" fill="url(#linear-gradient)" stroke-width="0"/>
          <path d="M353.7,463s-43.7-46.7-96.5-57.7c-52.8,11-96.5,57.7-96.5,57.7.7-7.1,1.3-14.4,1.8-21.7h0s38.3-45,96.4-50.6c0,0,44.6,14,93,50.6.5,7.3,1.1,14.5,1.8,21.7Z" fill="url(#linear-gradient-2)" stroke-width="0"/>
          <path d="M353.7,463s-4.7-5-12.8-12.1c-1.1-22.1-2.6-51.1-3-58.9-.8-13-13.6-23.3-13.6-17.2v62.8c-2.3-1.7-4.8-3.5-7.3-5.2v-47.2c0-28.5-1.5-50.3-7.2-49.1-5.7,1.2-9.1,78.1-7.8,86.9-13.4-7.7-28.7-14.3-44.7-17.7-24.8,5.2-47.6,18.2-64.8,30.6,0,0-2.1-48.3-4.3-66.4-2.3-18.1-5.5-28.3-8.1-28s-15,117.2-16.1,118.3h0c-2.1,2-3.1,3.2-3.1,3.2.7-7.1,1.3-14.4,1.8-21.7h0c6.7-91.7,2.8-193.7,2.8-193.7l91.9,63.5,91.2-63,.6.9c-.4,12.3-3.4,106.8,2.9,192.4.5,7.3,1.1,14.5,1.8,21.7l-.2-.1Z" fill="#912774" isolation="isolate" mix-blend-mode="multiply" opacity=".5" stroke-width="0"/>
          <path d="M350.5,418.8s-6.5-16.9-12.2-20.9c-5.8-4-13.7.2-13.7.2l-.2,39.5c-2.3-1.7-4.8-3.5-7.3-5.2v-37c0-6.7-14.5-5.7-14.5-4.5,0,.9-1.1,22.1-1.5,31.5-13.2-7.4-28-13.8-43.7-17.1-16.7,3.5-32.5,10.5-46.2,18.6,0,0-1.2-17.9-3.5-22.1s-13.8-11.9-19.4-13c-4.6-.9-18.6,11-23.4,15.1,3.6-79.9.7-156.2.7-156.2l91.9,63.5,91.2-63,.7-.5v1.3c-.4,11.2-2.9,91,1.5,169.9l-.4-.1Z" fill="#e54136" isolation="isolate" mix-blend-mode="multiply" opacity=".5" stroke-width="0"/>
        </g>
        <g>
          <path d="M301.1,355.8c-3.3-17.9-18.1-39-26.9-43.8s-24.8-4.2-35.5-.8c-10.8,3.4-26,39.6-24.9,49.7,1,10.1,87.3-5,87.3-5v-.1Z" fill="url(#linear-gradient-3)" stroke-width="0"/>
          <path d="M45.6,204.5c2-3.9,40.1-4.5,60.6-13.6,9.8,3.6,12.3,21.1,14.8,32.1,1.1,5.1,1.6,8.7,1.6,8.7,0,0,5.4,12.5,13,26.9,5.5,10.4,12.1,21.8,18.7,30.4,5.4,7.1,10.8,12.2,15.5,13.4,10.1,2.4,34.9,3.7,55.4,4.3,17.2.6,31.4.7,31.4.7,0,0,16.1-.1,34.7-.8h.2c14.3-.5,30.2-1.3,41.4-2.6,4.3-.5,7.9-1,10.5-1.7,3.9-.9,9-6.7,14.6-15.1,4.5-6.8,9.3-15.4,14-24.6,1.5-2.9,3-5.9,4.5-8.9,3.3-6.7,6.5-13.5,9.5-20.1,10.9-23.9,12.7-43.7,12.7-43.7,0,0,15,3.4,28.7,5.5,15.1,2.3,38.8,5.9,40.9,9.9,1.8,3.5-5,33.7-49.7,52.2q-29.8,12.33,0,0c-5.7,2.3-11.9,4.5-18.9,6.4,1.5-.3,6.6-1.3,13.3-2.2,13-1.8,32.2-3,43.6,2,18.5,8.2-18.4,42.2-33.5,34.5-10.4-5.3-22.1-8.3-34.7-5.7-5.6,1.1-11.4,3.4-17.3,7.1-6.6,4.1-8.3,11.1-7.7,18.4,1.1,13.9,10.5,29.1,10.5,29.1,0,0-43,8.7-79.2-10.8,0,0-4.1-23.4-22.9-24.7-18.8-1.2,20,17,29.3,44.1,9.2,27.2-44.5,71.7-44.5,71.7,0,0-51.1-44.5-41.9-71.7,9.2-27.2,45.5-45.4,26.7-44.1-18.8,1.2-22.9,24.7-22.9,24.7-36.2,19.5-79.2,10.8-79.2,10.8,0,0,21.8-35.5,2.7-47.5-19.1-12-36.9-9.1-51.9-1.5-15,7.7-51.9-26.3-33.5-34.5,14.6-6.5,41.9-2.5,52.7-.6-45.5-10.2-65.8-54.8-63.8-58.7l.1.2Z" fill="url(#linear-gradient-4)" stroke-width="0"/>
          <path d="M51.7,271.4c9.6,12,64.2,3.1,64.2,3.1,0,0-13.9-10.1-23.9-13.7s-43.7-.5-40.3,10.5v.1Z" fill="#654c83" isolation="isolate" mix-blend-mode="multiply" opacity=".5" stroke-width="0"/>
          <path d="M460.1,270.7c-9.6,12-68.1,4.9-68.1,4.9,0,0,13.9-10.1,23.9-13.7s47.6-2.3,44.2,8.8h0Z" fill="#654c83" isolation="isolate" mix-blend-mode="multiply" opacity=".5" stroke-width="0"/>
          <path d="M139.4,347.2s30.3-7.8,35-10.2c4.8-2.4-10.1.4-25-15.3,0,0-3.5,16.7-10,25.5Z" fill="#654c83" isolation="isolate" mix-blend-mode="multiply" opacity=".5" stroke-width="0"/>
          <path d="M373.4,347.2s-30.3-7.8-35-10.2c-4.8-2.4,10.1.4,25-15.3,0,0,3.5,16.7,10,25.5Z" fill="#654c83" isolation="isolate" mix-blend-mode="multiply" opacity=".5" stroke-width="0"/>
          <path d="M257,335.3s20.4,11.8,23.5,24.9-23.5,40.6-23.5,40.6c0,0-22.2-26.1-21.2-39.4s21.2-26.1,21.2-26.1Z" fill="#654c83" isolation="isolate" mix-blend-mode="multiply" opacity=".5" stroke-width="0"/>
          <path d="M257.9,392.8c9.6-.7,20.8-19.1,18.4-32s-14.8-19-18.4-19-16.8,9.6-17.9,22.1c-1.1,12.5,9.4,29.6,17.9,28.9Z" fill="url(#linear-gradient-5)" stroke-width="0"/>
          <path d="M279,370.1c3.8-9.2-10.6,21.5-22,21.5s-16.2-22.5-18.6-24.3c-2.3-1.8.7,6.8.7,6.8,0,0,14.5,25,17.9,26.8,0,0,16.6-17.7,22-30.8Z" fill="#654c83" isolation="isolate" mix-blend-mode="multiply" opacity=".5" stroke-width="0"/>
          <path d="M274.3,354.7c-2,7.2-29.5,6.2-31.5,6-2.1-.3,7.9-18.1,15.2-18.9,7.3-.8,16.7,11.5,16.3,13v-.1Z" fill="#be2f55" isolation="isolate" mix-blend-mode="multiply" opacity=".2" stroke-width="0"/>
          <path d="M294.1,342.6c.8,11.3-15.2,5.8-23,1.4s-14.1-11.4-14.1-11.4c0,0-21.6,17.2-28.8,18.7-7.2,1.6-7-8.1-7-8.1,0,0,22.5-27,33.3-28.9,10.8-1.9,39.7,28.2,39.7,28.2l-.1.1Z" fill="#be2f55" isolation="isolate" mix-blend-mode="multiply" opacity=".2" stroke-width="0"/>
          <path d="M298.9,376.7c6.1-14.1-37.1,26.2-40.6,26.4-3.5.2-12.3-17.9-18.3-23.9-6.1-6-18.8,2.9-18.8,2.9,0,0,16.5,30,35.5,45.5,0,0,32.9-29.5,42.2-50.8v-.1Z" fill="#fff" isolation="isolate" mix-blend-mode="soft-light" opacity=".5" stroke-width="0"/>
          <path d="M116,274.5s-21.5,2.4-30,0-7.4-13.4-7.4-13.4c0,0,15-.6,17.9.7,2.8,1.4,13.2,10.3,19.6,12.7h-.1Z" fill="#654c83" isolation="isolate" mix-blend-mode="multiply" opacity=".5" stroke-width="0"/>
          <path d="M394.1,274.5s21.5,2.4,30,0,7.4-13.4,7.4-13.4c0,0-15-.6-17.9.7-2.8,1.4-13.2,10.3-19.6,12.7h.1Z" fill="#654c83" isolation="isolate" mix-blend-mode="multiply" opacity=".5" stroke-width="0"/>
          <path d="M98.8,294.6c10.1-2.9-11.1-15.2-28.5-16.9-17.4-1.8.3,17.3,8.2,20.5,7.9,3.3,14.6-2,20.3-3.6Z" fill="#fff" isolation="isolate" mix-blend-mode="soft-light" opacity=".5" stroke-width="0"/>
          <path d="M218.6,336.3s-4.8-8-18.3-6.1c-13.5,1.8-46.4,15.7-46.4,15.7,0,0,26.4,8,64.7-9.5v-.1Z" fill="#fff" isolation="isolate" mix-blend-mode="soft-light" opacity=".5" stroke-width="0"/>
          <path d="M415.3,294.6c-10.1-2.9,11.1-15.2,28.5-16.9,17.4-1.8-.3,17.3-8.2,20.5-7.9,3.3-14.6-2-20.3-3.6Z" fill="#fff" isolation="isolate" mix-blend-mode="soft-light" opacity=".5" stroke-width="0"/>
          <path d="M296.4,337.2s4.8-8,18.3-6.1c13.5,1.8,46.4,15.7,46.4,15.7,0,0-26.4,8-64.7-9.5v-.1Z" fill="#fff" isolation="isolate" mix-blend-mode="soft-light" opacity=".5" stroke-width="0"/>
          <path d="M257,335.3s-.1,5.5-7.5,11.4c-7.3,5.9-12,9.7-12,9.7,0,0,2.8-9.7,19.4-21l.1-.1Z" fill="#fff" stroke-width="0"/>
          <path d="M454.4,274.3s-3.5,5.9-17,6.4-26.1-3.2-26.1-3.2c0,0,25,.6,43.1-3.2h0Z" fill="#d4d8cc" stroke-width="0"/>
          <path d="M101.4,276.6s-15.5,3.4-26.2,3.4-17.1-4.8-17.1-4.8c0,0,10.2,4.3,43.4,1.4h-.1Z" fill="#d4d8cc" stroke-width="0"/>
          <path d="M247.3,401.8c2.6-.8-.4-11.9-7.4-12.8-6.9-.8.4,15,7.4,12.8Z" fill="#fff" stroke-width="0"/>
          <path d="M333.7,343.2c2.9,0-2.1-3.5-6.2-3.5s-2.2,3.7,6.2,3.5Z" fill="#fff" isolation="isolate" mix-blend-mode="soft-light" stroke-width="0"/>
          <path d="M172.5,345.8c7.3-7.5-5.3-5.3-11.9-2.6-6.6,2.7,9.1,5.5,11.9,2.6Z" fill="#fff" isolation="isolate" mix-blend-mode="soft-light" stroke-width="0"/>
        </g>
        <g>
          <g>
            <g>
              <g>
                <path d="M116.7,163.7c4.6-36,14.5-30.4,14.5-30.4,0,0-14.1-48.5,21.3-78.1,35.4-29.6,110.4-49.7,110.4-49.7,0,0-16.8-38.3-104.8,16.2-36.4,22.5-48.7,115.7-48.7,115.7l7.3,26.3Z" fill="#be2f55" isolation="isolate" mix-blend-mode="multiply" opacity=".7" stroke-width="0"/>
                <path d="M161.3,28.6c-53.4,16.1-40.9,74.3-35.9,91.4,4.9,17.1-44.5,5.4-44.5,5.4,0,0-32.8-9.6-43.7-32.8-20.4-43.5-3.4-50-3.4-50,0,0-8.9-37.2,36.6-43.2,0,0,15.2-91.4,94.8-11.6,6.5,6.5-50.6,10.3-43.9,35.2,6.7,24.9,16.1-54.6,69.2-58.4,19.1-1.4,51.5,15.8,51.5,15.8,0,0-38.5,21.6-80.7,48.1h0v.1Z" fill="#cac2ff" stroke-width="0"/>
                <path d="M126.9,129.4S66.4,60.2,68.7-13.6c2.5-78.9,96.6-2.3,96.5,3.3,0,5.6-23.3-2.4-41.7,23.1-18.6,25.8,3.3,116.5,3.3,116.5l.1.1Z" fill="url(#linear-gradient-6)" stroke-width="0"/>
                <path d="M118.4,129.3S43.8,76.1,27.7,24.8c-17.5-55.7,44.7-57.1,44.7-57.1,0,0-9.5,48.7,19.4,102.1,25.9,47.9,35.1,59.6,35.1,59.6h-8.5v-.1Z" fill="url(#linear-gradient-7)" stroke-width="0"/>
                <path d="M110.3,129.4s-48.5,3.3-73.1-36.8c-19.4-31.6-7.3-62.6-7.3-62.6,0,0,36.2,72,80.4,99.4Z" fill="url(#linear-gradient-8)" stroke-width="0"/>
                <path d="M126.9,129.4S87.9,64.3,95,2.5c7.1-61.8,59.3-23.8,61.1-22.3,1.8,1.6-21.8,12-34.8,35.2-12.9,23.2,5.5,113.9,5.5,113.9l.1.1Z" fill="#654c83" isolation="isolate" mix-blend-mode="multiply" opacity=".2" stroke-width="0"/>
                <path d="M121.3,127.7s-45.2-62.1-50.1-109.8c-4.9-47.7,1.1-50.3,1.1-50.3,0,0-5.7,35.3,9.4,80s39.6,80,39.6,80v.1Z" fill="#654c83" isolation="isolate" mix-blend-mode="multiply" opacity=".2" stroke-width="0"/>
                <path d="M110.3,129.4S39.2,102.4,25.8,55.2c0,0-4.3,68,84.5,74.2Z" fill="#654c83" isolation="isolate" mix-blend-mode="multiply" opacity=".2" stroke-width="0"/>
                <path d="M25.8-3.1s27.5,91.1,92.6,132.5c0,0-34.3-11.1-64.6-55.9C23.5,28.6,22,5.6,25.8-3.1Z" fill="#654c83" isolation="isolate" mix-blend-mode="multiply" opacity=".2" stroke-width="0"/>
                <path d="M121.6,73.3S139.1,4.6,180.8-9.1c41.7-13.7,55.1-5.5,55.1-5.5,0,0-66,33.7-89.6,54.8-23.6,21.1-24.7,33.1-24.7,33.1Z" fill="#654c83" isolation="isolate" mix-blend-mode="multiply" opacity=".2" stroke-width="0"/>
                <path d="M123.6,66.6S142.9,12.8,161.9,1.9c18.9-10.9,34.3-17,40.9-13.8,6.6,3.2-9.3,30.3-37.5,38.8-28.2,8.6-41.7,39.7-41.7,39.7Z" fill="#654c83" isolation="isolate" mix-blend-mode="multiply" opacity=".2" stroke-width="0"/>
                <path d="M156.1-19.8L140-.1s-13.8,3.8-19.3,18.2c-5.6,14.3-1.8,60.3-1.8,60.3,0,0-31-50.9-22.4-84.9,8.5-33.9,39.9-27.4,59.6-13.3h0Z" fill="#654c83" isolation="isolate" mix-blend-mode="multiply" opacity=".2" stroke-width="0"/>
                <path d="M110.3,129.4s-33.4-10.8-49.9-28.4-9.1,8.4-9.1,8.4c0,0,20,18.6,59,20Z" fill="#654c83" isolation="isolate" mix-blend-mode="multiply" opacity=".2" stroke-width="0"/>
                <path d="M138.3-30.2s-19.7-8.9-32.6,4.4c-13,13.3-29.9-6.4-30-10.1-.2-3.7,4.7-15.9,31.3-11.5,26.6,4.4,31.3,17.2,31.3,17.2Z" fill="#fff" isolation="isolate" mix-blend-mode="soft-light" opacity=".5" stroke-width="0"/>
                <path d="M62.6,85.5s-17.7,3.9-26.5-9.2c-8.7-13.1-5.3-39.8-5.3-39.8,0,0,16.3,37.8,31.7,49h.1Z" fill="#fff" isolation="isolate" mix-blend-mode="soft-light" opacity=".5" stroke-width="0"/>
                <path d="M216-26.3c11.4,9.3-14.5,4.6-39.9,19s-29.8,4.1-29.8,4.1c0,0,18.1-44.4,69.7-23.1Z" fill="#fff" isolation="isolate" mix-blend-mode="soft-light" opacity=".5" stroke-width="0"/>
                <path d="M198.7,278.8c-13.7-.3-26-1.8-37.3-5.1,0,0-.1,0-.4-.2-28.7-8.6-50.3-29.5-68.2-74.2C67.8,137.4,18.5,109.2,14.5,106h0c-3.6-3,30-16.7,73.3,0,48.6,18.8,20.9,52,27,96.9,6.2,44.9,59.8,73.5,83.9,75.9h0Z" fill="url(#linear-gradient-9)" stroke-width="0"/>
                <path d="M161,273.5c-28.7-8.6-50.3-29.5-68.2-74.2C67.8,137.4,18.5,109.2,14.5,106c2.3,1,61.2,25.3,78.3,38.2,17.5,13.2,4.6,55.7,19.5,85.9,14,28.3,44.9,41.8,48.7,43.4Z" fill="#654c83" isolation="isolate" mix-blend-mode="multiply" opacity=".2" stroke-width="0"/>
                <path d="M27.1,114.9s39.5,14.6,55.9,23.1,18.3,21,18.9,25.3c.6,4.2-11.8,11.2-18.5,8.1-6.7-3.1-21.4-34.2-56.3-56.4v-.1Z" fill="#654c83" isolation="isolate" mix-blend-mode="multiply" opacity=".2" stroke-width="0"/>
                <path d="M20.9,104.9c-2.4,3.2,24.6,12.5,50.4,26.8,25.8,14.4,39,8.8,39,8.8,0,0-.3-13.8-34.6-27.4-34.3-13.6-53.6-9.8-54.8-8.3v.1Z" fill="#fff" isolation="isolate" mix-blend-mode="soft-light" opacity=".5" stroke-width="0"/>
                <path d="M113.4,183s21.9,84.6,112.5,95.7c0,0-105.3,13-112.5-95.7h0Z" fill="#be2f55" isolation="isolate" mix-blend-mode="multiply" opacity=".5" stroke-width="0"/>
                <path d="M106.4,227.6s-.3,0-.8-.1c-4.3-.8-25.5-5.2-30.2-13.4l-.6-1.2c0-.2-.1-.5-.2-.7-.1-.4-.1-.7-.2-1-.5-7.8,5.5-12.2,6.5-18.8.4-2.9,0-6.1-2.3-10.2-7.4-13.8-19.5-20-20.3-10.7-.3,2.7.2,4.5.9,5.7,0,0,.1.2.2.2.2.4.5.7.8,1l.1.1c1.8,1.7,4.2,2.2,4.2,4.7,0,.6-.2,1.5-.6,2.5-2.2,5.5-10.9,14.6-25.1,4.2-7.2-5.2-12.5-14.5-14.9-24h0c-3.1-12.7-1-25.8,9-30.1,17.6-7.5,54.3,5,57.9,19.1,3.3,13,13.7,63.7,15.4,71.8,0,.3.1.5.2.7v.4h0v-.2Z" fill="#cac2ff" stroke-width="0"/>
                <path d="M63.9,185.5c-2.2,5.5-10.9,14.6-25.1,4.2-7.2-5.2-12.5-14.5-14.9-24,.8.8,12.7,13.1,24.2,17.3,9.5,3.5,14.2,2.8,15.7,2.5h.1Z" fill="#654c83" isolation="isolate" mix-blend-mode="multiply" opacity=".2" stroke-width="0"/>
                <path d="M80.9,192.3c.4-2.9,0-6.1-2.3-10.2-7.4-13.8-19.5-20-20.3-10.7-.3,2.7.2,4.5.9,5.7-2.6-3.4-9-12.7-8.7-22.6.3-12.4,25.9-9.4,36.3,3.8,10.3,13.2-5.9,34.1-5.9,34.1v-.1Z" fill="#654c83" isolation="isolate" mix-blend-mode="multiply" opacity=".2" stroke-width="0"/>
                <path d="M74.5,211.1c2.5-9.6,19.7-6.7,24.1-3.6,4.4,3.1,7.9,20.1,7.9,20.1,0,0-30.7-4-31.9-16.5h-.1Z" fill="#654c83" isolation="isolate" mix-blend-mode="multiply" opacity=".2" stroke-width="0"/>
                <path d="M23.1,148.9c-.6,9,6.7,26.1,18.3,30.9,11.6,4.8,3.7-21.6,10-30.9s28.9-1,30.3,0c1.4,1-13.1-15.5-34.1-15.5s-24.3,12.8-24.5,15.5Z" fill="#fff" isolation="isolate" mix-blend-mode="soft-light" opacity=".5" stroke-width="0"/>
                <path d="M80,197.2c-3.6,5.6,10.6,5.1,15.6,8.9,5,3.9,1.3-9.8-1.4-16.4-2.7-6.5-14.2,7.4-14.2,7.4v.1Z" fill="#fff" isolation="isolate" mix-blend-mode="soft-light" opacity=".5" stroke-width="0"/>
                <path d="M50.6,121.2s38.3,13.9,46.3,22.4c8,8.4,6.8,40.3,6.8,40.3,0,0-1.1-27.4-7.1-36.2-6.1-8.8-45.9-26.5-45.9-26.5h-.1Z" fill="#fff" stroke-width="0"/>
                <path d="M51.3,161s-3.8-9.4.6-13.9c4.4-4.5,21.4,0,29.4,4.4s8.3,12.3,8.3,12.3c0,0-4.1-10.4-14.9-13.9-10.8-3.6-28.6-6.3-23.4,11.2v-.1Z" fill="#fff" stroke-width="0"/>
                <path d="M23.9,165.7s19,16.2,26.2,18c7.1,1.8,12.3,2,12.3,2,0,0-17.5,3.6-38.4-20h-.1Z" fill="#d4d8cc" stroke-width="0"/>
                <path d="M28.8,5.6s11.8,28.2,26.7,49.6c16.2,23.2,30.2,46.6,30.2,46.6,0,0-36.2-37.8-57-96.2h.1Z" fill="#d4d8cc" stroke-width="0"/>
                <path d="M94.1,16.8s-.4-34.9,12-45.8c12.4-10.9,32.2-1.1,32.2-1.1,0,0-18.3-4.6-30.4,4.2-10.7,7.8-13.8,42.7-13.8,42.7Z" fill="#fff" stroke-width="0"/>
                <path d="M138.3,32.9s9.5-31.5,40.2-42.9c30.7-11.4,48.6-7.9,57.4-4.7-14.8-2.7-29.2-1.2-48.6,4.7-28.9,8.8-49,42.9-49,42.9h0Z" fill="#fff" stroke-width="0"/>
                <path d="M106.2-29c-2.9,5.7,11.9-3.3,11.9-3.3,0,0-9-2.4-11.9,3.3Z" fill="#fff9c7" stroke-width="0"/>
                <path d="M178.4-12.8c-5.9,5.4,9-.3,16.9-1,8-.6-10-5.3-16.9,1Z" fill="#fff9c7" stroke-width="0"/>
                <path d="M73.1,133.3c-1.1-7.5,16.8,1.1,19.7,5.8,2.9,4.7-19.7-5.8-19.7-5.8Z" fill="#fff9c7" stroke-width="0"/>
                <path d="M53.9,143.5c-6.1,4.4,9.9,2.8,12.7,3.4,2.7.5-8.4-6.5-12.7-3.4Z" fill="#fff9c7" stroke-width="0"/>
                <path d="M50.6,153.3c-1.1,5,5.6,16.3,6.7,17.2,1.1.9,0-4.6,9.8-1.8,9.7,2.8,10.6-8.5,5.2-16.2s-19.8-7.5-21.7.9v-.1Z" fill="#654c83" isolation="isolate" mix-blend-mode="multiply" opacity=".2" stroke-width="0"/>
                <path d="M116.7,137.4c-3.5,1.5-12.8,10.2-13.1,21.3-.3,11.1-.4,52.2,6.6,62s-.3-11.6,3.1-40.3,3.3-43,3.3-43h.1Z" fill="#be2f55" isolation="isolate" mix-blend-mode="multiply" opacity=".3" stroke-width="0"/>
                <path d="M123.6,66.6s17.8-38.4,21.9-48.6c4.1-10.2-6.1-17.1-6.8-15.8-.7,1.3-9.8,17.7-15.1,34.3-5.3,16.6,0,30.1,0,30.1Z" fill="#654c83" isolation="isolate" mix-blend-mode="multiply" opacity=".2" stroke-width="0"/>
                <path d="M85.7,57.5c-7.4-20.8,15.7,21.1,24.6,39.2,8.8,18.1,12.1,24.5,12.1,24.5,0,0-25.4-32-36.6-63.7h-.1Z" fill="#654c83" isolation="isolate" mix-blend-mode="multiply" opacity=".2" stroke-width="0"/>
                <path d="M73.6-30c-3.4,3.5-.5,35.2,2.1,41.2s14.5,3.8,15.5-1.3c1-5.1,7.3-25.8,7.3-25.8l-25-14.1h.1Z" fill="#654c83" isolation="isolate" mix-blend-mode="multiply" opacity=".2" stroke-width="0"/>
                <path d="M39.5,26.9c-2-12.4,19.6-18.5,24.4-21.3,4.8-2.8,18.2,56.6,24.8,64.2,6.6,7.5-22.3,9.7-49.2-42.9Z" fill="#654c83" isolation="isolate" mix-blend-mode="multiply" opacity=".2" stroke-width="0"/>
                <path d="M30.2-9.8c-1.6,5.6,4,22,4.9,24.7.9,2.7,24.6-8.1,27.5-15.8,2.8-7.7,4.4-29,4.4-29,0,0-32.7,5.4-36.8,20.2v-.1Z" fill="#fff" isolation="isolate" mix-blend-mode="soft-light" opacity=".5" stroke-width="0"/>
              </g>
              <g>
                <path d="M395.3,163.7c-4.6-36-17.1-30.4-17.1-30.4,0,0,16.7-48.5-18.7-78.1C324,25.6,249,5.5,249,5.5c0,0,16.8-38.3,104.8,16.2,36.4,22.5,48.7,115.7,48.7,115.7l-7.3,26.3h.1Z" fill="#be2f55" isolation="isolate" mix-blend-mode="multiply" opacity=".7" stroke-width="0"/>
                <path d="M350.7,28.6c53.4,16.1,40.9,74.3,35.9,91.4-4.9,17.1,44.5,5.4,44.5,5.4,0,0,32.8-9.6,43.7-32.8,20.4-43.5,3.4-50,3.4-50,0,0,8.9-37.2-36.6-43.2,0,0-15.2-91.4-94.8-11.6-6.5,6.5,50.6,10.3,43.9,35.2-6.7,24.9-16.1-54.6-69.2-58.4-19.1-1.4-51.5,15.8-51.5,15.8,0,0,38.5,21.6,80.7,48.1h0v.1Z" fill="#cac2ff" stroke-width="0"/>
                <path d="M385.1,129.4s60.5-69.2,58.1-142.9c-2.5-78.9-96.6-2.3-96.5,3.3,0,5.6,23.3-2.4,41.7,23.1,18.6,25.8-3.3,116.5-3.3,116.5h0Z" fill="url(#linear-gradient-10)" stroke-width="0"/>
                <path d="M393.6,129.3s74.6-53.3,90.7-104.6c17.5-55.7-44.7-57.1-44.7-57.1,0,0,9.5,48.7-19.4,102.1-25.9,47.9-35.1,59.6-35.1,59.6h8.5Z" fill="url(#linear-gradient-11)" stroke-width="0"/>
                <path d="M401.7,129.4s48.5,3.3,73.1-36.8c19.4-31.6,7.3-62.6,7.3-62.6,0,0-36.2,72-80.4,99.4Z" fill="url(#linear-gradient-12)" stroke-width="0"/>
                <path d="M385.1,129.4s39-65.1,31.8-126.9c-7.1-61.8-59.3-23.8-61.1-22.3-1.8,1.6,21.8,12,34.8,35.2,12.9,23.2-5.5,113.9-5.5,113.9v.1Z" fill="#654c83" isolation="isolate" mix-blend-mode="multiply" opacity=".2" stroke-width="0"/>
                <path d="M390.7,127.7s45.2-62.1,50.1-109.8c4.9-47.7-1.1-50.3-1.1-50.3,0,0,5.7,35.3-9.4,80s-39.6,80-39.6,80v.1Z" fill="#654c83" isolation="isolate" mix-blend-mode="multiply" opacity=".2" stroke-width="0"/>
                <path d="M401.7,129.4s71.1-27,84.5-74.2c0,0,4.3,68-84.5,74.2Z" fill="#654c83" isolation="isolate" mix-blend-mode="multiply" opacity=".2" stroke-width="0"/>
                <path d="M486.2-3.1s-27.5,91.1-92.6,132.5c0,0,34.3-11.1,64.6-55.9,30.3-44.8,31.7-67.8,28-76.6Z" fill="#654c83" isolation="isolate" mix-blend-mode="multiply" opacity=".2" stroke-width="0"/>
                <path d="M390.4,73.3s-17.5-68.7-59.2-82.4-55.1-5.5-55.1-5.5c0,0,66,33.7,89.6,54.8,23.6,21.1,24.7,33.1,24.7,33.1Z" fill="#654c83" isolation="isolate" mix-blend-mode="multiply" opacity=".2" stroke-width="0"/>
                <path d="M388.4,66.6S369.1,12.8,350.1,1.9c-18.9-10.9-34.3-17-40.9-13.8s9.3,30.3,37.5,38.8c28.2,8.6,41.7,39.7,41.7,39.7h0Z" fill="#654c83" isolation="isolate" mix-blend-mode="multiply" opacity=".2" stroke-width="0"/>
                <path d="M355.9-19.8L372-.1s13.8,3.8,19.3,18.2c5.6,14.3,1.8,60.3,1.8,60.3,0,0,31-50.9,22.4-84.9-8.5-33.9-39.9-27.4-59.6-13.3h0Z" fill="#654c83" isolation="isolate" mix-blend-mode="multiply" opacity=".2" stroke-width="0"/>
                <path d="M401.7,129.4s33.4-10.8,49.9-28.4,9.1,8.4,9.1,8.4c0,0-20,18.6-59,20Z" fill="#654c83" isolation="isolate" mix-blend-mode="multiply" opacity=".2" stroke-width="0"/>
                <path d="M373.7-30.2s19.7-8.9,32.6,4.4c13,13.3,29.9-6.4,30-10.1.2-3.7-4.7-15.9-31.3-11.5-26.6,4.4-31.3,17.2-31.3,17.2h0Z" fill="#fff" isolation="isolate" mix-blend-mode="soft-light" opacity=".5" stroke-width="0"/>
                <path d="M449.4,85.5s17.7,3.9,26.5-9.2c8.7-13.1,5.3-39.8,5.3-39.8,0,0-16.3,37.8-31.7,49h-.1Z" fill="#fff" isolation="isolate" mix-blend-mode="soft-light" opacity=".5" stroke-width="0"/>
                <path d="M296-26.3c-11.4,9.3,14.5,4.6,39.9,19s29.8,4.1,29.8,4.1c0,0-18.1-44.4-69.7-23.1Z" fill="#fff" isolation="isolate" mix-blend-mode="soft-light" opacity=".5" stroke-width="0"/>
                <path d="M313.3,278.8c13.7-.3,26-1.8,37.3-5.1,0,0,.1,0,.4-.2,28.7-8.6,50.3-29.5,68.2-74.2,24.9-61.9,74.3-90.1,78.3-93.4h0c3.6-3-30-16.7-73.3,0-48.6,18.8-20.9,52-27,96.9-6.2,44.9-59.8,73.5-83.9,75.9v.1Z" fill="url(#linear-gradient-13)" stroke-width="0"/>
                <path d="M351,273.5c28.7-8.6,50.3-29.5,68.2-74.2,24.9-61.9,74.3-90.1,78.3-93.4-2.3,1-61.2,25.3-78.3,38.2-17.5,13.2-4.6,55.7-19.5,85.9-14,28.3-44.9,41.8-48.7,43.4v.1Z" fill="#654c83" isolation="isolate" mix-blend-mode="multiply" opacity=".2" stroke-width="0"/>
                <path d="M484.9,114.9s-39.5,14.6-55.9,23.1-18.3,21-18.9,25.3c-.6,4.2,11.8,11.2,18.5,8.1,6.7-3.1,21.4-34.2,56.3-56.4v-.1Z" fill="#654c83" isolation="isolate" mix-blend-mode="multiply" opacity=".2" stroke-width="0"/>
                <path d="M491.1,104.9c2.4,3.2-24.6,12.5-50.4,26.8-25.8,14.4-39,8.8-39,8.8,0,0,.3-13.8,34.6-27.4,34.3-13.6,53.6-9.8,54.8-8.3v.1Z" fill="#fff" isolation="isolate" mix-blend-mode="soft-light" opacity=".5" stroke-width="0"/>
                <path d="M398.6,183s-21.9,84.6-112.5,95.7c0,0,105.3,13,112.5-95.7h0Z" fill="#be2f55" isolation="isolate" mix-blend-mode="multiply" opacity=".5" stroke-width="0"/>
                <path d="M405.6,227.6s.3,0,.8-.1c4.3-.8,25.5-5.2,30.2-13.4.2-.4.4-.8.6-1.2,0-.2.1-.5.2-.7.1-.4.1-.7.2-1,.5-7.8-5.5-12.2-6.5-18.8-.4-2.9,0-6.1,2.3-10.2,7.4-13.8,19.5-20,20.3-10.7.3,2.7-.2,4.5-.9,5.7,0,0-.1.2-.2.2-.2.4-.5.7-.8,1l-.1.1c-1.8,1.7-4.2,2.2-4.2,4.7,0,.6.2,1.5.6,2.5,2.2,5.5,10.9,14.6,25.1,4.2,7.2-5.2,12.5-14.5,14.9-24h0c3.1-12.7,1-25.8-9-30.1-17.6-7.5-54.3,5-57.9,19.1-3.3,13-13.7,63.7-15.4,71.8,0,.3-.1.5-.2.7v.4h0v-.2Z" fill="#cac2ff" stroke-width="0"/>
                <path d="M448.1,185.5c2.2,5.5,10.9,14.6,25.1,4.2,7.2-5.2,12.5-14.5,14.9-24-.8.8-12.7,13.1-24.2,17.3-9.5,3.5-14.2,2.8-15.7,2.5h-.1Z" fill="#654c83" isolation="isolate" mix-blend-mode="multiply" opacity=".2" stroke-width="0"/>
                <path d="M431.1,192.3c-.4-2.9,0-6.1,2.3-10.2,7.4-13.8,19.5-20,20.3-10.7.3,2.7-.2,4.5-.9,5.7,2.6-3.4,9-12.7,8.7-22.6-.3-12.4-25.9-9.4-36.3,3.8-10.3,13.2,5.9,34.1,5.9,34.1v-.1Z" fill="#654c83" isolation="isolate" mix-blend-mode="multiply" opacity=".2" stroke-width="0"/>
                <path d="M437.5,211.1c-2.5-9.6-19.7-6.7-24.1-3.6-4.4,3.1-7.9,20.1-7.9,20.1,0,0,30.7-4,31.9-16.5h.1Z" fill="#654c83" isolation="isolate" mix-blend-mode="multiply" opacity=".2" stroke-width="0"/>
                <path d="M488.9,148.9c.6,9-6.7,26.1-18.3,30.9-11.6,4.8-3.7-21.6-10-30.9-6.3-9.3-28.9-1-30.3,0s13.1-15.5,34.1-15.5,24.3,12.8,24.5,15.5h0Z" fill="#fff" isolation="isolate" mix-blend-mode="soft-light" opacity=".5" stroke-width="0"/>
                <path d="M432,197.2c3.6,5.6-10.6,5.1-15.6,8.9-5,3.9-1.3-9.8,1.4-16.4,2.7-6.5,14.2,7.4,14.2,7.4v.1Z" fill="#fff" isolation="isolate" mix-blend-mode="soft-light" opacity=".5" stroke-width="0"/>
                <path d="M461.4,121.2s-38.3,13.9-46.3,22.4c-8,8.4-6.8,40.3-6.8,40.3,0,0,1.1-27.4,7.1-36.2,6.1-8.8,45.9-26.5,45.9-26.5h.1Z" fill="#fff" stroke-width="0"/>
                <path d="M460.7,161s3.8-9.4-.6-13.9-21.4,0-29.4,4.4-8.3,12.3-8.3,12.3c0,0,4.1-10.4,14.9-13.9,10.8-3.6,28.6-6.3,23.4,11.2v-.1Z" fill="#fff" stroke-width="0"/>
                <path d="M488.1,165.7s-19,16.2-26.2,18c-7.1,1.8-12.3,2-12.3,2,0,0,17.5,3.6,38.4-20h.1Z" fill="#d4d8cc" stroke-width="0"/>
                <path d="M483.2,5.6s-11.8,28.2-26.7,49.6c-16.2,23.2-30.2,46.6-30.2,46.6,0,0,36.2-37.8,57-96.2h-.1Z" fill="#d4d8cc" stroke-width="0"/>
                <path d="M417.9,16.8s.4-34.9-12-45.8c-12.4-10.9-32.2-1.1-32.2-1.1,0,0,18.3-4.6,30.4,4.2,10.7,7.8,13.8,42.7,13.8,42.7h0Z" fill="#fff" stroke-width="0"/>
                <path d="M373.7,32.9s-9.5-31.5-40.2-42.9c-30.7-11.4-48.6-7.9-57.4-4.7,14.8-2.7,29.2-1.2,48.6,4.7,28.9,8.8,49,42.9,49,42.9Z" fill="#fff" stroke-width="0"/>
                <path d="M405.8-29c2.9,5.7-11.9-3.3-11.9-3.3,0,0,9-2.4,11.9,3.3Z" fill="#fff9c7" stroke-width="0"/>
                <path d="M333.6-12.8c5.9,5.4-9-.3-16.9-1-8-.6,10-5.3,16.9,1Z" fill="#fff9c7" stroke-width="0"/>
                <path d="M438.9,133.3c1.1-7.5-16.8,1.1-19.7,5.8-2.9,4.7,19.7-5.8,19.7-5.8Z" fill="#fff9c7" stroke-width="0"/>
                <path d="M458.1,143.5c6.1,4.4-9.9,2.8-12.7,3.4-2.7.5,8.4-6.5,12.7-3.4Z" fill="#fff9c7" stroke-width="0"/>
                <path d="M461.4,153.3c1.1,5-5.6,16.3-6.7,17.2s0-4.6-9.8-1.8c-9.7,2.8-10.6-8.5-5.2-16.2s19.8-7.5,21.7.9v-.1Z" fill="#654c83" isolation="isolate" mix-blend-mode="multiply" opacity=".2" stroke-width="0"/>
                <path d="M395.3,137.4c3.5,1.5,12.8,10.2,13.1,21.3.3,11.1.4,52.2-6.6,62s.3-11.6-3.1-40.3-3.3-43-3.3-43h-.1Z" fill="#be2f55" isolation="isolate" mix-blend-mode="multiply" opacity=".3" stroke-width="0"/>
                <path d="M388.4,66.6s-17.8-38.4-21.9-48.6c-4.1-10.2,6.1-17.1,6.8-15.8.7,1.3,9.8,17.7,15.1,34.3,5.3,16.6,0,30.1,0,30.1Z" fill="#654c83" isolation="isolate" mix-blend-mode="multiply" opacity=".2" stroke-width="0"/>
                <path d="M426.3,57.5c7.4-20.8-15.7,21.1-24.6,39.2-8.8,18.1-12.1,24.5-12.1,24.5,0,0,25.4-32,36.6-63.7h.1Z" fill="#654c83" isolation="isolate" mix-blend-mode="multiply" opacity=".2" stroke-width="0"/>
                <path d="M438.4-30c3.4,3.5.5,35.2-2.1,41.2s-14.5,3.8-15.5-1.3c-1-5.1-7.3-25.8-7.3-25.8l25-14.1h-.1Z" fill="#654c83" isolation="isolate" mix-blend-mode="multiply" opacity=".2" stroke-width="0"/>
                <path d="M472.5,26.9c2-12.4-19.6-18.5-24.4-21.3-4.8-2.8-18.2,56.6-24.8,64.2-6.6,7.5,22.3,9.7,49.2-42.9h0Z" fill="#654c83" isolation="isolate" mix-blend-mode="multiply" opacity=".2" stroke-width="0"/>
                <path d="M481.8-9.8c1.6,5.6-4,22-4.9,24.7-.9,2.7-24.6-8.1-27.5-15.8-2.8-7.7-4.4-29-4.4-29,0,0,32.7,5.4,36.8,20.2v-.1Z" fill="#fff" isolation="isolate" mix-blend-mode="soft-light" opacity=".5" stroke-width="0"/>
              </g>
              <g>
                <path d="M119.7,113.3c-3.9-1.2-9.3,6.4-6.5,12.7,2.7,6.2,15.3-10,6.5-12.7Z" fill="#be2f55" isolation="isolate" mix-blend-mode="multiply" opacity=".5" stroke-width="0"/>
                <path d="M113.6,118.6c-.4,4.6,5.5,4.9,7.7,2.5s2.2-7.8-2.1-7.9c-4.3-.1-5.6,5.5-5.6,5.5v-.1Z" fill="#be2f55" isolation="isolate" mix-blend-mode="multiply" opacity=".5" stroke-width="0"/>
                <path d="M112.4,122.6c1.3-2.8,4.7.6,6.8.8,2.1.2-1.5,4.7-3.9,4-2.4-.7-2.8-4.8-2.8-4.8h-.1Z" fill="#ffd134" stroke-width="0"/>
              </g>
              <path d="M449.4-18.3c-9.8.2-4.6,16.5,3.9,22.3,8.5,5.8,12.3-22.6-3.9-22.3Z" fill="#fff9c7" stroke-width="0"/>
              <path d="M101.2-22.4c-5,3.6-3.7-14.1,6.5-18.2,10.3-4.1,17.9,6.9,17.4,8.6-.4,1.7-7.2-2.3-23.9,9.6Z" fill="#fff9c7" stroke-width="0"/>
              <path d="M443.7-20.5c5-4,13.9-1.1,20.1,6.4,6.1,7.6,7,17,2.1,21-5,4-13.9,1.1-20.1-6.4-6.1-7.6-7-17-2.1-21Z" fill="url(#radial-gradient)" isolation="isolate" mix-blend-mode="color-dodge" stroke-width="0"/>
              <path d="M30,105.6c2.2-6.7,12.2-9.4,22.4-6.1s16.7,11.5,14.5,18.2c-2.2,6.7-12.2,9.4-22.4,6.1s-16.7-11.5-14.5-18.2Z" fill="url(#radial-gradient-2)" isolation="isolate" mix-blend-mode="color-dodge" stroke-width="0"/>
              <path d="M413.4,142.1c-2.7-3.8,2.6-12.2,11.8-18.7,9.2-6.5,18.9-8.7,21.6-4.8,2.7,3.8-2.6,12.2-11.8,18.7-9.2,6.5-18.9,8.7-21.6,4.8Z" fill="url(#radial-gradient-3)" isolation="isolate" mix-blend-mode="color-dodge" stroke-width="0"/>
              <path d="M41-18.2c7.6-1.1,15,6.5,16.6,17.1s-3.2,20.1-10.8,21.3c-7.6,1.1-15-6.5-16.6-17.1s3.2-20.1,10.8-21.3Z" fill="url(#radial-gradient-4)" isolation="isolate" mix-blend-mode="color-dodge" stroke-width="0"/>
              <path d="M459.9,180.4c-5.3-4.6-3.9-14.9,3.1-23s17.1-10.9,22.4-6.3c5.3,4.6,3.9,14.9-3.1,23s-17.1,10.9-22.4,6.3Z" fill="url(#radial-gradient-5)" isolation="isolate" mix-blend-mode="color-dodge" stroke-width="0"/>
              <path d="M83.5-23.4c-3.2-5.5,1-14,9.5-18.8,8.4-4.9,17.8-4.3,21,1.2s-1,14-9.5,18.8c-8.4,4.9-17.8,4.3-21-1.2Z" fill="url(#radial-gradient-6)" isolation="isolate" mix-blend-mode="color-dodge" stroke-width="0"/>
            </g>
            <g>
              <path d="M254.2-3.8c-89,0-161.1,72.1-161.1,161.1s72.1,161.1,161.1,161.1,161.1-72.1,161.1-161.1S343.1-3.8,254.2-3.8ZM254.2,281c-68.4,0-123.8-55.4-123.8-123.8s55.4-123.8,123.8-123.8,123.7,55.4,123.7,123.8-55.4,123.8-123.7,123.8Z" fill="url(#linear-gradient-14)" stroke-width="0"/>
              <path d="M254.2,12.9c-79.7,0-144.4,64.6-144.4,144.4s64.6,144.4,144.4,144.4,144.4-64.6,144.4-144.4S333.9,12.9,254.2,12.9ZM254.2,281c-68.4,0-123.8-55.4-123.8-123.8s55.4-123.8,123.8-123.8,123.7,55.4,123.7,123.8-55.4,123.8-123.7,123.8Z" fill="#654c83" isolation="isolate" mix-blend-mode="multiply" opacity=".2" stroke-width="0"/>
              <path d="M114,122.8s54.2-89.3,140.2-89.3,141.4,94.4,141.4,94.4c0,0-27-115-141.4-115S114,122.8,114,122.8Z" fill="#654c83" isolation="isolate" mix-blend-mode="multiply" opacity=".2" stroke-width="0"/>
              <path d="M124.4,220.5s67,60.5,129.8,60.5,127.2-55.4,127.2-55.4c0,0-42.3,76-127.2,76s-129.8-81.1-129.8-81.1h0Z" fill="#fff" isolation="isolate" mix-blend-mode="soft-light" stroke-width="0"/>
              <path d="M258.6,301.5s12-17,39.2-28.2,54.6-12.3,54.6-12.3c0,0-26.3,36.6-93.8,40.5h0Z" fill="#fff" isolation="isolate" mix-blend-mode="soft-light" stroke-width="0"/>
              <path d="M121.1,248s67.3,58.1,140.6,53.3c73.3-4.7,131.3-62.4,131.3-62.4,0,0-40.7,79.3-136,79.3s-136-70.3-136-70.3l.1.1Z" fill="#654c83" isolation="isolate" mix-blend-mode="multiply" opacity=".2" stroke-width="0"/>
              <path d="M159.8,263.1c-4.3-15.6,22-1.8,24.1,8.8,2.1,10.6-21.4.8-24.1-8.8Z" fill="#fff" stroke-width="0"/>
              <path d="M106.1,93.9S161.9,12.9,254.2,12.9s137.8,103.3,141.4,106.4c3.5,3.1-14.6-113.2-128.5-121.8C153.2-11.2,106.1,93.9,106.1,93.9Z" fill="#fff" isolation="isolate" mix-blend-mode="soft-light" stroke-width="0"/>
              <path d="M193.2,14.8c-11.2,11.2,9.4,10.2,19.3,1.9,9.9-8.4-10.8-10.3-19.3-1.9Z" fill="#fff" stroke-width="0"/>
              <path d="M97.3,120.7c8.8-26.8,13,56.1,14.4,78.1s5.4,43.1,5.4,43.1c0,0-36.5-53.9-19.8-121.1v-.1Z" fill="#654c83" isolation="isolate" mix-blend-mode="multiply" opacity=".2" stroke-width="0"/>
            </g>
            <g>
              <path d="M280.9-1.6s-22.6-24.6-25.7-24.6-26.7,24.1-26.7,24.1l26.7,14.9,25.8-14.4h-.1Z" fill="url(#linear-gradient-15)" stroke-width="0"/>
              <path d="M254.7,11.3c-2.3.7-1.5-33.2,0-35.2,1.5-1.9,22.2,18.7,23.1,20,.9,1.3-17.9,13.6-23.1,15.1v.1Z" fill="#fff" isolation="isolate" mix-blend-mode="soft-light" stroke-width="0"/>
              <path d="M231.7-3.8c-1.4,1.9,19.3,14.3,20.3,14.9,1,.6,1.4-33.8,1.3-35,0-1.2-19.7,17.7-21.6,20.1Z" fill="#654c83" isolation="isolate" mix-blend-mode="multiply" opacity=".2" stroke-width="0"/>
              <path d="M254.4,0c-1.1-3.3-1.1-17.5,0-20.7,1.1-3.1,2.5,12.8,2.6,16.6,0,3.8-1.9,6.3-2.6,4.1Z" fill="#fff" stroke-width="0"/>
              <path d="M231.6-5.2s4.6,3.3,11.3-1.1c6.7-4.4,9.2-18.1,9.2-18.1l-20.6,19.2h.1Z" fill="#fff" isolation="isolate" mix-blend-mode="soft-light" stroke-width="0"/>
            </g>
          </g>
          <path d="M218.5,27.7c-1.2-4.9,3.7-10.3,10.7-11.9,7.1-1.7,13.8,1,14.9,5.9s-3.7,10.3-10.7,11.9c-7.1,1.7-13.8-1-14.9-5.9Z" fill="url(#radial-gradient-7)" isolation="isolate" mix-blend-mode="color-dodge" opacity=".5" stroke-width="0"/>
          <path d="M187.3,19c-1.3-5.4,5.3-11.5,14.7-13.7,9.4-2.2,18,.4,19.2,5.7,1.3,5.4-5.3,11.5-14.7,13.7s-18-.4-19.2-5.7Z" fill="url(#radial-gradient-8)" isolation="isolate" mix-blend-mode="color-dodge" stroke-width="0"/>
        </g>
        <g>
          <path d="M271,312.7s3.9.1,9.6.1c12.4,0,33.5-.2,44.8-2.5,1.6-.3,3.2-.8,4.6-1.3,13.8-4.7,21.9-16.4,21.9-16.4-1-.1-2-.1-3.1-.1-1.5,0-3,.2-4.4.5h-.1c-12.3,2.6-24.2,12.7-24.2,12.7,0-.1,0-25.5,20.3-35.6,8.9-4.5,20.7-7.6,32-11.4,14.6-4.9,28.5-10.9,34.8-22.1,4.6-8.1-13.8-11.6-12.1-17.9.3-1,1.3-27,1.3-27,0,0,47.1,20.5,41.2,40.5-3.2,10.8-13.5,21.5-24.2,30.3q-7.13,5.87,0,0c-1.8,1.5-3.6,2.9-5.4,4.2-11.8,8.8-22.5,14.7-22.5,14.7,7.7-.4,14,5.9,14,5.9-5.3,2.2-10.4,5.8-15.4,10.2-8.5,7.5-16.5,17.3-24.3,25.6-10.6,11.2-21.1,19.7-32.4,16.5-24.6-7-34.3-24.2-56.4-26.9h0Z" fill="url(#linear-gradient-16)" stroke-width="0"/>
          <path d="M109.5,198.3s3.1,13.4,3.1,20.4c0,6.6-16.7,9.8-12.1,17.9,6.3,11.3,20.5,17.3,35.2,22.2,11.2,3.8,22.8,6.9,31.5,11.3,20.3,10.1,20.3,35.4,20.3,35.6,0,0-17.4-14.7-31.8-13.1,0,0,13.2,16.4,30,18.3,11.3,1.2,56.4,1.3,56.4,1.3-22,2.7-37.2,20.4-61.8,27.4s-44.9-41.2-72.1-52.2c0,0,6.4-6.4,14-6,0,0-44.8-24.5-52.1-49.2-5.9-19.9,39.3-33.9,39.3-33.9h.1Z" fill="url(#linear-gradient-17)" stroke-width="0"/>
          <path d="M320.1,305.7c0-.1,0-25.5,20.3-35.6,8.9-4.5,20.7-7.6,32-11.4,14.6-4.9,28.5-10.9,34.8-22.1,4.6-8.1-13.8-11.6-12.1-17.9.3-1,.4-5.4.6-10.7.4,1,3.7,2.8,7.1,4.5,5.5,2.8,28.6,18.2,17.8,28.6-7.5,7.2-32.2,17.5-52.5,26.5-9,4-17.1,7.8-22.5,10.9-17.4,10.2-24,20.7-24,20.7,9.1-3.4,16.6-5.3,22.7-6.3-12.3,2.6-24.2,12.7-24.2,12.7v.1Z" fill="#654c83" isolation="isolate" mix-blend-mode="multiply" opacity=".5" stroke-width="0"/>
          <path d="M280.6,312.8c-.5-.3-.7-.4-.7-.4,0,0,4.2-.2,9.7-.9h.1c13.9-.5,29.4-1.3,40.3-2.6,13.7-4.7,21.9-16.4,21.9-16.4-1-.1-2-.1-3.1-.1,2.1-.2,3.9-.2,5.5-.2,7.7.1,11.1,1.9,11.1,1.9,0,0-22.7,36.8-36,37.2-12.3.4-43.7-15.9-48.9-18.6l.1.1Z" fill="#654c83" isolation="isolate" mix-blend-mode="multiply" opacity=".5" stroke-width="0"/>
          <path d="M156.4,293.9c5.3,7.1,10.5,12.2,15.1,13.4,9.8,2.4,33.9,3.7,53.9,4.3,4.3.7,7.3,1.1,7.3,1.1,0,0-47,22.7-56.8,16.2-8.5-5.7-17.4-29-19.5-34.9v-.1Z" fill="#654c83" isolation="isolate" mix-blend-mode="multiply" opacity=".5" stroke-width="0"/>
          <path d="M110.8,204.5h0c1.2,5.2,1.5,13,1.9,14.2,1.7,6.3-16.7,9.8-12.1,17.9,6.3,11.3,20.5,17.3,35.2,22.2.7,1.6,1.5,3.1,2.4,4.7-23-11-51.3-25.2-51.2-31.8.2-9.1,23.8-27.3,23.8-27.3v.1Z" fill="#654c83" isolation="isolate" mix-blend-mode="multiply" opacity=".5" stroke-width="0"/>
          <path d="M122.4,281.5s18.2,2.1,29.6,8.5c0,0-20.4-1.5-29.6-.8-9.2.7-14-1.7-14-1.7,0,0,7.5-7,14-6Z" fill="#654c83" isolation="isolate" mix-blend-mode="multiply" opacity=".5" stroke-width="0"/>
          <path d="M399.4,287.4s-19.1-2.6-43.9-.7c0,0,20.3-5.5,29.9-5.3,9.5.2,14,6,14,6Z" fill="#654c83" isolation="isolate" mix-blend-mode="multiply" opacity=".5" stroke-width="0"/>
          <path d="M191.7,311.8s-11.4,15.1-16.5,14.8c-5.1-.2-19.3-34.1-19.3-34.1,0,0,20,15.5,35.8,19.3h0Z" fill="#654c83" isolation="isolate" mix-blend-mode="multiply" opacity=".5" stroke-width="0"/>
          <path d="M365.5,294.2s-18,27.2-27.6,30.7c-9.5,3.5-24.2-13-24.2-13,0,0,25.8-2.4,40.4-19.3,0,0,8,.1,11.3,1.6h.1Z" fill="#654c83" isolation="isolate" mix-blend-mode="multiply" opacity=".5" stroke-width="0"/>
          <path d="M395.2,221.7s22.8,8.4,21.4,15.8c-1.5,7.4-30.5,15.8-30.5,15.8h0s6.5-8,13.4-16.9c5.5-7.2-4.2-14.7-4.2-14.7h-.1Z" fill="#be2f55" isolation="isolate" mix-blend-mode="multiply" opacity=".5" stroke-width="0"/>
          <path d="M112.1,221.7s-18.3,8.4-16.9,15.8c1.5,7.4,26,15.8,26,15.8,0,0-11.3-8.1-13.4-16.9-2-8.9,4.2-14.7,4.2-14.7h.1Z" fill="#654c83" isolation="isolate" mix-blend-mode="multiply" opacity=".5" stroke-width="0"/>
          <path d="M183.4,337.9c6.4-3.5-5.6-7.3-10.8-11.2-5.2-3.9-9.7-9.3-9.7-9.3,0,0-18.3-4.2-21.2-4.3-2.9,0,14.3,20.6,25.2,24.8,10.9,4.1,16.5,0,16.5,0Z" fill="#fff" isolation="isolate" mix-blend-mode="soft-light" opacity=".5" stroke-width="0"/>
          <path d="M183.2,299.7s-6.8-16-18.3-22.9c-11.4-6.9-45.1-17.7-45.1-17.7,0,0,8.9,19.3,26.6,28.4s16.5,3.3,36.7,12.3l.1-.1Z" fill="#fff" isolation="isolate" mix-blend-mode="soft-light" opacity=".5" stroke-width="0"/>
          <path d="M328.7,337.9c-5.6-3.5,4.9-7.3,9.5-11.2,4.6-3.9,10.6-8.6,10.6-8.6,0,0,13.9-4.9,16.5-5,2.6,0-12.5,20.6-22.1,24.8-9.5,4.1-14.4,0-14.4,0h-.1Z" fill="#fff" isolation="isolate" mix-blend-mode="soft-light" opacity=".5" stroke-width="0"/>
          <path d="M329.2,294.7s8.4-12.8,19.8-18.1c11.4-5.2,43.5-12.7,43.5-12.7,0,0-8.5,11.7-26.2,18.6-17.7,6.8-16.9,5.4-37.2,12.2h.1Z" fill="#fff" isolation="isolate" mix-blend-mode="soft-light" opacity=".5" stroke-width="0"/>
          <path d="M386.1,253.4s-14,12.6-22,16.7-28.6,3.8-28.6,3.8c0,0,6.1-4.9,19.1-8.8,13.1-3.9,31.5-11.7,31.5-11.7h0Z" fill="#654c83" isolation="isolate" mix-blend-mode="multiply" opacity=".5" stroke-width="0"/>
          <path d="M123.1,253.4s19.9,12.6,27.9,16.7,22.8,3.8,22.8,3.8c0,0-6.1-4.9-19.1-8.8-13.1-3.9-31.5-11.7-31.5-11.7h-.1Z" fill="#654c83" isolation="isolate" mix-blend-mode="multiply" opacity=".5" stroke-width="0"/>
          <path d="M175.5,285.7s-5.5-7.6-18.3-12.8c-12.8-5.2-28.4-13.8-28.4-13.8,0,0,15.4,11.8,25.7,16.9,10.3,5,21,9.8,21,9.8v-.1Z" fill="#fff" stroke-width="0"/>
          <path d="M148.5,289.7s-17.8,1.5-23.5,1-6-1.5-6-1.5c0,0,24.6-.4,29.5.5Z" fill="#d4d8cc" stroke-width="0"/>
          <path d="M196,327.3s-13.6,5.8-20.4,4.9c-6.9-1-10.8-18.7-10.8-18.7,0,0,6.3,12.8,12.4,16.1,6.1,3.3,18.9-2.3,18.9-2.3h-.1Z" fill="#d4d8cc" stroke-width="0"/>
          <path d="M403.7,251.4s-30.6,16.9-46.3,24.1c-15.6,7.2-26.6,13.6-26.6,13.6,0,0,11.3-9.7,24.8-15.9,13.4-6.2,48.1-21.8,48.1-21.8h0Z" fill="#fff" stroke-width="0"/>
          <path d="M392.5,286.7h-37s25.3-2.1,37,0Z" fill="#d4d8cc" stroke-width="0"/>
          <path d="M346.3,320s-10,12.1-15.6,13.4c-5.5,1.3-18.4-6.1-18.4-6.1,0,0,12.3,5.6,18.4,4s15.6-11.2,15.6-11.2v-.1Z" fill="#d4d8cc" stroke-width="0"/>
          <path d="M158.2,273.2c3.8,1.9-5.7,2.7-8.5,0s1.7-3.5,8.5,0Z" fill="#fff9c7" stroke-width="0"/>
          <path d="M175.5,333.6c4.3.6-1.1-3.6-3.4-4.9-2.2-1.3-2.5,4.1,3.4,4.9Z" fill="#fff9c7" stroke-width="0"/>
          <path d="M336,331.4c1.8-5.2-2.9-.5-6.9,1.4-3.9,1.9,5.4,2.6,6.9-1.4Z" fill="#fff9c7" stroke-width="0"/>
          <path d="M350.7,276.8c2.7,0-1.4,3.8-5.8,4.8-4.3.9,1.9-4.8,5.8-4.8Z" fill="#fff9c7" stroke-width="0"/>
          <path d="M110.7,205.2s2.2,10.8,1.4,14.8-14.7,14-19.7,15.6c-5,1.6-8.7-5.4,4.3-18.6,8.2-8.3,14.1-11.8,14.1-11.8h-.1Z" fill="url(#linear-gradient-18)" stroke-width="0"/>
          <path d="M423,232.1c.3,4.2-17.6-4.4-22.3-6.5-4.7-2.1-5.6-3.9-5.6-3.9l.5-13.6c4.2,0,26.2,15,27.3,24.1l.1-.1Z" fill="url(#linear-gradient-19)" stroke-width="0"/>
        </g>
        <path d="M170.2,284.5c-1.3,5.9-9.7,9.1-18.7,7-9-2-15.2-8.5-13.9-14.4s9.7-9.1,18.7-7c9,2,15.2,8.5,13.9,14.4Z" fill="url(#radial-gradient-9)" isolation="isolate" mix-blend-mode="color-dodge" stroke-width="0"/>
        <path d="M254.8,408.1c-4.6,4-13.2,1.6-19.3-5.4s-7.3-15.8-2.7-19.8,13.2-1.6,19.3,5.4,7.3,15.8,2.7,19.8Z" fill="url(#radial-gradient-10)" isolation="isolate" mix-blend-mode="color-dodge" stroke-width="0"/>
        <path d="M109.3,210.9c5,4.4,3.7,14.2-3,21.9s-16.2,10.4-21.3,6c-5-4.4-3.7-14.2,3-21.9s16.2-10.4,21.3-6Z" fill="url(#radial-gradient-11)" isolation="isolate" mix-blend-mode="color-dodge" stroke-width="0"/>
        <path d="M345,340.1c-1.3,5.9-9.7,9.1-18.7,7-9-2-15.2-8.5-13.9-14.4,1.3-5.9,9.7-9.1,18.7-7,9,2,15.2,8.5,13.9,14.4Z" fill="url(#radial-gradient-12)" isolation="isolate" mix-blend-mode="color-dodge" stroke-width="0"/>
        <path d="M388.5,264c2.1,3.7-2.6,10.4-10.6,15.1-8,4.6-16.2,5.4-18.3,1.7-2.1-3.7,2.6-10.4,10.6-15.1,8-4.6,16.2-5.4,18.3-1.7Z" fill="url(#radial-gradient-13)" isolation="isolate" mix-blend-mode="color-dodge" stroke-width="0"/>
        <path d="M100.5,290.8c0,4.3-6.5,7.7-14.6,7.7s-14.6-3.5-14.6-7.7,6.5-7.7,14.6-7.7,14.6,3.5,14.6,7.7Z" fill="url(#radial-gradient-14)" isolation="isolate" mix-blend-mode="color-dodge" stroke-width="0"/>
      </g>
      <g>
        <g>
          <g>
            <g>
              <g>
                <path d="M403.5,224.9c-4.9-38.1-18.1-32.2-18.1-32.2,0,0,17.6-51.2-19.8-82.5s-116.7-52.5-116.7-52.5c0,0,17.7-40.5,110.8,17.1,38.5,23.8,51.5,122.3,51.5,122.3l-7.8,27.8h.1Z" fill="#be2f55" isolation="isolate" mix-blend-mode="multiply" opacity=".7" stroke-width="0"/>
                <path d="M356.4,82c22.7,6.8,38.1,24,42,47.4,1.5,9.2,1.4,18.7.3,27.9-.5,3.9-1.1,7.8-1.9,11.7-.4,2.1-1.3,13.9-1.6,14.1,10.1-7.7,13.7-21,19.8-32,2.5-4.5,5.5-8.7,7.7-13.3,5.6-11.6,6.1-25,9-37.5,4.5-19.6,14.6-37.6,16.3-57.8,1.3-14.6-12.8-31.8-26.4-36.3-25.9-8.6-53,16.6-69.4,33-6.9,6.9,53.5,10.9,46.4,37.2s-17-57.7-73.1-61.8c-20.1-1.4-54.4,16.7-54.4,16.7,0,0,40.7,22.8,85.3,50.9v-.2Z" fill="url(#linear-gradient-20)" stroke-width="0"/>
                <path d="M392.8,188.6s64-73.1,61.5-151.1c-2.7-83.4-102.1-2.5-102,3.5,0,5.9,24.6-2.5,44.1,24.4,19.7,27.3-3.5,123.2-3.5,123.2h-.1Z" fill="url(#linear-gradient-21)" stroke-width="0"/>
                <path d="M392.8,188.6s41.2-68.9,33.7-134.2c-7.6-65.3-62.6-25.2-64.6-23.5-1.9,1.7,23.1,12.7,36.7,37.2,13.7,24.5-5.8,120.4-5.8,120.4v.1Z" fill="#be2f55" isolation="isolate" mix-blend-mode="multiply" opacity=".5" stroke-width="0"/>
                <path d="M395.9,187.6s48.8-65.9,54.8-116.5c6-50.7-.3-53.4-.3-53.4,0,0,5.4,37.5-11.3,85-16.7,47.4-43.2,85-43.2,85v-.1Z" fill="#be2f55" isolation="isolate" mix-blend-mode="multiply" opacity=".5" stroke-width="0"/>
                <path d="M398.4,129.3s-18.5-72.6-62.6-87.1-58.2-5.8-58.2-5.8c0,0,69.8,35.6,94.7,57.9,24.9,22.3,26.1,35,26.1,35Z" fill="#be2f55" isolation="isolate" mix-blend-mode="multiply" opacity=".5" stroke-width="0"/>
                <path d="M396.3,122.2s-20.5-56.9-40.5-68.5-36.2-17.9-43.2-14.6c-7,3.4,9.8,32,39.6,41.1,29.8,9.1,44,42,44,42h.1Z" fill="#be2f55" isolation="isolate" mix-blend-mode="multiply" opacity=".5" stroke-width="0"/>
                <path d="M361.9,30.9l17,20.8s14.5,4.1,20.4,19.2,1.9,63.8,1.9,63.8c0,0,32.7-53.8,23.7-89.7-9-35.9-42.2-29-63-14v-.1Z" fill="#be2f55" isolation="isolate" mix-blend-mode="multiply" opacity=".5" stroke-width="0"/>
                <path d="M380.7,19.9s20.8-9.4,34.5,4.7c13.7,14,31.6-6.7,31.7-10.6.2-3.9-5-16.8-33.1-12.2-28.1,4.6-33.1,18.2-33.1,18.2v-.1Z" fill="#fff" isolation="isolate" mix-blend-mode="soft-light" opacity=".5" stroke-width="0"/>
                <path d="M298.5,24.1c-12,9.8,15.3,4.9,42.2,20.1,26.9,15.2,31.5,4.4,31.5,4.4,0,0-19.1-47-73.6-24.4l-.1-.1Z" fill="#fff" isolation="isolate" mix-blend-mode="soft-light" opacity=".5" stroke-width="0"/>
                <path d="M316.9,346.5c14.5-.3,27.5-1.9,39.4-5.4,0,0,.2,0,.4-.2,30.3-9.1,53.2-31.2,72.1-78.4,26.3-65.5,78.5-95.2,82.8-98.7h0c3.8-3.2-31.7-17.7-77.5,0-51.3,19.9-22.1,54.9-28.6,102.4s-63.2,77.7-88.7,80.2l.1.1Z" fill="url(#linear-gradient-22)" stroke-width="0"/>
                <path d="M356.8,340.9c30.3-9.1,53.2-31.2,72.1-78.4,26.3-65.5,78.5-95.2,82.8-98.7-2.4,1-64.7,26.8-82.8,40.4-18.5,14-4.8,58.9-20.6,90.8-14.8,29.9-47.5,44.2-51.5,45.9h0Z" fill="#be2f55" isolation="isolate" mix-blend-mode="multiply" opacity=".5" stroke-width="0"/>
                <path d="M498.2,173.3s-41.8,15.5-59.1,24.4c-17.3,9-19.4,22.2-20,26.7s12.5,11.8,19.5,8.5,22.6-36.1,59.5-59.7l.1.1Z" fill="#be2f55" isolation="isolate" mix-blend-mode="multiply" opacity=".5" stroke-width="0"/>
                <path d="M504.8,162.7c2.5,3.3-26,13.2-53.3,28.4-27.2,15.2-41.2,9.3-41.2,9.3,0,0,.3-14.6,36.6-28.9,36.3-14.4,56.7-10.3,57.9-8.8Z" fill="#fff" isolation="isolate" mix-blend-mode="soft-light" opacity=".5" stroke-width="0"/>
                <path d="M407,245.3s-23.1,89.5-119,101.2c0,0,111.3,13.7,119-101.2Z" fill="#be2f55" isolation="isolate" mix-blend-mode="multiply" opacity=".5" stroke-width="0"/>
                <path d="M414.5,292.4s.3,0,.8-.1c4.5-.9,26.9-5.5,32-14.1.2-.4.5-.8.6-1.3,0-.3.1-.5.2-.8.1-.4.2-.7.2-1.1.5-8.3-5.8-12.9-6.8-19.9-.5-3,0-6.4,2.4-10.8,7.9-14.5,20.6-21.1,21.5-11.3.3,2.9-.2,4.7-.9,6,0,0-.1.2-.2.3-.2.4-.5.8-.8,1.1l-.1.1c-1.9,1.8-4.5,2.3-4.4,4.9,0,.7.2,1.6.6,2.6,2.3,5.8,11.5,15.4,26.6,4.5,7.6-5.5,13.2-15.3,15.7-25.4h0c3.3-13.4,1.1-27.3-9.5-31.9-18.6-7.9-57.4,5.3-61.2,20.2-3.4,13.7-14.5,67.4-16.2,75.9,0,.3-.1.5-.2.7v.4h-.3Z" fill="url(#linear-gradient-23)" stroke-width="0"/>
                <path d="M459.4,247.9c2.3,5.8,11.5,15.4,26.6,4.5,7.6-5.5,13.2-15.3,15.7-25.4-.8.8-13.5,13.9-25.6,18.3-10,3.7-15.1,3-16.6,2.6h-.1Z" fill="#be2f55" isolation="isolate" mix-blend-mode="multiply" opacity=".5" stroke-width="0"/>
                <path d="M441.4,255c-.5-3,0-6.4,2.4-10.8,7.9-14.5,20.6-21.1,21.5-11.3.3,2.9-.2,4.7-.9,6,2.8-3.6,9.5-13.4,9.2-23.9-.3-13.2-27.4-10-38.3,4-10.9,13.9,6.2,36,6.2,36h-.1Z" fill="#be2f55" isolation="isolate" mix-blend-mode="multiply" opacity=".5" stroke-width="0"/>
                <path d="M448.2,275c-2.7-10.1-20.8-7.1-25.4-3.8-4.6,3.3-8.3,21.2-8.3,21.2,0,0,32.5-4.3,33.8-17.4h-.1Z" fill="#be2f55" isolation="isolate" mix-blend-mode="multiply" opacity=".5" stroke-width="0"/>
                <path d="M502.4,209.2c.6,9.5-7.1,27.6-19.3,32.7-12.2,5.1-3.9-22.9-10.6-32.7s-30.6-1.1-32,0,13.8-16.4,36.1-16.4,25.7,13.5,25.9,16.4h-.1Z" fill="#fff" isolation="isolate" mix-blend-mode="soft-light" opacity=".5" stroke-width="0"/>
                <path d="M442.4,260.2c3.8,5.9-11.2,5.4-16.5,9.5-5.2,4.1-1.4-10.4,1.5-17.3,2.9-6.9,15,7.8,15,7.8Z" fill="#fff" isolation="isolate" mix-blend-mode="soft-light" opacity=".5" stroke-width="0"/>
                <path d="M473.5,179.9s-40.5,14.7-48.9,23.6c-8.4,8.9-7.2,42.6-7.2,42.6,0,0,1.1-28.9,7.5-38.2s48.6-28,48.6-28h0Z" fill="#ffd134" stroke-width="0"/>
                <path d="M472.7,222s4-9.9-.7-14.7c-4.7-4.7-22.7,0-31.1,4.6-8.4,4.7-8.8,13-8.8,13,0,0,4.4-11,15.8-14.7,11.4-3.8,30.3-6.6,24.8,11.8h0Z" fill="#ffd134" stroke-width="0"/>
                <path d="M501.6,227s-20.1,17.2-27.6,19c-7.5,1.9-13,2.1-13,2.1,0,0,18.5,3.8,40.6-21.2v.1Z" fill="#ffd134" stroke-width="0"/>
                <path d="M427.4,69.6s.4-36.9-12.7-48.4-34-1.2-34-1.2c0,0,19.3-4.8,32.1,4.5,11.3,8.2,14.6,45.2,14.6,45.2v-.1Z" fill="#ffd134" stroke-width="0"/>
                <path d="M380.7,86.6s-10.1-33.3-42.5-45.3-51.4-8.4-60.6-4.9c15.6-2.9,30.9-1.3,51.3,4.9,30.5,9.3,51.8,45.3,51.8,45.3h0Z" fill="#ffd134" stroke-width="0"/>
                <path d="M414.7,21.1c3.1,6-12.6-3.5-12.6-3.5,0,0,9.5-2.5,12.6,3.5Z" fill="#fff9c7" stroke-width="0"/>
                <path d="M338.3,38.3c6.2,5.7-9.5-.4-17.9-1-8.4-.7,10.6-5.6,17.9,1Z" fill="#fff9c7" stroke-width="0"/>
                <path d="M449.7,192.7c1.2-8-17.8,1.2-20.8,6.2s20.8-6.2,20.8-6.2Z" fill="#fff9c7" stroke-width="0"/>
                <path d="M469.9,203.5c6.4,4.6-10.5,3-13.4,3.5s8.8-6.8,13.4-3.5Z" fill="#fff9c7" stroke-width="0"/>
                <path d="M473.5,213.9c1.2,5.3-5.9,17.2-7.1,18.1-1.2.9,0-4.9-10.3-1.9s-11.2-9-5.5-17.1,20.9-8,22.9.9Z" fill="#be2f55" isolation="isolate" mix-blend-mode="multiply" opacity=".5" stroke-width="0"/>
                <path d="M403.5,197.1c3.7,1.6,13.5,10.8,13.8,22.5s.4,55.2-7,65.5c-7.4,10.4.3-12.3-3.3-42.6-3.6-30.3-3.5-45.4-3.5-45.4Z" fill="#be2f55" isolation="isolate" mix-blend-mode="multiply" opacity=".3" stroke-width="0"/>
                <path d="M396.3,122.2s-18.8-40.6-23.1-51.4c-4.3-10.7,6.4-18.1,7.2-16.7.8,1.4,10.4,18.7,15.9,36.2,5.6,17.5,0,31.8,0,31.8v.1Z" fill="#be2f55" isolation="isolate" mix-blend-mode="multiply" opacity=".3" stroke-width="0"/>
                <path d="M436.3,112.6c7.8-22-16.6,22.3-26,41.4-9.3,19.1-12.7,25.9-12.7,25.9,0,0,26.9-33.9,38.7-67.3Z" fill="#be2f55" isolation="isolate" mix-blend-mode="multiply" opacity=".3" stroke-width="0"/>
                <path d="M449.1,20.2c3.6,3.7.6,37.2-2.2,43.6-2.8,6.4-15.3,4-16.4-1.4-1.1-5.4-7.7-27.2-7.7-27.2l26.4-14.9-.1-.1Z" fill="#be2f55" isolation="isolate" mix-blend-mode="multiply" opacity=".3" stroke-width="0"/>
              </g>
              <path d="M418.9,7.9c-10.3.2-4.9,17.4,4.1,23.5s13-23.8-4.1-23.5Z" fill="#fff9c7" stroke-width="0"/>
              <path d="M412.9,5.6c5.3-4.2,14.7-1.2,21.2,6.8s7.4,17.9,2.2,22.2c-5.3,4.2-14.7,1.2-21.2-6.8s-7.4-17.9-2.2-22.2Z" fill="url(#radial-gradient-15)" isolation="isolate" mix-blend-mode="color-dodge" stroke-width="0"/>
              <path d="M422.7,202.1c-2.9-4.1,2.7-12.9,12.5-19.8,9.8-6.9,20-9.2,22.9-5.1,2.9,4.1-2.7,12.9-12.5,19.8-9.8,6.9-20,9.2-22.9,5.1Z" fill="url(#radial-gradient-16)" isolation="isolate" mix-blend-mode="color-dodge" stroke-width="0"/>
              <path d="M471.8,242.5c-5.6-4.9-4.1-15.8,3.3-24.3,7.4-8.6,18-11.5,23.7-6.6,5.6,4.9,4.1,15.8-3.3,24.3-7.4,8.6-18,11.5-23.7,6.6Z" fill="url(#radial-gradient-17)" isolation="isolate" mix-blend-mode="color-dodge" stroke-width="0"/>
            </g>
            <g>
              <g>
                <path d="M108.5,224.9c4.9-38.1,18.1-32.2,18.1-32.2,0,0-17.6-51.2,19.8-82.5s116.7-52.5,116.7-52.5c0,0-17.7-40.5-110.8,17.1-38.5,23.8-51.5,122.3-51.5,122.3l7.8,27.8h-.1Z" fill="#be2f55" isolation="isolate" mix-blend-mode="multiply" opacity=".7" stroke-width="0"/>
                <path d="M155.6,82c-22.7,6.8-38.1,24-42,47.4-1.5,9.2-1.4,18.7-.3,27.9.5,3.9,1.1,7.8,1.9,11.7.4,2.1,1.3,13.9,1.6,14.1-10.1-7.7-13.7-21-19.8-32-2.5-4.5-5.5-8.7-7.7-13.3-5.6-11.6-6.1-25-9-37.5-4.5-19.6-14.6-37.6-16.3-57.8-1.3-14.6,12.8-31.8,26.4-36.3,25.9-8.6,53,16.6,69.4,33,6.9,6.9-53.5,10.9-46.4,37.2s17-57.7,73.1-61.8c20.1-1.4,54.4,16.7,54.4,16.7,0,0-40.7,22.8-85.3,50.9v-.2Z" fill="url(#linear-gradient-24)" stroke-width="0"/>
                <path d="M119.2,188.6S55.2,115.5,57.7,37.5c2.7-83.4,102.1-2.5,102,3.5,0,5.9-24.6-2.5-44.1,24.4-19.7,27.3,3.5,123.2,3.5,123.2h.1Z" fill="url(#linear-gradient-25)" stroke-width="0"/>
                <path d="M119.2,188.6s-41.2-68.9-33.7-134.2c7.6-65.3,62.6-25.2,64.6-23.5s-23.1,12.7-36.7,37.2c-13.7,24.5,5.8,120.4,5.8,120.4v.1Z" fill="#be2f55" isolation="isolate" mix-blend-mode="multiply" opacity=".5" stroke-width="0"/>
                <path d="M116.1,187.6s-48.8-65.9-54.8-116.5c-6-50.7.3-53.4.3-53.4,0,0-5.4,37.5,11.3,85,16.7,47.4,43.2,85,43.2,85v-.1Z" fill="#be2f55" isolation="isolate" mix-blend-mode="multiply" opacity=".5" stroke-width="0"/>
                <path d="M113.6,129.3s18.5-72.6,62.6-87.1,58.2-5.8,58.2-5.8c0,0-69.8,35.6-94.7,57.9-24.9,22.3-26.1,35-26.1,35Z" fill="#be2f55" isolation="isolate" mix-blend-mode="multiply" opacity=".5" stroke-width="0"/>
                <path d="M115.7,122.2s20.5-56.9,40.5-68.5,36.2-17.9,43.2-14.6c7,3.4-9.8,32-39.6,41.1s-44,42-44,42h-.1Z" fill="#be2f55" isolation="isolate" mix-blend-mode="multiply" opacity=".5" stroke-width="0"/>
                <path d="M150.1,30.9l-17,20.8s-14.5,4.1-20.4,19.2-1.9,63.8-1.9,63.8c0,0-32.7-53.8-23.7-89.7,9-35.9,42.2-29,63-14v-.1Z" fill="#be2f55" isolation="isolate" mix-blend-mode="multiply" opacity=".5" stroke-width="0"/>
                <path d="M131.3,19.9s-20.8-9.4-34.5,4.7c-13.7,14-31.6-6.7-31.7-10.6-.2-3.9,5-16.8,33.1-12.2,28.1,4.6,33.1,18.2,33.1,18.2v-.1Z" fill="#fff" isolation="isolate" mix-blend-mode="soft-light" opacity=".5" stroke-width="0"/>
                <path d="M213.5,24.1c12,9.8-15.3,4.9-42.2,20.1s-31.5,4.4-31.5,4.4c0,0,19.1-47,73.6-24.4l.1-.1Z" fill="#fff" isolation="isolate" mix-blend-mode="soft-light" opacity=".5" stroke-width="0"/>
                <path d="M195.1,346.5c-14.5-.3-27.5-1.9-39.4-5.4,0,0-.2,0-.4-.2-30.3-9.1-53.2-31.2-72.1-78.4C56.8,197,4.6,167.3.4,163.8H.4c-3.8-3.2,31.7-17.7,77.5,0,51.3,19.9,22.1,54.9,28.6,102.4s63.2,77.7,88.7,80.2l-.1.1Z" fill="url(#linear-gradient-26)" stroke-width="0"/>
                <path d="M155.2,340.9c-30.3-9.1-53.2-31.2-72.1-78.4C56.8,197,4.6,167.3.4,163.8c2.4,1,64.7,26.8,82.8,40.4,18.5,14,4.8,58.9,20.6,90.8,14.8,29.9,47.5,44.2,51.5,45.9h-.1Z" fill="#be2f55" isolation="isolate" mix-blend-mode="multiply" opacity=".5" stroke-width="0"/>
                <path d="M13.8,173.3s41.8,15.5,59.1,24.4c17.3,9,19.4,22.2,20,26.7s-12.5,11.8-19.5,8.5-22.6-36.1-59.5-59.7l-.1.1Z" fill="#be2f55" isolation="isolate" mix-blend-mode="multiply" opacity=".5" stroke-width="0"/>
                <path d="M7.2,162.7c-2.5,3.3,26,13.2,53.3,28.4,27.2,15.2,41.2,9.3,41.2,9.3,0,0-.3-14.6-36.6-28.9-36.3-14.4-56.7-10.3-57.9-8.8Z" fill="#fff" isolation="isolate" mix-blend-mode="soft-light" opacity=".5" stroke-width="0"/>
                <path d="M105,245.3s23.1,89.5,119,101.2c0,0-111.3,13.7-119-101.2Z" fill="#be2f55" isolation="isolate" mix-blend-mode="multiply" opacity=".5" stroke-width="0"/>
                <path d="M97.5,292.4s-.3,0-.8-.1c-4.5-.9-26.9-5.5-32-14.1-.2-.4-.5-.8-.6-1.3,0-.3-.1-.5-.2-.8-.1-.4-.2-.7-.2-1.1-.5-8.3,5.8-12.9,6.8-19.9.5-3,0-6.4-2.4-10.8-7.9-14.5-20.6-21.1-21.5-11.3-.3,2.9.2,4.7.9,6,0,0,.1.2.2.3.2.4.5.8.8,1.1l.1.1c1.9,1.8,4.5,2.3,4.4,4.9,0,.7-.2,1.6-.6,2.6-2.3,5.8-11.5,15.4-26.6,4.5-7.6-5.5-13.2-15.3-15.7-25.4h0c-3.3-13.4-1.1-27.3,9.5-31.9,18.7-7.9,57.4,5.3,61.2,20.2,3.4,13.7,14.5,67.4,16.2,75.9,0,.3.1.5.2.7v.4h.3Z" fill="url(#linear-gradient-27)" stroke-width="0"/>
                <path d="M52.6,247.9c-2.3,5.8-11.5,15.4-26.6,4.5-7.6-5.5-13.2-15.3-15.7-25.4.8.8,13.5,13.9,25.6,18.3,10,3.7,15.1,3,16.6,2.6h.1Z" fill="#be2f55" isolation="isolate" mix-blend-mode="multiply" opacity=".5" stroke-width="0"/>
                <path d="M70.6,255c.5-3,0-6.4-2.4-10.8-7.9-14.5-20.6-21.1-21.5-11.3-.3,2.9.2,4.7.9,6-2.8-3.6-9.5-13.4-9.2-23.9.3-13.2,27.4-10,38.3,4,10.9,13.9-6.2,36-6.2,36h.1Z" fill="#be2f55" isolation="isolate" mix-blend-mode="multiply" opacity=".5" stroke-width="0"/>
                <path d="M63.8,275c2.7-10.1,20.8-7.1,25.4-3.8,4.6,3.3,8.3,21.2,8.3,21.2,0,0-32.5-4.3-33.8-17.4h.1Z" fill="#be2f55" isolation="isolate" mix-blend-mode="multiply" opacity=".5" stroke-width="0"/>
                <path d="M9.6,209.2c-.6,9.5,7.1,27.6,19.3,32.7,12.2,5.1,3.9-22.9,10.6-32.7s30.6-1.1,32,0-13.8-16.4-36.1-16.4-25.7,13.5-25.9,16.4h.1Z" fill="#fff" isolation="isolate" mix-blend-mode="soft-light" opacity=".5" stroke-width="0"/>
                <path d="M69.6,260.2c-3.8,5.9,11.2,5.4,16.5,9.5,5.2,4.1,1.4-10.4-1.5-17.3-2.9-6.9-15,7.8-15,7.8Z" fill="#fff" isolation="isolate" mix-blend-mode="soft-light" opacity=".5" stroke-width="0"/>
                <path d="M38.5,179.9s40.5,14.7,48.9,23.6c8.4,8.9,7.2,42.6,7.2,42.6,0,0-1.1-28.9-7.5-38.2s-48.6-28-48.6-28h0Z" fill="#ffd134" stroke-width="0"/>
                <path d="M39.3,222s-4-9.9.7-14.7c4.7-4.7,22.7,0,31.1,4.6,8.4,4.7,8.8,13,8.8,13,0,0-4.4-11-15.8-14.7-11.4-3.8-30.3-6.6-24.8,11.8h0Z" fill="#ffd134" stroke-width="0"/>
                <path d="M10.4,227s20.1,17.2,27.6,19c7.5,1.9,13,2.1,13,2.1,0,0-18.5,3.8-40.6-21.2v.1Z" fill="#ffd134" stroke-width="0"/>
                <path d="M84.6,69.6s-.4-36.9,12.7-48.4,34-1.2,34-1.2c0,0-19.3-4.8-32.1,4.5-11.3,8.2-14.6,45.2-14.6,45.2v-.1Z" fill="#ffd134" stroke-width="0"/>
                <path d="M131.3,86.6s10.1-33.3,42.5-45.3c32.4-12,51.4-8.4,60.6-4.9-15.6-2.9-30.9-1.3-51.3,4.9-30.5,9.3-51.8,45.3-51.8,45.3h0Z" fill="#ffd134" stroke-width="0"/>
                <path d="M97.3,21.1c-3.1,6,12.6-3.5,12.6-3.5,0,0-9.5-2.5-12.6,3.5Z" fill="#fff9c7" stroke-width="0"/>
                <path d="M173.7,38.3c-6.2,5.7,9.5-.4,17.9-1,8.4-.7-10.6-5.6-17.9,1Z" fill="#fff9c7" stroke-width="0"/>
                <path d="M62.3,192.7c-1.2-8,17.8,1.2,20.8,6.2s-20.8-6.2-20.8-6.2Z" fill="#fff9c7" stroke-width="0"/>
                <path d="M42.1,203.5c-6.4,4.6,10.5,3,13.4,3.5s-8.8-6.8-13.4-3.5Z" fill="#fff9c7" stroke-width="0"/>
                <path d="M38.5,213.9c-1.2,5.3,5.9,17.2,7.1,18.1,1.2.9,0-4.9,10.3-1.9s11.2-9,5.5-17.1-20.9-8-22.9.9Z" fill="#be2f55" isolation="isolate" mix-blend-mode="multiply" opacity=".5" stroke-width="0"/>
                <path d="M108.5,197.1c-3.7,1.6-13.5,10.8-13.8,22.5s-.4,55.2,7,65.5c7.4,10.4-.3-12.3,3.3-42.6,3.6-30.3,3.5-45.4,3.5-45.4Z" fill="#be2f55" isolation="isolate" mix-blend-mode="multiply" opacity=".3" stroke-width="0"/>
                <path d="M115.7,122.2s18.8-40.6,23.1-51.4c4.3-10.7-6.4-18.1-7.2-16.7-.8,1.4-10.4,18.7-15.9,36.2-5.6,17.5,0,31.8,0,31.8v.1Z" fill="#be2f55" isolation="isolate" mix-blend-mode="multiply" opacity=".3" stroke-width="0"/>
                <path d="M75.7,112.6c-7.8-22,16.6,22.3,26,41.4,9.3,19.1,12.7,25.9,12.7,25.9,0,0-26.9-33.9-38.7-67.3Z" fill="#be2f55" isolation="isolate" mix-blend-mode="multiply" opacity=".3" stroke-width="0"/>
                <path d="M62.9,20.2c-3.6,3.7-.6,37.2,2.2,43.6,2.8,6.4,15.3,4,16.4-1.4,1.1-5.4,7.7-27.2,7.7-27.2l-26.4-14.9.1-.1Z" fill="#be2f55" isolation="isolate" mix-blend-mode="multiply" opacity=".3" stroke-width="0"/>
              </g>
              <path d="M93.1,7.9c10.3.2,4.9,17.4-4.1,23.5s-13-23.8,4.1-23.5Z" fill="#fff9c7" stroke-width="0"/>
              <path d="M99.1,5.6c-5.3-4.2-14.7-1.2-21.2,6.8-6.5,8-7.4,17.9-2.2,22.2,5.3,4.2,14.7,1.2,21.2-6.8s7.4-17.9,2.2-22.2Z" fill="url(#radial-gradient-18)" isolation="isolate" mix-blend-mode="color-dodge" stroke-width="0"/>
              <path d="M89.3,202.1c2.9-4.1-2.7-12.9-12.5-19.8-9.8-6.9-20-9.2-22.9-5.1-2.9,4.1,2.7,12.9,12.5,19.8,9.8,6.9,20,9.2,22.9,5.1Z" fill="url(#radial-gradient-19)" isolation="isolate" mix-blend-mode="color-dodge" stroke-width="0"/>
              <path d="M40.2,242.5c5.6-4.9,4.1-15.8-3.3-24.3-7.4-8.6-18-11.5-23.7-6.6-5.6,4.9-4.1,15.8,3.3,24.3,7.4,8.6,18,11.5,23.7,6.6Z" fill="url(#radial-gradient-20)" isolation="isolate" mix-blend-mode="color-dodge" stroke-width="0"/>
            </g>
            <g>
              <path d="M257,48c-94.5,0-171.1,76.6-171.1,171.1s76.6,171.1,171.1,171.1,171.1-76.6,171.1-171.1S351.5,48,257,48ZM257,350.6c-72.6,0-131.5-58.9-131.5-131.5s58.9-131.5,131.5-131.5,131.4,58.9,131.4,131.5-58.9,131.5-131.4,131.5Z" fill="url(#linear-gradient-28)" stroke-width="0"/>
              <path d="M257,65.7c-84.7,0-153.4,68.7-153.4,153.4s68.7,153.4,153.4,153.4,153.4-68.7,153.4-153.4-68.7-153.4-153.4-153.4h0ZM257,350.6c-72.6,0-131.5-58.9-131.5-131.5s58.9-131.5,131.5-131.5,131.4,58.9,131.4,131.5-58.9,131.5-131.4,131.5Z" fill="url(#linear-gradient-29)" stroke-width="0"/>
              <path d="M108,182.6s57.6-94.9,149-94.9,150.2,100.2,150.2,100.2c0,0-28.6-122.2-150.2-122.2s-149,116.8-149,116.8v.1Z" fill="#be2f55" isolation="isolate" mix-blend-mode="multiply" opacity=".5" stroke-width="0"/>
              <path d="M119.1,286.3s71.2,64.3,137.9,64.3,135.1-58.8,135.1-58.8c0,0-44.9,80.7-135.1,80.7s-137.9-86.2-137.9-86.2Z" fill="#fff" isolation="isolate" mix-blend-mode="soft-light" stroke-width="0"/>
              <path d="M261.7,372.4s12.7-18.1,41.6-30,58-13,58-13c0,0-27.9,38.8-99.6,43Z" fill="#fff" isolation="isolate" mix-blend-mode="soft-light" stroke-width="0"/>
              <path d="M115.6,315.5s71.5,61.7,149.4,56.7c77.8-5,139.5-66.3,139.5-66.3,0,0-43.3,84.3-144.4,84.3s-144.4-74.7-144.4-74.7h-.1Z" fill="#be2f55" isolation="isolate" mix-blend-mode="multiply" opacity=".5" stroke-width="0"/>
              <path d="M156.7,331.7c-4.6-16.6,23.3-1.9,25.6,9.3,2.2,11.2-22.8.8-25.6-9.3Z" fill="#fff" stroke-width="0"/>
              <path d="M99.7,151.8s59.3-86.1,157.4-86.1,146.4,109.7,150.2,113c3.7,3.3-15.5-120.3-136.5-129.4-121-9.1-171.1,102.5-171.1,102.5h0Z" fill="#fff" isolation="isolate" mix-blend-mode="soft-light" stroke-width="0"/>
              <path d="M192.2,67.8c-11.9,11.9,10,10.9,20.5,2s-11.5-10.9-20.5-2Z" fill="#fff" stroke-width="0"/>
              <path d="M90.4,180.3c9.3-28.5,13.8,59.6,15.3,83s5.8,45.7,5.8,45.7c0,0-38.8-57.3-21-128.7h-.1Z" fill="#be2f55" isolation="isolate" mix-blend-mode="multiply" opacity=".3" stroke-width="0"/>
            </g>
            <g>
              <path d="M285.4,50.4s-24-26.1-27.3-26.1-28.3,25.6-28.3,25.6l28.3,15.9,27.4-15.3-.1-.1Z" fill="url(#linear-gradient-30)" stroke-width="0"/>
              <path d="M257.5,64.1c-2.4.7-1.6-35.3,0-37.4,1.6-2.1,23.6,19.9,24.6,21.3,1,1.4-19.1,14.4-24.6,16.1Z" fill="#fff" isolation="isolate" mix-blend-mode="soft-light" stroke-width="0"/>
              <path d="M233.1,48c-1.5,2,20.5,15.2,21.6,15.8,1.1.6,1.5-35.9,1.4-37.2,0-1.3-21,18.8-22.9,21.4h-.1Z" fill="#be2f55" isolation="isolate" mix-blend-mode="multiply" opacity=".5" stroke-width="0"/>
              <path d="M257.2,52.2c-1.1-3.6-1.2-18.6,0-22,1.2-3.3,2.7,13.6,2.8,17.6,0,4-2,6.7-2.8,4.3v.1Z" fill="#fff" stroke-width="0"/>
              <path d="M233,46.5s4.9,3.5,12-1.2,9.8-19.2,9.8-19.2l-21.8,20.4Z" fill="#fff" isolation="isolate" mix-blend-mode="soft-light" stroke-width="0"/>
            </g>
          </g>
          <path d="M219,81.5c-1.2-5.2,3.9-10.9,11.4-12.7,7.5-1.8,14.6,1,15.9,6.3,1.2,5.2-3.9,10.9-11.4,12.7-7.5,1.8-14.6-1-15.9-6.3Z" fill="url(#radial-gradient-21)" isolation="isolate" mix-blend-mode="color-dodge" opacity=".5" stroke-width="0"/>
          <path d="M185.9,72.2c-1.3-5.7,5.7-12.2,15.6-14.5,10-2.3,19.1.4,20.5,6.1,1.3,5.7-5.7,12.2-15.6,14.5-10,2.3-19.1-.4-20.5-6.1Z" fill="url(#radial-gradient-22)" isolation="isolate" mix-blend-mode="color-dodge" stroke-width="0"/>
        </g>
        <path d="M419.3,255s-.3-17.1-13.3,8.3c-6.6,13,3.1,38.3-11.8,52.4-14.2,13.5-48.3,14.5-58.2,22.7-20.2,16.9-10.6,26.8-16.9,36.5s-40.4,8.6-40.4,8.6c0,0,34.9,18.8,69.5,1.9s60.2-70.7,65.5-90.6c5.4-19.9,5.6-39.9,5.6-39.9v.1Z" fill="#be2f55" isolation="isolate" mix-blend-mode="multiply" opacity=".8" stroke-width="0"/>
        <path d="M96.7,255.9s6.8,1.6,8,4.7c3.3,8.3,4,24.7,13.4,43.3,12.9,25.4,50.3,24.1,70.6,41,20.2,16.9,4.8,20.4,11,30.1,6.3,9.7,40.4,8.6,40.4,8.6,0,0-34.9,18.8-69.5,1.9s-60.5-72.4-66.1-92.1c-7.2-25-7.9-37.4-7.9-37.4l.1-.1Z" fill="#be2f55" isolation="isolate" mix-blend-mode="multiply" opacity=".8" stroke-width="0"/>
        <g>
          <path d="M275.2,384.3s4.1.1,10.2.1c13.1,0,35.6-.2,47.6-2.7,1.7-.4,3.4-.8,4.9-1.4,14.6-5,23.3-17.4,23.3-17.4-1.1-.1-2.2-.1-3.2-.1-1.6,0-3.2.2-4.7.6h-.1c-13.1,2.8-25.7,13.5-25.7,13.5,0-.1,0-27,21.6-37.8,9.5-4.7,21.9-8.1,34-12.1,15.5-5.2,30.3-11.6,36.9-23.4,4.9-8.6-14.6-12.3-12.8-19,.3-1,1.3-28.7,1.3-28.7,0,0,50,21.8,43.8,43-3.4,11.4-14.4,22.9-25.7,32.1q-7.53,6.13,0,0c-1.9,1.5-3.9,3-5.7,4.5-12.5,9.4-23.9,15.6-23.9,15.6,8.1-.5,14.9,6.3,14.9,6.3-5.7,2.3-11.1,6.1-16.3,10.8-9,8-17.5,18.3-25.8,27.2-11.3,11.9-22.4,20.9-34.4,17.5-26.1-7.4-36.5-25.8-59.9-28.6h-.3Z" fill="url(#linear-gradient-31)" stroke-width="0"/>
          <path d="M103.7,262.8s3.2,14.3,3.3,21.7c0,7-17.7,10.5-12.8,19,6.7,12,21.8,18.3,37.4,23.6,11.9,4,24.2,7.3,33.5,12,21.5,10.8,21.6,37.6,21.6,37.8,0,0-18.5-15.6-33.8-13.9,0,0,14,17.5,31.8,19.5,12,1.3,59.9,1.4,59.9,1.4-23.4,2.8-39.5,21.6-65.7,29.1-26.1,7.5-47.7-43.7-76.6-55.4,0,0,6.8-6.8,14.9-6.3,0,0-47.6-26-55.4-52.3-6.3-21.1,41.7-36,41.7-36l.2-.2Z" fill="url(#linear-gradient-32)" stroke-width="0"/>
          <path d="M327.4,376.8c0-.1,0-27,21.6-37.8,9.5-4.7,21.9-8.1,34-12.1,15.5-5.2,30.3-11.6,36.9-23.4,4.9-8.6-14.6-12.3-12.8-19,.3-1,.4-5.7.6-11.3.4,1.1,3.9,2.9,7.5,4.7,5.9,2.9,30.4,19.3,18.9,30.3-8,7.6-34.3,18.6-55.8,28.2-9.6,4.3-18.2,8.3-23.9,11.6-18.5,10.8-25.5,22-25.5,22,9.7-3.6,17.7-5.7,24.1-6.6-13.1,2.8-25.7,13.5-25.7,13.5l.1-.1Z" fill="#be2f55" isolation="isolate" mix-blend-mode="multiply" opacity=".5" stroke-width="0"/>
          <path d="M285.4,384.4c-.5-.3-.8-.4-.8-.4,0,0,4.4-.2,10.3-.9h.2c14.8-.5,31.2-1.4,42.8-2.7,14.6-5,23.3-17.4,23.3-17.4-1.1-.1-2.2-.1-3.3-.1,2.2-.2,4.2-.3,5.9-.3,8.2.1,11.8,2.1,11.8,2.1,0,0-24.1,39.1-38.3,39.6-13,.4-46.5-16.9-51.9-19.8v-.1Z" fill="#be2f55" isolation="isolate" mix-blend-mode="multiply" opacity=".5" stroke-width="0"/>
          <path d="M153.4,364.4c5.6,7.5,11.2,13,16,14.2,10.4,2.6,36,3.9,57.2,4.6,4.5.7,7.8,1.1,7.8,1.1,0,0-50,24.1-60.3,17.2-9-6.1-18.4-30.9-20.7-37.1h0Z" fill="#be2f55" isolation="isolate" mix-blend-mode="multiply" opacity=".5" stroke-width="0"/>
          <path d="M105,269.3h0c1.3,5.5,1.6,13.8,2,15.1,1.8,6.7-17.7,10.5-12.8,19,6.7,12,21.8,18.3,37.4,23.6.8,1.7,1.6,3.3,2.5,5-24.4-11.7-54.5-26.7-54.4-33.8.2-9.6,25.3-29,25.3-29v.1Z" fill="#be2f55" isolation="isolate" mix-blend-mode="multiply" opacity=".5" stroke-width="0"/>
          <path d="M117.3,351.1s19.3,2.3,31.4,9c0,0-21.7-1.6-31.4-.9-9.8.7-14.9-1.8-14.9-1.8,0,0,8-7.4,14.9-6.3h0Z" fill="#be2f55" isolation="isolate" mix-blend-mode="multiply" opacity=".5" stroke-width="0"/>
          <path d="M411.6,357.4s-20.3-2.8-46.6-.7c0,0,21.6-5.8,31.7-5.6,10.1.3,14.9,6.3,14.9,6.3h0Z" fill="#be2f55" isolation="isolate" mix-blend-mode="multiply" opacity=".5" stroke-width="0"/>
          <path d="M191,383.4s-12.2,16-17.6,15.8c-5.4-.2-20.5-36.2-20.5-36.2,0,0,21.2,16.4,38.1,20.5v-.1Z" fill="#be2f55" isolation="isolate" mix-blend-mode="multiply" opacity=".5" stroke-width="0"/>
          <path d="M375.6,364.6s-19.1,28.9-29.3,32.6c-10.1,3.7-25.7-13.8-25.7-13.8,0,0,27.4-2.5,42.9-20.5,0,0,8.5.1,12,1.7h.1Z" fill="#be2f55" isolation="isolate" mix-blend-mode="multiply" opacity=".5" stroke-width="0"/>
          <path d="M407.1,287.7s24.3,8.9,22.7,16.8c-1.6,7.9-32.4,16.8-32.4,16.8h0s6.9-8.5,14.2-18c5.9-7.6-4.5-15.6-4.5-15.6h0Z" fill="#be2f55" isolation="isolate" mix-blend-mode="multiply" opacity=".5" stroke-width="0"/>
          <path d="M106.4,287.7s-19.5,8.9-17.9,16.8,27.6,16.8,27.6,16.8h0s-12-8.6-14.2-18c-2.2-9.5,4.5-15.6,4.5-15.6h0Z" fill="#be2f55" isolation="isolate" mix-blend-mode="multiply" opacity=".5" stroke-width="0"/>
          <path d="M182.2,411c6.8-3.7-5.9-7.8-11.5-11.9s-10.3-9.9-10.3-9.9c0,0-19.4-4.5-22.5-4.6-3.1,0,15.2,21.9,26.8,26.3s17.5,0,17.5,0v.1Z" fill="#fff" isolation="isolate" mix-blend-mode="soft-light" opacity=".5" stroke-width="0"/>
          <path d="M181.9,370.4s-7.3-17-19.4-24.3c-12.1-7.4-47.9-18.8-47.9-18.8,0,0,9.5,20.5,28.3,30.2,18.8,9.6,17.5,3.5,39,13v-.1Z" fill="#fff" isolation="isolate" mix-blend-mode="soft-light" opacity=".5" stroke-width="0"/>
          <path d="M336.5,411c-5.9-3.7,5.2-7.8,10-11.9,4.9-4.1,11.2-9.1,11.2-9.1,0,0,14.8-5.2,17.5-5.3,2.7,0-13.3,21.9-23.4,26.3s-15.3,0-15.3,0h0Z" fill="#fff" isolation="isolate" mix-blend-mode="soft-light" opacity=".5" stroke-width="0"/>
          <path d="M337,365.2s8.9-13.6,21.1-19.2c12.1-5.6,46.3-13.5,46.3-13.5,0,0-9,12.5-27.8,19.7-18.8,7.3-18,5.7-39.5,12.9l-.1.1Z" fill="#fff" isolation="isolate" mix-blend-mode="soft-light" opacity=".5" stroke-width="0"/>
          <path d="M397.4,321.3s-14.9,13.4-23.4,17.7c-8.5,4.3-30.4,4.1-30.4,4.1,0,0,6.4-5.2,20.3-9.3,13.9-4.1,33.5-12.4,33.5-12.4v-.1Z" fill="#be2f55" isolation="isolate" mix-blend-mode="multiply" opacity=".5" stroke-width="0"/>
          <path d="M118.1,321.3s21.1,13.4,29.6,17.7c8.5,4.3,24.2,4.1,24.2,4.1,0,0-6.4-5.2-20.3-9.3-13.9-4.1-33.5-12.4-33.5-12.4v-.1Z" fill="#be2f55" isolation="isolate" mix-blend-mode="multiply" opacity=".5" stroke-width="0"/>
          <path d="M173.8,355.6s-5.9-8.1-19.5-13.6-30.2-14.7-30.2-14.7c0,0,16.4,12.6,27.3,17.9,11,5.3,22.3,10.4,22.3,10.4h.1Z" fill="#ffd134" stroke-width="0"/>
          <path d="M145,359.9s-18.9,1.6-25,1.1-6.4-1.6-6.4-1.6c0,0,26.2-.4,31.3.5h.1Z" fill="#ffd134" stroke-width="0"/>
          <path d="M195.5,399.8s-14.4,6.2-21.7,5.2-11.5-19.8-11.5-19.8c0,0,6.7,13.6,13.2,17.1,6.4,3.5,20.1-2.5,20.1-2.5h-.1Z" fill="#ffd134" stroke-width="0"/>
          <path d="M416.1,319.2s-32.6,18-49.2,25.6-28.3,14.5-28.3,14.5c0,0,12-10.3,26.3-16.9s51.1-23.1,51.1-23.1l.1-.1Z" fill="#ffd134" stroke-width="0"/>
          <path d="M404.3,356.7h-39.3s26.9-2.2,39.3,0Z" fill="#ffd134" stroke-width="0"/>
          <path d="M355.2,392.1s-10.6,12.9-16.5,14.2c-5.9,1.3-19.6-6.5-19.6-6.5,0,0,13.1,5.9,19.6,4.2,6.5-1.7,16.5-11.9,16.5-11.9h0Z" fill="#ffd134" stroke-width="0"/>
          <path d="M155.3,342.4c4,2-6.1,2.9-9,0-3-2.9,1.8-3.7,9,0Z" fill="#fff9c7" stroke-width="0"/>
          <path d="M173.8,406.5c4.5.6-1.2-3.8-3.6-5.2-2.4-1.4-2.6,4.4,3.6,5.2Z" fill="#fff9c7" stroke-width="0"/>
          <path d="M344.3,404.2c2-5.5-3.1-.5-7.3,1.5-4.2,2,5.8,2.8,7.3-1.5Z" fill="#fff9c7" stroke-width="0"/>
          <path d="M359.8,346.2c2.9,0-1.5,4.1-6.1,5.1s2-5.1,6.1-5.1Z" fill="#fff9c7" stroke-width="0"/>
          <path d="M104.9,270.1s2.4,11.5,1.5,15.8-15.7,14.8-21,16.6c-5.3,1.7-9.2-5.7,4.6-19.8,8.7-8.9,14.9-12.6,14.9-12.6Z" fill="url(#linear-gradient-33)" stroke-width="0"/>
          <path d="M436.7,298.7c.3,4.5-18.7-4.7-23.7-6.9-4.9-2.2-5.9-4.2-5.9-4.2l.6-14.5c4.4,0,27.8,15.9,29,25.6Z" fill="url(#linear-gradient-34)" stroke-width="0"/>
        </g>
        <path d="M168.1,354.4c-1.4,6.3-10.3,9.6-19.9,7.4-9.6-2.2-16.2-9-14.8-15.3s10.3-9.6,19.9-7.4c9.6,2.2,16.2,9,14.8,15.3Z" fill="url(#radial-gradient-23)" isolation="isolate" mix-blend-mode="color-dodge" stroke-width="0"/>
        <path d="M103.4,276.1c5.4,4.7,3.9,15.1-3.2,23.2-7.1,8.2-17.2,11-22.6,6.3-5.4-4.7-3.9-15.1,3.2-23.2,7.1-8.2,17.2-11,22.6-6.3Z" fill="url(#radial-gradient-24)" isolation="isolate" mix-blend-mode="color-dodge" stroke-width="0"/>
        <path d="M400.1,332.5c2.3,3.9-2.8,11.1-11.3,16s-17.2,5.7-19.5,1.8c-2.3-3.9,2.8-11.1,11.3-16s17.2-5.7,19.5-1.8Z" fill="url(#radial-gradient-25)" isolation="isolate" mix-blend-mode="color-dodge" stroke-width="0"/>
        <g>
          <path d="M285.4,387.9s-24,26.1-27.3,26.1-28.3-25.6-28.3-25.6l28.3-15.9,27.4,15.3-.1.1Z" fill="url(#linear-gradient-35)" stroke-width="0"/>
          <path d="M257.5,374.1c-2.4-.7-1.6,35.3,0,37.4s23.6-19.9,24.6-21.3-19.1-14.4-24.6-16.1Z" fill="#fff" isolation="isolate" mix-blend-mode="soft-light" stroke-width="0"/>
          <path d="M233.1,390.2c-1.5-2,20.5-15.2,21.6-15.8,1.1-.6,1.5,35.9,1.4,37.2,0,1.3-21-18.8-22.9-21.4h-.1Z" fill="#be2f55" isolation="isolate" mix-blend-mode="multiply" opacity=".5" stroke-width="0"/>
          <path d="M257.2,386.1c-1.1,3.6-1.2,18.6,0,22,1.2,3.3,2.7-13.6,2.8-17.6,0-4-2-6.7-2.8-4.3v-.1Z" fill="#fff" stroke-width="0"/>
          <path d="M233,391.7s4.9-3.5,12,1.2,9.8,19.2,9.8,19.2l-21.8-20.4h0Z" fill="#fff" isolation="isolate" mix-blend-mode="soft-light" stroke-width="0"/>
        </g>
        <path d="M260.1,374.1c4.9,0,8.9,6.9,8.9,15.4s-4,15.4-8.9,15.4-8.9-6.9-8.9-15.4,4-15.4,8.9-15.4Z" fill="url(#radial-gradient-26)" isolation="isolate" mix-blend-mode="color-dodge" stroke-width="0"/>
      </g>
    </g>
  </g>
</svg>